<svg width="470" height="168" viewBox="0 0 470 168" fill="none" xmlns="http://www.w3.org/2000/svg">
<g filter="url(#filter0_b_18_14)">
<rect width="470" height="168" fill="#000D18" fill-opacity="0.3"/>
</g>
<path d="M75.975 83.575V73.67L80.035 71.325H88.89L92.95 73.67V78.325H88.05V75.525H80.875V81.37H88.89L92.95 83.715V93.83L88.89 96.175H79.685L75.625 93.83V89.175H80.525V91.975H88.05V85.92H80.035L75.975 83.575ZM97.1596 82.595V78.5H100.38V75.56L105.175 72.795V78.5H109.025V82.595H105.175V91.905H109.025V96H104.44L100.38 93.655V82.595H97.1596ZM117.659 89.105V92.15H122.594V89.105H117.659ZM116.924 96.175L112.864 93.83V87.775L116.924 85.43H122.594V82.595H114.614V78.5H123.329L127.389 80.845V96.175H125.079L122.594 94.74L120.109 96.175H116.924ZM143.452 82.595H137.432V96H132.637V78.5H136.592L137.432 79.935L139.917 78.5H143.452V82.595ZM145.558 82.595V78.5H148.778V75.56L153.573 72.795V78.5H157.423V82.595H153.573V91.905H157.423V96H152.838L148.778 93.655V82.595H145.558ZM176.83 96V85.535L168.955 71.5H174.275L179.245 80.67H179.315L184.32 71.5H189.64L181.73 85.57V96H176.83ZM208.368 93.83L204.308 96.175H196.853L192.793 93.83V80.67L196.853 78.325H204.308L208.368 80.67V93.83ZM197.588 82.42V92.08H203.573V82.42H197.588ZM213.608 93.83V78.5H218.403V92.08H224.388V78.5H229.183V96.175H225.228L224.388 94.74L221.903 96.175H217.668L213.608 93.83ZM245.239 82.595H239.219V96H234.424V78.5H238.379L239.219 79.935L241.704 78.5H245.239V82.595ZM271.312 88.825H276.212V93.83L272.152 96.175H262.247L258.187 93.83V73.67L262.247 71.325H272.152L276.212 73.67V78.675H271.312V75.525H263.087V91.975H271.312V88.825ZM292.27 82.595H286.25V96H281.455V78.5H285.41L286.25 79.935L288.735 78.5H292.27V82.595ZM297.141 103L300.361 94.775L293.676 78.5H298.471L302.776 88.79H302.846L306.906 78.5H311.701L301.866 103H297.141ZM326.714 96.175H322.129L319.644 94.74V103H314.849V78.325H318.804L319.644 79.76L322.129 78.325H326.714L330.774 80.67V93.83L326.714 96.175ZM319.644 82.42V92.08H325.979V82.42H319.644ZM334.64 82.595V78.5H337.86V75.56L342.655 72.795V78.5H346.505V82.595H342.655V91.905H346.505V96H341.92L337.86 93.655V82.595H334.64ZM366.62 93.83L362.56 96.175H355.105L351.045 93.83V80.67L355.105 78.325H362.56L366.62 80.67V93.83ZM355.84 82.42V92.08H361.825V82.42H355.84ZM377.11 85.5V96H372.21V71.5H377.11V81.3H386.735V71.5H391.635V96H386.735V85.5H377.11ZM411.747 91.905V96H401.282L397.222 93.655V80.67L401.282 78.325H407.687L411.747 80.67V89.035H402.017V91.905H411.747ZM402.017 82.42V85.43H406.952V82.42H402.017ZM414.912 96L421.282 87.075L415.122 78.5H420.337L423.767 83.435L427.197 78.5H432.412L426.217 87.075L432.622 96H427.477L423.767 90.75L420.057 96H414.912Z" fill="white"/>
<defs>
<filter id="filter0_b_18_14" x="-9" y="-9" width="488" height="186" filterUnits="userSpaceOnUse" color-interpolation-filters="sRGB">
<feFlood flood-opacity="0" result="BackgroundImageFix"/>
<feGaussianBlur in="BackgroundImageFix" stdDeviation="4.5"/>
<feComposite in2="SourceAlpha" operator="in" result="effect1_backgroundBlur_18_14"/>
<feBlend mode="normal" in="SourceGraphic" in2="effect1_backgroundBlur_18_14" result="shape"/>
</filter>
</defs>
</svg>
