<svg width="138" height="133" viewBox="0 0 138 133" fill="none" xmlns="http://www.w3.org/2000/svg">
<ellipse cx="71" cy="67.5" rx="67" ry="65.5" fill="#000D37"/>
<path d="M136 67.5C136 102.528 106.941 131 71 131C35.0586 131 6 102.528 6 67.5C6 32.4724 35.0586 4 71 4C106.941 4 136 32.4724 136 67.5Z" stroke="#FF0000" stroke-opacity="0.96" stroke-width="4"/>
<path d="M36.3788 96C35.6949 96 34.9768 95.9869 34.2245 95.9607C33.4723 95.9323 32.7542 95.8907 32.0703 95.8361V76.6611L52.5867 73.3833L64.4863 82.8889C69.6838 80.3759 74.4545 77.3986 78.7985 73.9569C83.1398 70.5153 86.7466 66.8278 89.6189 62.8944L77.9245 53.4708L81.7201 37H105.724C105.861 37.5463 105.929 38.1199 105.929 38.7208V40.4417C105.929 47.4889 103.963 54.358 100.029 61.0491C96.098 67.7423 90.9005 73.6838 84.4365 78.8736C77.9751 84.0634 70.5564 88.2153 62.1802 91.3292C53.8013 94.4431 45.2008 96 36.3788 96Z" fill="#C53333"/>
</svg>
