<svg width="1207" height="674" viewBox="0 0 1207 674" fill="none" xmlns="http://www.w3.org/2000/svg">
<rect x="182.5" y="29.5" width="286" height="103" rx="19.5" stroke="white"/>
<rect x="182" y="158.5" width="123" height="38" rx="8" fill="#333333"/>
<rect x="190" y="164.5" width="41" height="26" rx="6" fill="#444444"/>
<path d="M198.717 181.5V174.227H201.445C202.003 174.227 202.472 174.331 202.851 174.54C203.232 174.748 203.52 175.035 203.714 175.399C203.91 175.761 204.009 176.173 204.009 176.635C204.009 177.101 203.91 177.516 203.714 177.878C203.517 178.24 203.227 178.525 202.844 178.734C202.46 178.94 201.988 179.043 201.427 179.043H199.619V177.96H201.249C201.576 177.96 201.844 177.903 202.052 177.789C202.26 177.675 202.414 177.519 202.513 177.32C202.615 177.121 202.666 176.893 202.666 176.635C202.666 176.377 202.615 176.15 202.513 175.953C202.414 175.757 202.259 175.604 202.048 175.495C201.84 175.384 201.571 175.328 201.242 175.328H200.035V181.5H198.717ZM205.096 181.5V176.045H206.343V176.955H206.399C206.499 176.64 206.669 176.397 206.911 176.227C207.155 176.054 207.433 175.967 207.745 175.967C207.816 175.967 207.896 175.971 207.983 175.978C208.073 175.983 208.148 175.991 208.207 176.003V177.185C208.152 177.166 208.066 177.15 207.948 177.136C207.832 177.119 207.719 177.111 207.61 177.111C207.376 177.111 207.165 177.162 206.978 177.263C206.794 177.363 206.648 177.501 206.541 177.679C206.435 177.857 206.382 178.061 206.382 178.293V181.5H205.096ZM209.061 181.5V176.045H210.346V181.5H209.061ZM209.707 175.271C209.504 175.271 209.328 175.204 209.182 175.069C209.035 174.932 208.961 174.767 208.961 174.575C208.961 174.381 209.035 174.217 209.182 174.082C209.328 173.944 209.504 173.876 209.707 173.876C209.913 173.876 210.088 173.944 210.233 174.082C210.38 174.217 210.453 174.381 210.453 174.575C210.453 174.767 210.38 174.932 210.233 175.069C210.088 175.204 209.913 175.271 209.707 175.271ZM214.048 181.607C213.503 181.607 213.036 181.487 212.645 181.248C212.257 181.009 211.957 180.679 211.746 180.257C211.538 179.833 211.434 179.346 211.434 178.794C211.434 178.24 211.54 177.751 211.754 177.327C211.967 176.901 212.267 176.57 212.656 176.333C213.046 176.094 213.508 175.974 214.04 175.974C214.483 175.974 214.875 176.056 215.216 176.219C215.559 176.38 215.833 176.609 216.036 176.905C216.24 177.198 216.356 177.542 216.384 177.935H215.156C215.106 177.672 214.987 177.453 214.8 177.278C214.616 177.1 214.368 177.011 214.058 177.011C213.795 177.011 213.565 177.082 213.366 177.224C213.167 177.364 213.012 177.565 212.901 177.828C212.792 178.091 212.737 178.406 212.737 178.773C212.737 179.144 212.792 179.464 212.901 179.732C213.009 179.997 213.162 180.201 213.359 180.346C213.558 180.488 213.791 180.559 214.058 180.559C214.248 180.559 214.417 180.523 214.566 180.452C214.718 180.379 214.844 180.274 214.946 180.136C215.048 179.999 215.118 179.832 215.156 179.636H216.384C216.353 180.022 216.24 180.364 216.043 180.662C215.847 180.958 215.579 181.19 215.241 181.358C214.902 181.524 214.504 181.607 214.048 181.607ZM219.855 181.607C219.308 181.607 218.835 181.493 218.438 181.266C218.042 181.036 217.738 180.712 217.525 180.293C217.312 179.871 217.205 179.375 217.205 178.805C217.205 178.244 217.312 177.751 217.525 177.327C217.74 176.901 218.041 176.57 218.427 176.333C218.813 176.094 219.266 175.974 219.787 175.974C220.123 175.974 220.441 176.029 220.739 176.138C221.039 176.244 221.305 176.41 221.534 176.635C221.766 176.86 221.949 177.146 222.081 177.494C222.214 177.84 222.28 178.252 222.28 178.73V179.124H217.809V178.258H221.048C221.045 178.012 220.992 177.793 220.888 177.601C220.784 177.407 220.638 177.254 220.451 177.143C220.267 177.031 220.051 176.976 219.805 176.976C219.542 176.976 219.311 177.04 219.112 177.168C218.914 177.293 218.758 177.459 218.647 177.665C218.538 177.868 218.483 178.092 218.48 178.336V179.092C218.48 179.41 218.538 179.682 218.654 179.909C218.77 180.134 218.932 180.307 219.141 180.428C219.349 180.546 219.593 180.605 219.872 180.605C220.059 180.605 220.229 180.579 220.38 180.527C220.532 180.473 220.663 180.393 220.774 180.289C220.886 180.185 220.97 180.056 221.026 179.902L222.227 180.037C222.151 180.354 222.007 180.631 221.794 180.868C221.583 181.102 221.313 181.285 220.984 181.415C220.655 181.543 220.278 181.607 219.855 181.607Z" fill="white"/>
<path d="M265.942 176.681H264.614C264.576 176.463 264.507 176.27 264.405 176.102C264.303 175.932 264.176 175.787 264.025 175.669C263.873 175.551 263.701 175.462 263.506 175.403C263.315 175.341 263.107 175.31 262.885 175.31C262.49 175.31 262.139 175.41 261.834 175.609C261.528 175.805 261.289 176.094 261.116 176.475C260.944 176.854 260.857 177.317 260.857 177.864C260.857 178.42 260.944 178.889 261.116 179.27C261.292 179.649 261.531 179.935 261.834 180.129C262.139 180.321 262.488 180.417 262.881 180.417C263.099 180.417 263.303 180.388 263.492 180.332C263.684 180.272 263.856 180.186 264.007 180.072C264.161 179.959 264.29 179.819 264.394 179.653C264.501 179.488 264.574 179.298 264.614 179.085L265.942 179.092C265.893 179.438 265.785 179.762 265.619 180.065C265.456 180.368 265.242 180.636 264.977 180.868C264.711 181.098 264.401 181.277 264.046 181.408C263.691 181.536 263.297 181.599 262.864 181.599C262.224 181.599 261.654 181.451 261.152 181.156C260.65 180.86 260.255 180.432 259.966 179.874C259.677 179.315 259.533 178.645 259.533 177.864C259.533 177.08 259.678 176.41 259.969 175.854C260.261 175.295 260.657 174.868 261.159 174.572C261.661 174.276 262.229 174.128 262.864 174.128C263.268 174.128 263.645 174.185 263.993 174.298C264.341 174.412 264.651 174.579 264.923 174.799C265.196 175.017 265.419 175.284 265.594 175.602C265.772 175.916 265.888 176.276 265.942 176.681ZM268.378 178.304V181.5H267.092V174.227H268.349V176.972H268.413C268.541 176.665 268.739 176.422 269.006 176.244C269.276 176.064 269.619 175.974 270.036 175.974C270.415 175.974 270.745 176.054 271.027 176.212C271.309 176.371 271.526 176.603 271.68 176.908C271.836 177.214 271.915 177.587 271.915 178.027V181.5H270.629V178.226C270.629 177.859 270.534 177.574 270.345 177.37C270.158 177.164 269.895 177.061 269.557 177.061C269.329 177.061 269.126 177.111 268.946 177.21C268.768 177.307 268.629 177.448 268.527 177.633C268.427 177.817 268.378 178.041 268.378 178.304ZM274.795 181.61C274.449 181.61 274.138 181.549 273.861 181.425C273.586 181.3 273.368 181.115 273.207 180.871C273.049 180.628 272.969 180.327 272.969 179.969C272.969 179.662 273.026 179.407 273.14 179.206C273.253 179.005 273.408 178.844 273.605 178.723C273.801 178.602 274.023 178.511 274.269 178.45C274.518 178.386 274.774 178.339 275.04 178.311C275.359 178.278 275.618 178.248 275.817 178.222C276.016 178.194 276.161 178.151 276.251 178.094C276.343 178.035 276.389 177.944 276.389 177.821V177.8C276.389 177.532 276.31 177.325 276.151 177.178C275.992 177.031 275.764 176.958 275.466 176.958C275.151 176.958 274.901 177.027 274.716 177.164C274.534 177.301 274.411 177.464 274.347 177.651L273.147 177.48C273.242 177.149 273.398 176.872 273.616 176.649C273.833 176.424 274.1 176.256 274.415 176.145C274.729 176.031 275.077 175.974 275.459 175.974C275.721 175.974 275.983 176.005 276.243 176.067C276.504 176.128 276.742 176.23 276.957 176.372C277.173 176.512 277.345 176.702 277.476 176.944C277.608 177.185 277.675 177.487 277.675 177.849V181.5H276.439V180.751H276.396C276.318 180.902 276.208 181.044 276.066 181.177C275.926 181.307 275.75 181.412 275.537 181.493C275.326 181.571 275.079 181.61 274.795 181.61ZM275.128 180.665C275.386 180.665 275.61 180.615 275.8 180.513C275.989 180.409 276.135 180.271 276.236 180.101C276.34 179.93 276.393 179.745 276.393 179.543V178.901C276.352 178.934 276.284 178.964 276.187 178.993C276.092 179.021 275.985 179.046 275.867 179.067C275.749 179.089 275.631 179.108 275.515 179.124C275.399 179.141 275.299 179.155 275.214 179.167C275.022 179.193 274.85 179.236 274.699 179.295C274.547 179.354 274.428 179.437 274.34 179.543C274.252 179.647 274.209 179.782 274.209 179.948C274.209 180.185 274.295 180.364 274.468 180.484C274.641 180.605 274.861 180.665 275.128 180.665ZM278.967 181.5V176.045H280.214V176.955H280.27C280.37 176.64 280.54 176.397 280.782 176.227C281.026 176.054 281.304 175.967 281.616 175.967C281.687 175.967 281.767 175.971 281.854 175.978C281.944 175.983 282.019 175.991 282.078 176.003V177.185C282.023 177.166 281.937 177.15 281.819 177.136C281.703 177.119 281.59 177.111 281.481 177.111C281.247 177.111 281.036 177.162 280.849 177.263C280.665 177.363 280.519 177.501 280.412 177.679C280.306 177.857 280.253 178.061 280.253 178.293V181.5H278.967ZM285.949 176.045V177.04H282.813V176.045H285.949ZM283.587 174.739H284.873V179.859C284.873 180.032 284.899 180.165 284.951 180.257C285.005 180.347 285.076 180.409 285.164 180.442C285.251 180.475 285.349 180.491 285.455 180.491C285.536 180.491 285.609 180.486 285.675 180.474C285.744 180.462 285.796 180.451 285.831 180.442L286.048 181.447C285.979 181.47 285.881 181.496 285.753 181.525C285.628 181.553 285.474 181.57 285.292 181.575C284.97 181.584 284.68 181.536 284.422 181.429C284.164 181.32 283.959 181.152 283.807 180.925C283.658 180.697 283.585 180.413 283.587 180.072V174.739Z" fill="white"/>
<rect x="688" y="158.5" width="243" height="38" rx="8" fill="#333333"/>
<rect x="696" y="164.5" width="29" height="26" rx="6" fill="#444444"/>
<path d="M707.604 174.227V181.5H706.287V175.509H706.244L704.543 176.596V175.388L706.351 174.227H707.604ZM709.522 181.5V174.227H710.839V177.306H714.21V174.227H715.531V181.5H714.21V178.411H710.839V181.5H709.522Z" fill="white"/>
<path d="M753.515 180.151V179.103L756.601 174.227H757.474V175.719H756.942L754.864 179.011V179.067H759.172V180.151H753.515ZM756.984 181.5V179.831L756.999 179.362V174.227H758.241V181.5H756.984ZM760.377 181.5V174.227H761.695V177.306H765.065V174.227H766.386V181.5H765.065V178.411H761.695V181.5H760.377Z" fill="white"/>
<path d="M809.604 174.227V181.5H808.287V175.509H808.244L806.543 176.596V175.388L808.351 174.227H809.604ZM813.987 181.5H811.522V174.227H814.036C814.758 174.227 815.379 174.373 815.897 174.664C816.418 174.953 816.818 175.368 817.097 175.911C817.377 176.453 817.516 177.101 817.516 177.857C817.516 178.614 817.375 179.265 817.094 179.81C816.814 180.354 816.411 180.772 815.883 181.063C815.357 181.354 814.725 181.5 813.987 181.5ZM812.839 180.36H813.923C814.429 180.36 814.852 180.268 815.19 180.083C815.529 179.896 815.783 179.618 815.954 179.249C816.124 178.877 816.21 178.413 816.21 177.857C816.21 177.3 816.124 176.839 815.954 176.472C815.783 176.102 815.531 175.826 815.197 175.644C814.866 175.46 814.454 175.367 813.962 175.367H812.839V180.36Z" fill="white"/>
<path d="M860.604 174.227V181.5H859.287V175.509H859.244L857.543 176.596V175.388L859.351 174.227H860.604ZM862.522 174.227H864.134L866.293 179.497H866.379L868.538 174.227H870.15V181.5H868.886V176.504H868.818L866.808 181.479H865.864L863.854 176.493H863.786V181.5H862.522V174.227Z" fill="white"/>
<path d="M902.093 174.904H919.917" stroke="white" stroke-width="1.5" stroke-linecap="round" stroke-linejoin="round"/>
<path d="M915.442 178.81H915.451" stroke="white" stroke-width="1.5" stroke-linecap="round" stroke-linejoin="round"/>
<path d="M911.005 178.81H911.014" stroke="white" stroke-width="1.5" stroke-linecap="round" stroke-linejoin="round"/>
<path d="M906.558 178.81H906.567" stroke="white" stroke-width="1.5" stroke-linecap="round" stroke-linejoin="round"/>
<path d="M915.442 182.696H915.451" stroke="white" stroke-width="1.5" stroke-linecap="round" stroke-linejoin="round"/>
<path d="M911.005 182.696H911.014" stroke="white" stroke-width="1.5" stroke-linecap="round" stroke-linejoin="round"/>
<path d="M906.558 182.696H906.567" stroke="white" stroke-width="1.5" stroke-linecap="round" stroke-linejoin="round"/>
<path d="M915.044 167.5V170.791" stroke="white" stroke-width="1.5" stroke-linecap="round" stroke-linejoin="round"/>
<path d="M906.966 167.5V170.791" stroke="white" stroke-width="1.5" stroke-linecap="round" stroke-linejoin="round"/>
<path fill-rule="evenodd" clip-rule="evenodd" d="M915.238 169.079H906.771C903.834 169.079 902 170.715 902 173.722V182.772C902 185.826 903.834 187.5 906.771 187.5H915.229C918.175 187.5 920 185.855 920 182.847V173.722C920.009 170.715 918.184 169.079 915.238 169.079Z" stroke="white" stroke-width="1.5" stroke-linecap="round" stroke-linejoin="round"/>
<path d="M108.978 394.274C107.86 393.008 99.1934 400.867 95 404.954V604.983H897.34H1091.37L1111.86 326.79C1109.53 322.267 1106.82 317.139 1106.55 317.139H1102.35L1086.98 300.13V266.902L1075.33 263.738L1062.75 259.782V266.902L1056.22 251.475L1048.77 259.782V251.475L1039.92 266.902L1036.19 257.013L1024.54 291.427H1018.95L1006.84 329.006C1005.13 325.973 1001.43 319.908 1000.31 319.908C999.194 319.908 996.429 322.281 995.187 323.468L986.8 297.756H983.072L975.617 287.076C969.25 294.592 956.141 310.177 954.65 312.392C953.159 314.607 951.233 309.887 950.457 307.25C949.214 311.469 946.45 319.908 945.332 319.908C944.213 319.908 936.479 292.482 932.751 278.769L923.899 287.076C921.88 288.527 917.375 291.427 915.512 291.427C913.648 291.427 912.871 285.362 912.716 282.329L904.795 287.076V273.231C904.795 270.7 899.825 275.869 897.34 278.769C896.253 270.858 894.079 254.323 894.079 251.475C894.079 248.627 881.032 282.725 874.509 300.13L866.589 282.329L863.327 300.13L860.065 291.427C855.717 299.602 846.646 316.744 845.155 319.908C843.664 323.073 842.049 311.469 841.428 305.272L837.701 300.13L834.439 282.329L819.063 287.076L810.676 302.503C807.259 288.263 798.444 261.336 798.096 259.782C777.122 166.2 778.682 319.381 770.14 349.18L751.969 319.908L746.377 326.633L735.195 337.708L731.467 330.984L723.546 341.664L716.557 326.633L711.898 329.006L703.511 305.272L694.193 309.623V319.908L682.544 257.013L669.032 276.396L658.781 273.231L646.201 282.329L633.155 284.703L630.825 273.231L611.722 284.703L594.016 259.782L589.357 247.52L585.164 259.782H579.107C576.466 274.946 570.813 305.668 569.322 307.25C567.458 309.228 561.867 276.396 561.867 273.231C561.867 270.7 556.276 290.109 553.48 300.13L550.684 263.738L542.298 284.703L533.445 279.56L526.456 282.329V276.396L518.535 282.329L512.478 257.013L499.898 291.427L488.249 329.006L483.124 319.908L469.612 330.984L466.816 337.708L453.77 305.272L445.849 319.908L437.928 330.984L430.007 313.975L413.7 374.496L409.506 388.341L390.869 368.958L387.141 394.274L379.22 409.701L366.64 391.901V400.208L360.583 402.185L344.275 437.391L330.297 444.115L323.774 430.666L314.455 444.115L310.728 413.261L299.08 465.871L289.761 437.391L285.102 458.356L279.044 444.115L262.271 485.254L253.418 448.071L233.849 511.361H231.053L227.326 541.82L217.541 407.723H213.348L204.029 370.936H198.438L184.925 361.047C182.44 366.189 177.471 377.186 177.471 380.034C177.471 382.882 171.258 365.398 168.152 356.3L163.027 339.686L148.583 374.496L146.253 370.936L133.673 397.043H124.354L122.024 394.274C120.471 396.911 116.899 402.185 115.035 402.185C112.706 402.185 110.376 395.856 108.978 394.274Z" fill="url(#paint0_linear_32_675)"/>
<g filter="url(#filter0_d_32_675)">
<path d="M91 407.087C95.1934 402.999 103.86 395.141 104.978 396.406C106.376 397.989 108.706 404.318 111.035 404.318C112.899 404.318 116.471 399.044 118.024 396.406L120.354 399.175H129.673L142.253 373.068L144.583 376.628L159.027 341.819L164.152 358.432C167.258 367.53 173.471 385.014 173.471 382.166C173.471 379.318 178.44 368.321 180.925 363.179L194.438 373.068H200.029L209.348 409.856H213.541L223.326 543.952L227.053 513.494H229.849L249.418 450.203L258.271 487.386L275.044 446.248L281.102 460.488L285.761 439.523L295.08 468.004L306.728 415.394L310.455 446.248L319.774 432.798L326.297 446.248L340.275 439.523L356.583 404.318L362.64 402.34V394.033L375.22 411.833L383.141 396.406L386.869 371.09L405.506 390.473L409.7 376.628L426.007 316.107L433.928 333.116L441.849 322.04L449.77 307.404L462.816 339.841L465.612 333.116L479.124 322.04L484.249 331.138L495.898 293.56L508.478 259.146L514.535 284.462L522.456 278.528V284.462L529.445 281.693L538.298 286.835L546.684 265.87L549.48 302.262C552.276 292.241 557.867 272.832 557.867 275.364C557.867 278.528 563.458 311.36 565.322 309.382C566.813 307.8 572.466 277.078 575.107 261.915H581.164L585.357 249.652L590.016 261.915L607.722 286.835L626.825 275.364L629.155 286.835L642.201 284.462L654.781 275.364L665.032 278.528L678.544 259.146L690.192 322.04V311.756L699.511 307.404L707.898 331.138L712.557 328.765L719.546 343.796L727.467 333.116L731.195 339.841L742.377 328.765L747.968 322.04L766.14 351.312C774.682 321.513 773.122 168.332 794.096 261.915C794.444 263.468 803.259 290.395 806.676 304.636L815.063 289.209L830.439 284.462L833.7 302.262L837.428 307.404C838.049 313.602 839.664 325.205 841.155 322.04C842.646 318.876 851.717 301.735 856.065 293.56L859.327 302.262L862.588 284.462L870.509 302.262C877.032 284.857 890.079 250.76 890.079 253.608C890.079 256.456 892.253 272.99 893.34 280.902C895.825 278.001 900.795 272.832 900.795 275.364C900.795 277.895 900.795 285.648 900.795 289.209L908.716 284.462C908.871 287.494 909.648 293.56 911.512 293.56C913.375 293.56 917.879 290.659 919.899 289.209L928.751 280.902C932.479 294.615 940.213 322.04 941.332 322.04C942.45 322.04 945.214 313.602 946.457 309.382C947.233 312.019 949.159 316.74 950.65 314.525C952.141 312.309 965.249 296.724 971.617 289.209L979.072 299.889H982.8L991.187 325.6C992.429 324.414 995.194 322.04 996.312 322.04C997.43 322.04 1001.13 328.106 1002.83 331.138L1014.95 293.56H1020.54L1032.19 259.146L1035.92 269.035L1044.77 253.608V261.915L1052.22 253.608L1058.75 269.035V261.915L1071.33 265.87L1082.98 269.035V302.262L1098.35 319.271C1099.59 319.271 1102.17 319.271 1102.55 319.271C1102.92 319.271 1107.67 328.501 1110 333.116" stroke="white" stroke-width="3" stroke-linecap="round" stroke-linejoin="round"/>
</g>
<g filter="url(#filter1_d_32_675)">
<rect x="777" y="225" width="9.13902" height="7.73435" rx="3.86717" fill="#07BEB8"/>
</g>
<g filter="url(#filter2_d_32_675)">
<rect x="218.95" y="539.66" width="9.13902" height="7.73435" rx="3.86717" fill="#FF007A"/>
</g>
<rect x="244.271" y="514.663" width="134.039" height="41.4229" rx="6" fill="white" fill-opacity="0.04"/>
<path d="M257.803 538.754V527.845H258.502V538.754H257.803ZM259.989 531.228C259.944 530.825 259.756 530.513 259.427 530.291C259.097 530.066 258.682 529.954 258.182 529.954C257.824 529.954 257.515 530.011 257.253 530.125C256.992 530.236 256.789 530.389 256.644 530.585C256.502 530.778 256.431 530.998 256.431 531.245C256.431 531.453 256.479 531.632 256.576 531.782C256.675 531.933 256.805 532.059 256.964 532.162C257.126 532.261 257.299 532.345 257.484 532.413C257.668 532.478 257.846 532.532 258.016 532.575L258.869 532.797C259.147 532.865 259.432 532.957 259.725 533.074C260.018 533.19 260.289 533.343 260.539 533.534C260.789 533.724 260.991 533.96 261.144 534.241C261.3 534.522 261.378 534.859 261.378 535.251C261.378 535.745 261.251 536.184 260.995 536.568C260.742 536.951 260.374 537.254 259.891 537.476C259.411 537.697 258.83 537.808 258.148 537.808C257.495 537.808 256.93 537.704 256.452 537.497C255.975 537.29 255.601 536.995 255.332 536.615C255.062 536.231 254.913 535.777 254.884 535.251H256.205C256.231 535.566 256.333 535.829 256.512 536.04C256.694 536.247 256.925 536.402 257.207 536.504C257.491 536.603 257.802 536.653 258.14 536.653C258.512 536.653 258.843 536.595 259.133 536.478C259.425 536.359 259.655 536.194 259.823 535.984C259.991 535.771 260.074 535.522 260.074 535.238C260.074 534.98 260.001 534.768 259.853 534.603C259.708 534.439 259.511 534.302 259.261 534.194C259.013 534.086 258.734 533.991 258.421 533.909L257.39 533.628C256.691 533.437 256.137 533.157 255.728 532.788C255.322 532.419 255.119 531.93 255.119 531.322C255.119 530.819 255.255 530.38 255.528 530.005C255.8 529.63 256.17 529.339 256.636 529.132C257.101 528.922 257.627 528.816 258.212 528.816C258.803 528.816 259.324 528.92 259.776 529.128C260.231 529.335 260.589 529.62 260.85 529.984C261.111 530.345 261.248 530.76 261.259 531.228H259.989ZM269.32 528.936V537.663H267.998V530.257H267.947L265.859 531.62V530.359L268.037 528.936H269.32ZM274.727 537.782C274.338 537.777 273.954 537.706 273.577 537.569C273.202 537.433 272.861 537.206 272.554 536.888C272.247 536.569 272.001 536.142 271.817 535.605C271.635 535.068 271.544 534.397 271.544 533.593C271.544 532.832 271.619 532.156 271.77 531.565C271.923 530.974 272.143 530.476 272.43 530.069C272.717 529.66 273.064 529.349 273.47 529.136C273.876 528.923 274.332 528.816 274.838 528.816C275.358 528.816 275.82 528.919 276.223 529.123C276.626 529.328 276.953 529.611 277.203 529.971C277.456 530.332 277.616 530.743 277.685 531.203H276.385C276.297 530.839 276.122 530.542 275.861 530.312C275.599 530.082 275.258 529.967 274.838 529.967C274.199 529.967 273.7 530.245 273.342 530.802C272.987 531.359 272.808 532.133 272.805 533.125H272.869C273.02 532.878 273.204 532.667 273.423 532.494C273.645 532.318 273.892 532.183 274.165 532.089C274.44 531.993 274.73 531.944 275.034 531.944C275.54 531.944 275.997 532.068 276.406 532.315C276.818 532.559 277.146 532.897 277.391 533.329C277.635 533.761 277.757 534.255 277.757 534.812C277.757 535.369 277.631 535.873 277.378 536.325C277.128 536.777 276.775 537.135 276.321 537.399C275.866 537.66 275.335 537.788 274.727 537.782ZM274.723 536.674C275.058 536.674 275.358 536.592 275.622 536.427C275.886 536.263 276.095 536.041 276.248 535.763C276.402 535.484 276.479 535.173 276.479 534.829C276.479 534.494 276.403 534.189 276.253 533.913C276.105 533.638 275.9 533.419 275.639 533.257C275.381 533.095 275.085 533.014 274.753 533.014C274.5 533.014 274.266 533.062 274.05 533.159C273.837 533.255 273.649 533.389 273.487 533.559C273.325 533.73 273.197 533.926 273.104 534.147C273.013 534.366 272.967 534.598 272.967 534.842C272.967 535.169 273.043 535.471 273.193 535.75C273.347 536.028 273.555 536.253 273.82 536.423C274.087 536.591 274.388 536.674 274.723 536.674ZM280.585 536.47L280.522 536.934C280.479 537.275 280.407 537.63 280.304 538C280.205 538.372 280.101 538.717 279.993 539.035C279.888 539.353 279.801 539.606 279.733 539.794H278.83C278.867 539.618 278.918 539.379 278.983 539.078C279.049 538.78 279.112 538.446 279.175 538.076C279.237 537.707 279.284 537.331 279.316 536.947L279.358 536.47H280.585ZM282.185 535.959V534.893L285.956 528.936H286.795V530.504H286.263L283.565 534.774V534.842H288.734V535.959H282.185ZM286.322 537.663V535.635L286.331 535.149V528.936H287.579V537.663H286.322ZM293.121 528.816C293.511 528.819 293.894 528.89 294.272 529.03C294.65 529.169 294.991 529.396 295.295 529.711C295.601 530.027 295.846 530.453 296.028 530.99C296.212 531.524 296.306 532.189 296.309 532.984C296.309 533.748 296.232 534.429 296.079 535.025C295.925 535.619 295.705 536.12 295.418 536.53C295.134 536.939 294.789 537.25 294.383 537.463C293.976 537.676 293.519 537.782 293.011 537.782C292.491 537.782 292.029 537.68 291.626 537.476C291.222 537.271 290.894 536.988 290.641 536.628C290.388 536.264 290.231 535.846 290.168 535.375H291.468C291.553 535.75 291.726 536.054 291.988 536.287C292.252 536.517 292.593 536.632 293.011 536.632C293.65 536.632 294.148 536.353 294.506 535.797C294.864 535.237 295.045 534.456 295.047 533.453H294.979C294.832 533.697 294.647 533.907 294.425 534.084C294.207 534.26 293.961 534.396 293.688 534.493C293.415 534.589 293.124 534.638 292.815 534.638C292.312 534.638 291.854 534.514 291.442 534.267C291.03 534.02 290.702 533.68 290.458 533.248C290.214 532.816 290.092 532.324 290.092 531.77C290.092 531.218 290.217 530.718 290.467 530.27C290.719 529.821 291.072 529.466 291.523 529.204C291.978 528.94 292.511 528.811 293.121 528.816ZM293.126 529.924C292.793 529.924 292.494 530.007 292.226 530.172C291.962 530.334 291.753 530.554 291.6 530.832C291.447 531.108 291.37 531.415 291.37 531.753C291.37 532.091 291.444 532.397 291.592 532.673C291.742 532.946 291.947 533.163 292.205 533.325C292.467 533.484 292.765 533.564 293.1 533.564C293.35 533.564 293.583 533.515 293.799 533.419C294.015 533.322 294.204 533.189 294.366 533.018C294.528 532.845 294.654 532.649 294.745 532.43C294.836 532.211 294.881 531.981 294.881 531.74C294.881 531.419 294.805 531.12 294.651 530.845C294.501 530.569 294.293 530.348 294.029 530.18C293.765 530.01 293.464 529.924 293.126 529.924ZM300.887 537.808C300.213 537.805 299.638 537.628 299.161 537.275C298.684 536.923 298.318 536.41 298.066 535.737C297.813 535.064 297.686 534.253 297.686 533.304C297.686 532.358 297.813 531.549 298.066 530.879C298.321 530.209 298.688 529.697 299.165 529.345C299.645 528.993 300.219 528.816 300.887 528.816C301.554 528.816 302.127 528.994 302.604 529.349C303.081 529.701 303.446 530.213 303.699 530.883C303.955 531.551 304.083 532.358 304.083 533.304C304.083 534.255 303.956 535.068 303.703 535.741C303.451 536.412 303.085 536.924 302.608 537.28C302.131 537.632 301.557 537.808 300.887 537.808ZM300.887 536.67C301.478 536.67 301.939 536.382 302.272 535.805C302.607 535.228 302.774 534.395 302.774 533.304C302.774 532.579 302.698 531.967 302.544 531.467C302.394 530.964 302.176 530.584 301.892 530.325C301.611 530.064 301.276 529.933 300.887 529.933C300.299 529.933 299.837 530.223 299.502 530.802C299.166 531.382 298.997 532.216 298.995 533.304C298.995 534.031 299.07 534.646 299.22 535.149C299.374 535.649 299.591 536.028 299.872 536.287C300.154 536.542 300.492 536.67 300.887 536.67ZM306.134 537.744C305.902 537.744 305.701 537.662 305.534 537.497C305.366 537.329 305.282 537.128 305.282 536.892C305.282 536.659 305.366 536.46 305.534 536.295C305.701 536.128 305.902 536.044 306.134 536.044C306.367 536.044 306.568 536.128 306.735 536.295C306.903 536.46 306.987 536.659 306.987 536.892C306.987 537.048 306.947 537.191 306.867 537.322C306.791 537.45 306.688 537.552 306.561 537.629C306.433 537.706 306.291 537.744 306.134 537.744ZM311.398 537.782C310.813 537.782 310.29 537.682 309.83 537.48C309.373 537.278 309.011 536.998 308.744 536.64C308.479 536.28 308.337 535.862 308.317 535.388H309.655C309.672 535.646 309.759 535.87 309.915 536.061C310.074 536.248 310.282 536.393 310.538 536.495C310.793 536.598 311.077 536.649 311.39 536.649C311.734 536.649 312.038 536.589 312.302 536.47C312.569 536.351 312.778 536.184 312.928 535.971C313.079 535.755 313.154 535.507 313.154 535.226C313.154 534.933 313.079 534.676 312.928 534.454C312.78 534.23 312.563 534.054 312.276 533.926C311.992 533.798 311.648 533.734 311.245 533.734H310.508V532.66H311.245C311.569 532.66 311.853 532.602 312.097 532.486C312.344 532.369 312.538 532.207 312.677 532C312.816 531.79 312.886 531.544 312.886 531.263C312.886 530.993 312.824 530.758 312.702 530.559C312.583 530.358 312.413 530.2 312.191 530.086C311.972 529.973 311.714 529.916 311.415 529.916C311.131 529.916 310.866 529.968 310.619 530.074C310.374 530.176 310.175 530.324 310.022 530.517C309.869 530.707 309.786 530.936 309.775 531.203H308.501C308.515 530.731 308.654 530.316 308.918 529.959C309.185 529.601 309.538 529.321 309.975 529.119C310.413 528.917 310.898 528.816 311.432 528.816C311.992 528.816 312.475 528.926 312.881 529.145C313.29 529.361 313.606 529.649 313.827 530.01C314.052 530.37 314.163 530.765 314.16 531.194C314.163 531.683 314.026 532.098 313.751 532.439C313.478 532.78 313.114 533.008 312.66 533.125V533.193C313.239 533.281 313.688 533.511 314.006 533.883C314.327 534.255 314.486 534.717 314.484 535.268C314.486 535.748 314.353 536.179 314.083 536.559C313.816 536.94 313.451 537.24 312.988 537.459C312.525 537.674 311.995 537.782 311.398 537.782ZM316.388 537.663L320.198 530.129V530.065H315.792V528.936H321.562V530.103L317.765 537.663H316.388Z" fill="white"/>
<rect x="799" y="205" width="130.993" height="41.4229" rx="6" fill="white" fill-opacity="0.04"/>
<path d="M812.533 229.091V218.182H813.232V229.091H812.533ZM814.719 221.565C814.673 221.162 814.486 220.849 814.156 220.628C813.827 220.403 813.412 220.291 812.912 220.291C812.554 220.291 812.244 220.348 811.983 220.462C811.722 220.572 811.518 220.726 811.374 220.922C811.232 221.115 811.161 221.335 811.161 221.582C811.161 221.79 811.209 221.969 811.305 222.119C811.405 222.27 811.534 222.396 811.693 222.499C811.855 222.598 812.028 222.682 812.213 222.75C812.398 222.815 812.575 222.869 812.746 222.912L813.598 223.134C813.876 223.202 814.162 223.294 814.455 223.411C814.747 223.527 815.018 223.68 815.268 223.871C815.518 224.061 815.72 224.297 815.874 224.578C816.03 224.859 816.108 225.196 816.108 225.588C816.108 226.082 815.98 226.521 815.724 226.905C815.472 227.288 815.104 227.591 814.621 227.812C814.141 228.034 813.56 228.145 812.878 228.145C812.224 228.145 811.659 228.041 811.182 227.834C810.705 227.626 810.331 227.332 810.061 226.952C809.791 226.568 809.642 226.114 809.614 225.588H810.935C810.96 225.903 811.063 226.166 811.241 226.376C811.423 226.584 811.655 226.739 811.936 226.841C812.22 226.94 812.531 226.99 812.869 226.99C813.241 226.99 813.572 226.932 813.862 226.815C814.155 226.696 814.385 226.531 814.553 226.321C814.72 226.108 814.804 225.859 814.804 225.575C814.804 225.317 814.73 225.105 814.582 224.94C814.438 224.776 814.24 224.639 813.99 224.531C813.743 224.423 813.463 224.328 813.151 224.246L812.119 223.964C811.42 223.774 810.866 223.494 810.457 223.125C810.051 222.756 809.848 222.267 809.848 221.659C809.848 221.156 809.984 220.717 810.257 220.342C810.53 219.967 810.899 219.676 811.365 219.469C811.831 219.259 812.357 219.153 812.942 219.153C813.533 219.153 814.054 219.257 814.506 219.464C814.96 219.672 815.318 219.957 815.58 220.321C815.841 220.682 815.977 221.097 815.989 221.565H814.719ZM824.049 219.273V228H822.728V220.594H822.677L820.589 221.957V220.696L822.766 219.273H824.049ZM829.457 228.119C829.067 228.114 828.684 228.043 828.306 227.906C827.931 227.77 827.59 227.543 827.283 227.224C826.977 226.906 826.731 226.479 826.546 225.942C826.364 225.405 826.273 224.734 826.273 223.93C826.273 223.169 826.349 222.493 826.499 221.902C826.653 221.311 826.873 220.812 827.16 220.406C827.447 219.997 827.793 219.686 828.2 219.473C828.606 219.26 829.062 219.153 829.567 219.153C830.087 219.153 830.549 219.256 830.952 219.46C831.356 219.665 831.683 219.947 831.933 220.308C832.185 220.669 832.346 221.08 832.414 221.54H831.114C831.026 221.176 830.852 220.879 830.59 220.649C830.329 220.419 829.988 220.304 829.567 220.304C828.928 220.304 828.43 220.582 828.072 221.139C827.717 221.696 827.538 222.47 827.535 223.462H827.599C827.749 223.214 827.934 223.004 828.153 222.831C828.374 222.655 828.621 222.52 828.894 222.426C829.17 222.33 829.46 222.281 829.763 222.281C830.269 222.281 830.727 222.405 831.136 222.652C831.548 222.896 831.876 223.234 832.12 223.666C832.364 224.098 832.487 224.592 832.487 225.149C832.487 225.706 832.36 226.21 832.107 226.662C831.857 227.114 831.505 227.472 831.05 227.736C830.596 227.997 830.065 228.125 829.457 228.119ZM829.452 227.011C829.788 227.011 830.087 226.929 830.352 226.764C830.616 226.599 830.825 226.378 830.978 226.099C831.131 225.821 831.208 225.51 831.208 225.166C831.208 224.831 831.133 224.526 830.982 224.25C830.835 223.974 830.63 223.756 830.369 223.594C830.11 223.432 829.815 223.351 829.482 223.351C829.229 223.351 828.995 223.399 828.779 223.496C828.566 223.592 828.379 223.726 828.217 223.896C828.055 224.067 827.927 224.263 827.833 224.484C827.742 224.703 827.697 224.935 827.697 225.179C827.697 225.506 827.772 225.808 827.923 226.087C828.076 226.365 828.285 226.589 828.549 226.76C828.816 226.928 829.117 227.011 829.452 227.011ZM835.315 226.807L835.251 227.271C835.208 227.612 835.136 227.967 835.034 228.337C834.934 228.709 834.831 229.054 834.723 229.372C834.618 229.69 834.531 229.943 834.463 230.131H833.559C833.596 229.955 833.647 229.716 833.713 229.415C833.778 229.116 833.842 228.783 833.904 228.413C833.967 228.044 834.014 227.668 834.045 227.284L834.088 226.807H835.315ZM839.828 228.119C839.439 228.114 839.055 228.043 838.677 227.906C838.302 227.77 837.961 227.543 837.654 227.224C837.348 226.906 837.102 226.479 836.917 225.942C836.735 225.405 836.645 224.734 836.645 223.93C836.645 223.169 836.72 222.493 836.87 221.902C837.024 221.311 837.244 220.812 837.531 220.406C837.818 219.997 838.164 219.686 838.571 219.473C838.977 219.26 839.433 219.153 839.939 219.153C840.458 219.153 840.92 219.256 841.324 219.46C841.727 219.665 842.054 219.947 842.304 220.308C842.556 220.669 842.717 221.08 842.785 221.54H841.485C841.397 221.176 841.223 220.879 840.961 220.649C840.7 220.419 840.359 220.304 839.939 220.304C839.299 220.304 838.801 220.582 838.443 221.139C838.088 221.696 837.909 222.47 837.906 223.462H837.97C838.12 223.214 838.305 223.004 838.524 222.831C838.745 222.655 838.993 222.52 839.265 222.426C839.541 222.33 839.831 222.281 840.135 222.281C840.64 222.281 841.098 222.405 841.507 222.652C841.919 222.896 842.247 223.234 842.491 223.666C842.735 224.098 842.858 224.592 842.858 225.149C842.858 225.706 842.731 226.21 842.478 226.662C842.228 227.114 841.876 227.472 841.422 227.736C840.967 227.997 840.436 228.125 839.828 228.119ZM839.824 227.011C840.159 227.011 840.458 226.929 840.723 226.764C840.987 226.599 841.196 226.378 841.349 226.099C841.502 225.821 841.579 225.51 841.579 225.166C841.579 224.831 841.504 224.526 841.353 224.25C841.206 223.974 841.001 223.756 840.74 223.594C840.481 223.432 840.186 223.351 839.853 223.351C839.6 223.351 839.366 223.399 839.15 223.496C838.937 223.592 838.75 223.726 838.588 223.896C838.426 224.067 838.298 224.263 838.204 224.484C838.113 224.703 838.068 224.935 838.068 225.179C838.068 225.506 838.143 225.808 838.294 226.087C838.447 226.365 838.656 226.589 838.92 226.76C839.187 226.928 839.488 227.011 839.824 227.011ZM847.721 219.273V228H846.4V220.594H846.349L844.261 221.957V220.696L846.438 219.273H847.721ZM852.984 219.153C853.373 219.156 853.756 219.227 854.134 219.366C854.512 219.506 854.853 219.733 855.157 220.048C855.464 220.364 855.708 220.79 855.89 221.327C856.075 221.861 856.168 222.526 856.171 223.321C856.171 224.085 856.094 224.766 855.941 225.362C855.788 225.956 855.567 226.457 855.281 226.866C854.996 227.276 854.651 227.587 854.245 227.8C853.839 228.013 853.381 228.119 852.873 228.119C852.353 228.119 851.891 228.017 851.488 227.812C851.085 227.608 850.756 227.325 850.504 226.964C850.251 226.601 850.093 226.183 850.031 225.712H851.33C851.415 226.087 851.589 226.391 851.85 226.624C852.114 226.854 852.455 226.969 852.873 226.969C853.512 226.969 854.011 226.69 854.369 226.134C854.727 225.574 854.907 224.793 854.91 223.79H854.842C854.694 224.034 854.509 224.244 854.288 224.42C854.069 224.597 853.823 224.733 853.55 224.83C853.278 224.926 852.987 224.974 852.677 224.974C852.174 224.974 851.717 224.851 851.305 224.604C850.893 224.357 850.565 224.017 850.32 223.585C850.076 223.153 849.954 222.661 849.954 222.107C849.954 221.555 850.079 221.055 850.329 220.607C850.582 220.158 850.934 219.803 851.386 219.541C851.84 219.277 852.373 219.148 852.984 219.153ZM852.988 220.261C852.656 220.261 852.356 220.344 852.089 220.509C851.825 220.67 851.616 220.891 851.462 221.169C851.309 221.445 851.232 221.751 851.232 222.089C851.232 222.428 851.306 222.734 851.454 223.01C851.604 223.283 851.809 223.5 852.067 223.662C852.329 223.821 852.627 223.901 852.962 223.901C853.212 223.901 853.445 223.852 853.661 223.756C853.877 223.659 854.066 223.526 854.228 223.355C854.39 223.182 854.516 222.986 854.607 222.767C854.698 222.548 854.744 222.318 854.744 222.077C854.744 221.756 854.667 221.457 854.513 221.182C854.363 220.906 854.156 220.685 853.891 220.517C853.627 220.347 853.326 220.261 852.988 220.261ZM858.251 228.081C858.018 228.081 857.817 227.999 857.65 227.834C857.482 227.666 857.398 227.464 857.398 227.229C857.398 226.996 857.482 226.797 857.65 226.632C857.817 226.464 858.018 226.381 858.251 226.381C858.484 226.381 858.684 226.464 858.852 226.632C859.019 226.797 859.103 226.996 859.103 227.229C859.103 227.385 859.063 227.528 858.984 227.659C858.907 227.787 858.805 227.889 858.677 227.966C858.549 228.043 858.407 228.081 858.251 228.081ZM863.515 228.119C862.929 228.119 862.407 228.018 861.946 227.817C861.489 227.615 861.127 227.335 860.86 226.977C860.596 226.616 860.453 226.199 860.434 225.724H861.772C861.789 225.983 861.875 226.207 862.032 226.398C862.191 226.585 862.398 226.73 862.654 226.832C862.909 226.935 863.194 226.986 863.506 226.986C863.85 226.986 864.154 226.926 864.418 226.807C864.685 226.687 864.894 226.521 865.044 226.308C865.195 226.092 865.27 225.844 865.27 225.562C865.27 225.27 865.195 225.013 865.044 224.791C864.897 224.567 864.679 224.391 864.392 224.263C864.108 224.135 863.765 224.071 863.361 224.071H862.624V222.997H863.361C863.685 222.997 863.969 222.939 864.213 222.822C864.461 222.706 864.654 222.544 864.793 222.337C864.932 222.126 865.002 221.881 865.002 221.599C865.002 221.33 864.941 221.095 864.819 220.896C864.699 220.695 864.529 220.537 864.307 220.423C864.088 220.31 863.83 220.253 863.532 220.253C863.248 220.253 862.982 220.305 862.735 220.411C862.49 220.513 862.292 220.661 862.138 220.854C861.985 221.044 861.902 221.273 861.891 221.54H860.617C860.631 221.068 860.77 220.653 861.034 220.295C861.301 219.937 861.654 219.658 862.091 219.456C862.529 219.254 863.015 219.153 863.549 219.153C864.108 219.153 864.591 219.263 864.998 219.482C865.407 219.697 865.722 219.986 865.944 220.347C866.168 220.707 866.279 221.102 866.276 221.531C866.279 222.02 866.142 222.435 865.867 222.776C865.594 223.116 865.23 223.345 864.776 223.462V223.53C865.355 223.618 865.804 223.848 866.123 224.22C866.444 224.592 866.603 225.054 866.6 225.605C866.603 226.085 866.469 226.516 866.199 226.896C865.932 227.277 865.567 227.577 865.104 227.795C864.641 228.011 864.111 228.119 863.515 228.119ZM868.505 228L872.314 220.466V220.402H867.908V219.273H873.678V220.44L869.881 228H868.505Z" fill="white"/>
<path d="M237.918 67V49.5455H244.31C245.548 49.5455 246.574 49.75 247.386 50.1591C248.199 50.5625 248.807 51.1108 249.21 51.804C249.614 52.4915 249.815 53.267 249.815 54.1307C249.815 54.858 249.682 55.4716 249.415 55.9716C249.148 56.4659 248.79 56.8636 248.341 57.1648C247.898 57.4602 247.409 57.6761 246.875 57.8125V57.983C247.455 58.0114 248.02 58.1989 248.571 58.5455C249.128 58.8864 249.588 59.3722 249.952 60.0028C250.315 60.6335 250.497 61.4006 250.497 62.304C250.497 63.196 250.287 63.9972 249.866 64.7074C249.452 65.4119 248.81 65.9716 247.94 66.3864C247.071 66.7955 245.96 67 244.608 67H237.918ZM240.551 64.7415H244.352C245.614 64.7415 246.517 64.4972 247.062 64.0085C247.608 63.5199 247.881 62.9091 247.881 62.1761C247.881 61.625 247.741 61.1193 247.463 60.6591C247.185 60.1989 246.787 59.8324 246.27 59.5597C245.759 59.2869 245.151 59.1506 244.446 59.1506H240.551V64.7415ZM240.551 57.0966H244.08C244.67 57.0966 245.202 56.983 245.673 56.7557C246.151 56.5284 246.528 56.2102 246.807 55.8011C247.091 55.3864 247.233 54.8977 247.233 54.3352C247.233 53.6136 246.98 53.0085 246.474 52.5199C245.969 52.0312 245.193 51.7869 244.148 51.7869H240.551V57.0966ZM252.76 51.8125V49.5455H266.268V51.8125H260.822V67H258.197V51.8125H252.76ZM283.001 55.2216H280.342C280.239 54.6534 280.049 54.1534 279.771 53.7216C279.492 53.2898 279.151 52.9233 278.748 52.6222C278.344 52.321 277.893 52.0937 277.393 51.9403C276.898 51.7869 276.373 51.7102 275.816 51.7102C274.81 51.7102 273.91 51.9631 273.114 52.4688C272.325 52.9744 271.7 53.7159 271.239 54.6932C270.785 55.6705 270.558 56.8636 270.558 58.2727C270.558 59.6932 270.785 60.892 271.239 61.8693C271.7 62.8466 272.327 63.5852 273.123 64.0852C273.918 64.5852 274.813 64.8352 275.808 64.8352C276.359 64.8352 276.881 64.7614 277.376 64.6136C277.876 64.4602 278.327 64.2358 278.731 63.9403C279.134 63.6449 279.475 63.2841 279.754 62.858C280.038 62.4261 280.234 61.9318 280.342 61.375L283.001 61.3835C282.859 62.2415 282.583 63.0312 282.174 63.7528C281.771 64.4688 281.251 65.0881 280.614 65.6108C279.984 66.1278 279.262 66.5284 278.45 66.8125C277.637 67.0966 276.751 67.2386 275.79 67.2386C274.279 67.2386 272.933 66.8807 271.751 66.1648C270.569 65.4432 269.637 64.4119 268.955 63.071C268.279 61.7301 267.941 60.1307 267.941 58.2727C267.941 56.4091 268.282 54.8097 268.964 53.4744C269.646 52.1335 270.577 51.1051 271.759 50.3892C272.941 49.6676 274.285 49.3068 275.79 49.3068C276.717 49.3068 277.58 49.4403 278.381 49.7074C279.188 49.9687 279.913 50.3551 280.555 50.8665C281.197 51.3722 281.728 51.9915 282.148 52.7244C282.569 53.4517 282.853 54.2841 283.001 55.2216Z" fill="#EAEAEA"/>
<g clip-path="url(#clip0_32_675)">
<g filter="url(#filter3_d_32_675)">
<path d="M308 72C316.284 72 323 65.2843 323 57C323 48.7157 316.284 42 308 42C299.716 42 293 48.7157 293 57C293 65.2843 299.716 72 308 72Z" fill="black"/>
</g>
<path d="M308 72C316.284 72 323 65.2843 323 57C323 48.7157 316.284 42 308 42C299.716 42 293 48.7157 293 57C293 65.2843 299.716 72 308 72Z" fill="#F7931A"/>
<path style="mix-blend-mode:soft-light" d="M308 72C316.284 72 323 65.2843 323 57C323 48.7157 316.284 42 308 42C299.716 42 293 48.7157 293 57C293 65.2843 299.716 72 308 72Z" fill="url(#paint1_linear_32_675)"/>
<path d="M308 71.5C316.008 71.5 322.5 65.0081 322.5 57C322.5 48.9919 316.008 42.5 308 42.5C299.992 42.5 293.5 48.9919 293.5 57C293.5 65.0081 299.992 71.5 308 71.5Z" stroke="black" stroke-opacity="0.097"/>
<g filter="url(#filter4_d_32_675)">
<path d="M315.189 55.02C315.503 52.924 313.906 51.797 311.724 51.045L312.432 48.205L310.704 47.775L310.014 50.54C309.56 50.426 309.094 50.32 308.629 50.214L309.324 47.431L307.596 47L306.888 49.839C306.512 49.753 306.142 49.669 305.784 49.579L305.786 49.57L303.402 48.975L302.942 50.821C302.942 50.821 304.225 51.115 304.198 51.133C304.898 51.308 305.024 51.771 305.003 52.139L304.197 55.374C304.245 55.386 304.307 55.404 304.377 55.431L304.194 55.386L303.064 59.918C302.978 60.13 302.761 60.449 302.271 60.328C302.289 60.353 301.015 60.015 301.015 60.015L300.157 61.993L302.407 62.554C302.825 62.659 303.235 62.769 303.638 62.872L302.923 65.744L304.65 66.174L305.358 63.334C305.83 63.461 306.288 63.579 306.736 63.691L306.03 66.519L307.758 66.949L308.473 64.083C311.421 64.641 313.637 64.416 314.57 61.75C315.322 59.604 314.533 58.365 312.982 57.558C314.112 57.298 314.962 56.555 315.189 55.02ZM311.239 60.558C310.706 62.705 307.091 61.544 305.919 61.253L306.869 57.448C308.041 57.741 311.798 58.32 311.239 60.558ZM311.774 54.989C311.287 56.942 308.279 55.949 307.304 55.706L308.164 52.256C309.139 52.499 312.282 52.952 311.774 54.989Z" fill="black"/>
</g>
<path d="M315.189 55.02C315.503 52.924 313.906 51.797 311.724 51.045L312.432 48.205L310.704 47.775L310.014 50.54C309.56 50.426 309.094 50.32 308.629 50.214L309.324 47.431L307.596 47L306.888 49.839C306.512 49.753 306.142 49.669 305.784 49.579L305.786 49.57L303.402 48.975L302.942 50.821C302.942 50.821 304.225 51.115 304.198 51.133C304.898 51.308 305.024 51.771 305.003 52.139L304.197 55.374C304.245 55.386 304.307 55.404 304.377 55.431L304.194 55.386L303.064 59.918C302.978 60.13 302.761 60.449 302.271 60.328C302.289 60.353 301.015 60.015 301.015 60.015L300.157 61.993L302.407 62.554C302.825 62.659 303.235 62.769 303.638 62.872L302.923 65.744L304.65 66.174L305.358 63.334C305.83 63.461 306.288 63.579 306.736 63.691L306.03 66.519L307.758 66.949L308.473 64.083C311.421 64.641 313.637 64.416 314.57 61.75C315.322 59.604 314.533 58.365 312.982 57.558C314.112 57.298 314.962 56.555 315.189 55.02ZM311.239 60.558C310.706 62.705 307.091 61.544 305.919 61.253L306.869 57.448C308.041 57.741 311.798 58.32 311.239 60.558ZM311.774 54.989C311.287 56.942 308.279 55.949 307.304 55.706L308.164 52.256C309.139 52.499 312.282 52.952 311.774 54.989Z" fill="white"/>
</g>
<path d="M246.598 113.273V80.5455H248.695V113.273H246.598ZM253.156 90.696C253.02 89.4858 252.457 88.5483 251.469 87.8835C250.48 87.2102 249.236 86.8736 247.736 86.8736C246.662 86.8736 245.733 87.044 244.949 87.3849C244.165 87.7173 243.555 88.1776 243.121 88.7656C242.695 89.3452 242.482 90.0057 242.482 90.7472C242.482 91.3693 242.626 91.9062 242.916 92.358C243.214 92.8097 243.602 93.1889 244.08 93.4957C244.565 93.794 245.085 94.0455 245.639 94.25C246.193 94.446 246.726 94.608 247.237 94.7358L249.794 95.4006C250.629 95.6051 251.486 95.8821 252.364 96.2315C253.241 96.581 254.055 97.0412 254.805 97.6122C255.555 98.1832 256.161 98.8906 256.621 99.7344C257.089 100.578 257.324 101.588 257.324 102.764C257.324 104.247 256.94 105.564 256.173 106.714C255.415 107.865 254.311 108.773 252.862 109.438C251.422 110.102 249.679 110.435 247.634 110.435C245.673 110.435 243.977 110.124 242.545 109.501C241.114 108.879 239.993 107.997 239.183 106.855C238.374 105.705 237.926 104.341 237.841 102.764H241.804C241.881 103.71 242.188 104.499 242.724 105.129C243.27 105.751 243.964 106.216 244.808 106.523C245.661 106.821 246.594 106.97 247.608 106.97C248.724 106.97 249.717 106.795 250.587 106.446C251.464 106.088 252.155 105.594 252.658 104.963C253.161 104.324 253.412 103.578 253.412 102.726C253.412 101.95 253.19 101.315 252.747 100.821C252.313 100.327 251.72 99.9176 250.97 99.5938C250.229 99.2699 249.389 98.9844 248.452 98.7372L245.358 97.8935C243.261 97.3224 241.599 96.483 240.372 95.375C239.153 94.267 238.544 92.8011 238.544 90.9773C238.544 89.4687 238.953 88.152 239.771 87.027C240.589 85.902 241.697 85.0284 243.095 84.4062C244.493 83.7756 246.07 83.4602 247.825 83.4602C249.598 83.4602 251.162 83.7713 252.517 84.3935C253.881 85.0156 254.955 85.8722 255.739 86.9631C256.523 88.0455 256.932 89.2898 256.966 90.696H253.156Z" fill="white"/>
<path d="M276.976 83.8182V110H272.233V88.4332H272.08L265.956 92.3452V87.9986L272.463 83.8182H276.976ZM293.212 110.358C291.959 110.349 290.736 110.132 289.543 109.706C288.349 109.271 287.276 108.568 286.321 107.597C285.366 106.616 284.608 105.317 284.045 103.697C283.483 102.07 283.206 100.054 283.214 97.6506C283.214 95.4091 283.453 93.4105 283.93 91.6548C284.408 89.8991 285.094 88.4162 285.989 87.206C286.884 85.9872 287.962 85.0582 289.223 84.419C290.493 83.7798 291.912 83.4602 293.48 83.4602C295.125 83.4602 296.582 83.7841 297.852 84.4318C299.131 85.0795 300.162 85.9659 300.946 87.0909C301.73 88.2074 302.216 89.4688 302.403 90.875H297.737C297.499 89.8693 297.009 89.0682 296.267 88.4716C295.534 87.8665 294.605 87.5639 293.48 87.5639C291.665 87.5639 290.267 88.3523 289.287 89.929C288.315 91.5057 287.825 93.6705 287.817 96.4233H287.996C288.413 95.6733 288.955 95.0298 289.619 94.4929C290.284 93.956 291.034 93.5426 291.869 93.2528C292.713 92.9545 293.604 92.8054 294.541 92.8054C296.075 92.8054 297.452 93.1719 298.67 93.9048C299.898 94.6378 300.869 95.6477 301.585 96.9347C302.301 98.2131 302.655 99.679 302.646 101.332C302.655 103.054 302.263 104.601 301.47 105.973C300.678 107.337 299.574 108.411 298.159 109.195C296.744 109.979 295.095 110.366 293.212 110.358ZM293.186 106.523C294.115 106.523 294.946 106.297 295.679 105.845C296.412 105.393 296.991 104.784 297.418 104.017C297.844 103.25 298.053 102.389 298.044 101.435C298.053 100.497 297.848 99.6491 297.43 98.8906C297.021 98.1321 296.455 97.5312 295.73 97.0881C295.006 96.6449 294.179 96.4233 293.25 96.4233C292.56 96.4233 291.916 96.5554 291.32 96.8196C290.723 97.0838 290.203 97.4503 289.76 97.919C289.317 98.3793 288.967 98.9162 288.712 99.5298C288.464 100.135 288.337 100.783 288.328 101.473C288.337 102.385 288.55 103.224 288.967 103.991C289.385 104.759 289.96 105.372 290.693 105.832C291.426 106.293 292.257 106.523 293.186 106.523ZM311.327 106.42L311.161 107.827C311.041 108.901 310.828 109.991 310.521 111.099C310.223 112.216 309.908 113.243 309.575 114.18C309.243 115.118 308.974 115.855 308.77 116.392H305.651C305.77 115.872 305.932 115.165 306.136 114.27C306.349 113.375 306.554 112.369 306.75 111.253C306.946 110.136 307.078 109.003 307.146 107.852L307.236 106.42H311.327ZM325.245 110.358C323.541 110.358 322.015 110.038 320.669 109.399C319.322 108.751 318.252 107.865 317.46 106.74C316.676 105.615 316.258 104.328 316.207 102.879H320.809C320.895 103.953 321.359 104.831 322.203 105.513C323.047 106.186 324.061 106.523 325.245 106.523C326.174 106.523 327.001 106.31 327.725 105.884C328.45 105.457 329.021 104.865 329.439 104.107C329.856 103.348 330.061 102.483 330.052 101.511C330.061 100.523 329.852 99.6449 329.426 98.8778C329 98.1108 328.416 97.5099 327.674 97.0753C326.933 96.6321 326.081 96.4105 325.118 96.4105C324.333 96.402 323.562 96.5469 322.804 96.8452C322.045 97.1435 321.444 97.5355 321.001 98.0213L316.718 97.3182L318.086 83.8182H333.274V87.7812H322.011L321.257 94.723H321.41C321.896 94.152 322.582 93.679 323.468 93.304C324.355 92.9205 325.326 92.7287 326.383 92.7287C327.968 92.7287 329.383 93.1037 330.627 93.8537C331.872 94.5952 332.852 95.6179 333.568 96.9219C334.284 98.2259 334.642 99.7173 334.642 101.396C334.642 103.126 334.241 104.669 333.44 106.024C332.647 107.371 331.544 108.432 330.129 109.207C328.723 109.974 327.095 110.358 325.245 110.358ZM348.014 83.4602C349.267 83.4687 350.485 83.6903 351.67 84.125C352.863 84.5511 353.937 85.25 354.892 86.2216C355.846 87.1847 356.605 88.4759 357.167 90.0952C357.73 91.7145 358.011 93.7173 358.011 96.1037C358.02 98.3537 357.781 100.365 357.295 102.138C356.818 103.902 356.132 105.393 355.237 106.612C354.342 107.831 353.264 108.76 352.002 109.399C350.741 110.038 349.322 110.358 347.745 110.358C346.092 110.358 344.626 110.034 343.348 109.386C342.078 108.739 341.051 107.852 340.267 106.727C339.483 105.602 339.001 104.315 338.822 102.866H343.488C343.727 103.906 344.213 104.733 344.946 105.347C345.687 105.952 346.62 106.254 347.745 106.254C349.561 106.254 350.958 105.466 351.939 103.889C352.919 102.312 353.409 100.122 353.409 97.3182H353.23C352.812 98.0682 352.271 98.7159 351.606 99.2614C350.941 99.7983 350.187 100.212 349.343 100.501C348.508 100.791 347.622 100.936 346.684 100.936C345.15 100.936 343.77 100.57 342.542 99.8366C341.324 99.1037 340.356 98.098 339.64 96.8196C338.933 95.5412 338.575 94.0795 338.566 92.4347C338.566 90.7301 338.958 89.2003 339.743 87.8452C340.535 86.4815 341.639 85.4077 343.054 84.6236C344.468 83.831 346.122 83.4432 348.014 83.4602ZM348.027 87.2955C347.106 87.2955 346.275 87.5213 345.534 87.973C344.801 88.4162 344.221 89.0213 343.795 89.7884C343.377 90.5469 343.169 91.3949 343.169 92.3324C343.177 93.2614 343.386 94.1051 343.795 94.8636C344.213 95.6222 344.779 96.223 345.495 96.6662C346.22 97.1094 347.047 97.331 347.975 97.331C348.666 97.331 349.309 97.1989 349.906 96.9347C350.502 96.6705 351.022 96.304 351.466 95.8352C351.917 95.358 352.267 94.8168 352.514 94.2116C352.77 93.6065 352.893 92.9673 352.885 92.294C352.885 91.3991 352.672 90.5724 352.245 89.8139C351.828 89.0554 351.252 88.446 350.52 87.9858C349.795 87.5256 348.964 87.2955 348.027 87.2955ZM371.946 110.499C369.841 110.499 368.034 109.966 366.525 108.901C365.025 107.827 363.87 106.28 363.061 104.26C362.26 102.232 361.859 99.7898 361.859 96.9347C361.868 94.0795 362.272 91.6506 363.074 89.6477C363.883 87.6364 365.038 86.1023 366.538 85.0455C368.047 83.9886 369.849 83.4602 371.946 83.4602C374.042 83.4602 375.845 83.9886 377.353 85.0455C378.862 86.1023 380.017 87.6364 380.818 89.6477C381.627 91.6591 382.032 94.0881 382.032 96.9347C382.032 99.7983 381.627 102.244 380.818 104.273C380.017 106.293 378.862 107.835 377.353 108.901C375.853 109.966 374.051 110.499 371.946 110.499ZM371.946 106.497C373.582 106.497 374.873 105.692 375.819 104.081C376.774 102.462 377.251 100.08 377.251 96.9347C377.251 94.8551 377.034 93.108 376.599 91.6932C376.164 90.2784 375.551 89.2131 374.758 88.4972C373.966 87.7727 373.028 87.4105 371.946 87.4105C370.318 87.4105 369.031 88.2202 368.085 89.8395C367.139 91.4503 366.662 93.8153 366.653 96.9347C366.645 99.0227 366.853 100.778 367.279 102.202C367.714 103.625 368.328 104.699 369.12 105.423C369.913 106.139 370.855 106.497 371.946 106.497ZM388.162 110.281C387.387 110.281 386.722 110.009 386.168 109.463C385.614 108.918 385.341 108.253 385.35 107.469C385.341 106.702 385.614 106.045 386.168 105.5C386.722 104.955 387.387 104.682 388.162 104.682C388.912 104.682 389.564 104.955 390.118 105.5C390.681 106.045 390.966 106.702 390.975 107.469C390.966 107.989 390.83 108.462 390.566 108.888C390.31 109.314 389.969 109.655 389.543 109.911C389.125 110.158 388.665 110.281 388.162 110.281ZM395.229 105.142V101.371L406.338 83.8182H409.483V89.1875H407.565L400.087 101.038V101.243H415.594V105.142H395.229ZM407.719 110V103.991L407.77 102.304V83.8182H412.244V110H407.719ZM429.356 110.499C427.251 110.499 425.444 109.966 423.935 108.901C422.435 107.827 421.281 106.28 420.471 104.26C419.67 102.232 419.269 99.7898 419.269 96.9347C419.278 94.0795 419.683 91.6506 420.484 89.6477C421.293 87.6364 422.448 86.1023 423.948 85.0455C425.457 83.9886 427.259 83.4602 429.356 83.4602C431.452 83.4602 433.255 83.9886 434.763 85.0455C436.272 86.1023 437.427 87.6364 438.228 89.6477C439.038 91.6591 439.442 94.0881 439.442 96.9347C439.442 99.7983 439.038 102.244 438.228 104.273C437.427 106.293 436.272 107.835 434.763 108.901C433.263 109.966 431.461 110.499 429.356 110.499ZM429.356 106.497C430.992 106.497 432.283 105.692 433.229 104.081C434.184 102.462 434.661 100.08 434.661 96.9347C434.661 94.8551 434.444 93.108 434.009 91.6932C433.575 90.2784 432.961 89.2131 432.168 88.4972C431.376 87.7727 430.438 87.4105 429.356 87.4105C427.728 87.4105 426.441 88.2202 425.495 89.8395C424.549 91.4503 424.072 93.8153 424.063 96.9347C424.055 99.0227 424.263 100.778 424.69 102.202C425.124 103.625 425.738 104.699 426.531 105.423C427.323 106.139 428.265 106.497 429.356 106.497Z" fill="white"/>
<path opacity="0.33" d="M223 42V123.5" stroke="white"/>
<g filter="url(#filter5_d_32_675)">
<rect x="277" y="592" width="6.26009" height="6" rx="3" fill="#FF007A"/>
</g>
<path d="M297.219 599V590.273H298.536V597.866H302.49V599H297.219ZM306.647 599.132C306.034 599.132 305.498 598.991 305.041 598.71C304.583 598.429 304.228 598.036 303.975 597.53C303.722 597.024 303.596 596.433 303.596 595.757C303.596 595.078 303.722 594.484 303.975 593.976C304.228 593.467 304.583 593.072 305.041 592.791C305.498 592.51 306.034 592.369 306.647 592.369C307.261 592.369 307.796 592.51 308.254 592.791C308.711 593.072 309.066 593.467 309.319 593.976C309.572 594.484 309.698 595.078 309.698 595.757C309.698 596.433 309.572 597.024 309.319 597.53C309.066 598.036 308.711 598.429 308.254 598.71C307.796 598.991 307.261 599.132 306.647 599.132ZM306.651 598.062C307.049 598.062 307.379 597.957 307.64 597.747C307.901 597.537 308.095 597.257 308.22 596.908C308.347 596.558 308.411 596.173 308.411 595.753C308.411 595.335 308.347 594.952 308.22 594.602C308.095 594.25 307.901 593.967 307.64 593.754C307.379 593.541 307.049 593.435 306.651 593.435C306.251 593.435 305.919 593.541 305.654 593.754C305.393 593.967 305.198 594.25 305.071 594.602C304.946 594.952 304.883 595.335 304.883 595.753C304.883 596.173 304.946 596.558 305.071 596.908C305.198 597.257 305.393 597.537 305.654 597.747C305.919 597.957 306.251 598.062 306.651 598.062ZM312.34 599L310.414 592.455H311.731L313.014 597.261H313.078L314.365 592.455H315.681L316.96 597.24H317.024L318.298 592.455H319.615L317.693 599H316.393L315.063 594.274H314.965L313.636 599H312.34ZM323.446 599.132C322.801 599.132 322.245 598.994 321.779 598.719C321.316 598.44 320.958 598.05 320.705 597.547C320.455 597.041 320.33 596.449 320.33 595.77C320.33 595.099 320.455 594.509 320.705 593.997C320.958 593.486 321.311 593.087 321.762 592.8C322.217 592.513 322.748 592.369 323.356 592.369C323.725 592.369 324.083 592.43 324.43 592.553C324.776 592.675 325.088 592.866 325.363 593.128C325.639 593.389 325.856 593.729 326.015 594.146C326.174 594.561 326.254 595.065 326.254 595.659V596.111H321.051V595.156H325.005C325.005 594.821 324.937 594.524 324.801 594.266C324.664 594.004 324.472 593.798 324.225 593.648C323.981 593.497 323.694 593.422 323.365 593.422C323.007 593.422 322.694 593.51 322.427 593.686C322.163 593.859 321.958 594.087 321.813 594.368C321.671 594.646 321.6 594.949 321.6 595.276V596.021C321.6 596.459 321.677 596.831 321.83 597.138C321.987 597.445 322.204 597.679 322.482 597.841C322.761 598 323.086 598.08 323.458 598.08C323.7 598.08 323.92 598.045 324.119 597.977C324.318 597.906 324.49 597.801 324.634 597.662C324.779 597.523 324.89 597.351 324.967 597.146L326.173 597.364C326.076 597.719 325.903 598.03 325.653 598.297C325.406 598.561 325.095 598.767 324.72 598.915C324.347 599.06 323.923 599.132 323.446 599.132ZM327.667 599V592.455H328.899V593.494H328.967C329.086 593.142 329.297 592.865 329.598 592.663C329.902 592.459 330.246 592.357 330.629 592.357C330.709 592.357 330.802 592.359 330.91 592.365C331.021 592.371 331.108 592.378 331.17 592.386V593.605C331.119 593.591 331.028 593.575 330.898 593.558C330.767 593.538 330.636 593.528 330.506 593.528C330.204 593.528 329.936 593.592 329.7 593.72C329.467 593.845 329.283 594.02 329.146 594.244C329.01 594.466 328.942 594.719 328.942 595.003V599H327.667ZM335.551 599V590.273H338.662C339.341 590.273 339.903 590.396 340.349 590.643C340.795 590.891 341.129 591.229 341.351 591.658C341.572 592.084 341.683 592.564 341.683 593.098C341.683 593.635 341.571 594.118 341.346 594.547C341.125 594.973 340.79 595.311 340.341 595.561C339.895 595.808 339.334 595.932 338.658 595.932H336.518V594.815H338.538C338.967 594.815 339.315 594.741 339.582 594.594C339.849 594.443 340.045 594.239 340.17 593.98C340.295 593.722 340.358 593.428 340.358 593.098C340.358 592.768 340.295 592.476 340.17 592.22C340.045 591.964 339.848 591.764 339.578 591.619C339.311 591.474 338.959 591.402 338.521 591.402H336.868V599H335.551ZM343.124 599V592.455H344.356V593.494H344.424C344.544 593.142 344.754 592.865 345.055 592.663C345.359 592.459 345.703 592.357 346.086 592.357C346.166 592.357 346.259 592.359 346.367 592.365C346.478 592.371 346.565 592.378 346.627 592.386V593.605C346.576 593.591 346.485 593.575 346.355 593.558C346.224 593.538 346.093 593.528 345.963 593.528C345.661 593.528 345.393 593.592 345.157 593.72C344.924 593.845 344.74 594.02 344.603 594.244C344.467 594.466 344.399 594.719 344.399 595.003V599H343.124ZM347.73 599V592.455H349.004V599H347.73ZM348.373 591.445C348.152 591.445 347.961 591.371 347.802 591.223C347.646 591.072 347.568 590.893 347.568 590.686C347.568 590.476 347.646 590.297 347.802 590.149C347.961 589.999 348.152 589.923 348.373 589.923C348.595 589.923 348.784 589.999 348.94 590.149C349.099 590.297 349.179 590.476 349.179 590.686C349.179 590.893 349.099 591.072 348.94 591.223C348.784 591.371 348.595 591.445 348.373 591.445ZM353.475 599.132C352.842 599.132 352.296 598.989 351.839 598.702C351.384 598.412 351.035 598.013 350.791 597.504C350.546 596.996 350.424 596.413 350.424 595.757C350.424 595.092 350.549 594.506 350.799 593.997C351.049 593.486 351.401 593.087 351.856 592.8C352.311 592.513 352.846 592.369 353.463 592.369C353.96 592.369 354.403 592.462 354.792 592.646C355.181 592.828 355.495 593.084 355.734 593.413C355.975 593.743 356.119 594.128 356.164 594.568H354.924C354.856 594.261 354.7 593.997 354.455 593.776C354.214 593.554 353.89 593.443 353.484 593.443C353.129 593.443 352.818 593.537 352.551 593.724C352.286 593.909 352.08 594.173 351.933 594.517C351.785 594.858 351.711 595.261 351.711 595.727C351.711 596.205 351.784 596.616 351.928 596.963C352.073 597.31 352.278 597.578 352.542 597.768C352.809 597.959 353.123 598.054 353.484 598.054C353.725 598.054 353.944 598.01 354.14 597.922C354.339 597.831 354.505 597.702 354.639 597.534C354.775 597.366 354.87 597.165 354.924 596.929H356.164C356.119 597.352 355.981 597.73 355.751 598.062C355.521 598.395 355.213 598.656 354.826 598.847C354.443 599.037 353.992 599.132 353.475 599.132ZM360.348 599.132C359.703 599.132 359.148 598.994 358.682 598.719C358.219 598.44 357.861 598.05 357.608 597.547C357.358 597.041 357.233 596.449 357.233 595.77C357.233 595.099 357.358 594.509 357.608 593.997C357.861 593.486 358.213 593.087 358.665 592.8C359.119 592.513 359.65 592.369 360.258 592.369C360.628 592.369 360.986 592.43 361.332 592.553C361.679 592.675 361.99 592.866 362.265 593.128C362.541 593.389 362.758 593.729 362.917 594.146C363.077 594.561 363.156 595.065 363.156 595.659V596.111H357.953V595.156H361.908C361.908 594.821 361.839 594.524 361.703 594.266C361.567 594.004 361.375 593.798 361.128 593.648C360.883 593.497 360.596 593.422 360.267 593.422C359.909 593.422 359.596 593.51 359.329 593.686C359.065 593.859 358.861 594.087 358.716 594.368C358.574 594.646 358.503 594.949 358.503 595.276V596.021C358.503 596.459 358.579 596.831 358.733 597.138C358.889 597.445 359.106 597.679 359.385 597.841C359.663 598 359.988 598.08 360.361 598.08C360.602 598.08 360.822 598.045 361.021 597.977C361.22 597.906 361.392 597.801 361.537 597.662C361.682 597.523 361.792 597.351 361.869 597.146L363.075 597.364C362.979 597.719 362.805 598.03 362.555 598.297C362.308 598.561 361.997 598.767 361.622 598.915C361.25 599.06 360.825 599.132 360.348 599.132Z" fill="white"/>
<g filter="url(#filter6_d_32_675)">
<rect x="375" y="592" width="6.26009" height="6" rx="3" fill="#07BEB8"/>
</g>
<path d="M393.219 599V590.273H394.536V594.065H398.887V590.273H400.208V599H398.887V595.195H394.536V599H393.219ZM402.023 599V592.455H403.297V599H402.023ZM402.666 591.445C402.445 591.445 402.254 591.371 402.095 591.223C401.939 591.072 401.861 590.893 401.861 590.686C401.861 590.476 401.939 590.297 402.095 590.149C402.254 589.999 402.445 589.923 402.666 589.923C402.888 589.923 403.077 589.999 403.233 590.149C403.392 590.297 403.472 590.476 403.472 590.686C403.472 590.893 403.392 591.072 403.233 591.223C403.077 591.371 402.888 591.445 402.666 591.445ZM407.756 601.591C407.236 601.591 406.788 601.523 406.413 601.386C406.041 601.25 405.737 601.07 405.501 600.845C405.265 600.621 405.089 600.375 404.973 600.108L406.068 599.656C406.145 599.781 406.247 599.913 406.375 600.053C406.506 600.195 406.682 600.315 406.903 600.415C407.128 600.514 407.416 600.564 407.768 600.564C408.251 600.564 408.65 600.446 408.966 600.21C409.281 599.977 409.439 599.605 409.439 599.094V597.807H409.358C409.281 597.946 409.17 598.101 409.025 598.271C408.883 598.442 408.687 598.589 408.437 598.714C408.187 598.839 407.862 598.902 407.461 598.902C406.944 598.902 406.479 598.781 406.064 598.54C405.652 598.295 405.325 597.936 405.084 597.462C404.845 596.984 404.726 596.398 404.726 595.702C404.726 595.006 404.844 594.409 405.079 593.912C405.318 593.415 405.645 593.034 406.059 592.77C406.474 592.503 406.944 592.369 407.47 592.369C407.876 592.369 408.204 592.438 408.454 592.574C408.704 592.707 408.899 592.864 409.038 593.043C409.18 593.222 409.29 593.379 409.366 593.516H409.46V592.455H410.709V599.145C410.709 599.707 410.578 600.169 410.317 600.53C410.055 600.891 409.702 601.158 409.256 601.331C408.812 601.504 408.312 601.591 407.756 601.591ZM407.743 597.845C408.109 597.845 408.419 597.76 408.672 597.589C408.927 597.416 409.121 597.169 409.251 596.848C409.385 596.524 409.452 596.136 409.452 595.685C409.452 595.244 409.386 594.857 409.256 594.521C409.125 594.186 408.933 593.925 408.68 593.737C408.427 593.547 408.115 593.452 407.743 593.452C407.359 593.452 407.04 593.551 406.784 593.75C406.528 593.946 406.335 594.213 406.204 594.551C406.077 594.889 406.013 595.267 406.013 595.685C406.013 596.114 406.078 596.49 406.209 596.814C406.339 597.138 406.533 597.391 406.788 597.572C407.047 597.754 407.365 597.845 407.743 597.845ZM413.692 595.114V599H412.417V590.273H413.675V593.52H413.756C413.909 593.168 414.143 592.888 414.459 592.68C414.774 592.473 415.186 592.369 415.694 592.369C416.143 592.369 416.535 592.462 416.871 592.646C417.209 592.831 417.47 593.107 417.655 593.473C417.842 593.837 417.936 594.291 417.936 594.837V599H416.662V594.99C416.662 594.51 416.538 594.138 416.291 593.874C416.044 593.607 415.7 593.473 415.26 593.473C414.959 593.473 414.689 593.537 414.45 593.665C414.214 593.793 414.028 593.98 413.892 594.227C413.758 594.472 413.692 594.767 413.692 595.114ZM422.457 599.132C421.812 599.132 421.257 598.994 420.791 598.719C420.328 598.44 419.97 598.05 419.717 597.547C419.467 597.041 419.342 596.449 419.342 595.77C419.342 595.099 419.467 594.509 419.717 593.997C419.97 593.486 420.322 593.087 420.774 592.8C421.229 592.513 421.76 592.369 422.368 592.369C422.737 592.369 423.095 592.43 423.442 592.553C423.788 592.675 424.099 592.866 424.375 593.128C424.65 593.389 424.868 593.729 425.027 594.146C425.186 594.561 425.265 595.065 425.265 595.659V596.111H420.062V595.156H424.017C424.017 594.821 423.949 594.524 423.812 594.266C423.676 594.004 423.484 593.798 423.237 593.648C422.993 593.497 422.706 593.422 422.376 593.422C422.018 593.422 421.706 593.51 421.439 593.686C421.175 593.859 420.97 594.087 420.825 594.368C420.683 594.646 420.612 594.949 420.612 595.276V596.021C420.612 596.459 420.689 596.831 420.842 597.138C420.998 597.445 421.216 597.679 421.494 597.841C421.773 598 422.098 598.08 422.47 598.08C422.711 598.08 422.932 598.045 423.131 597.977C423.329 597.906 423.501 597.801 423.646 597.662C423.791 597.523 423.902 597.351 423.979 597.146L425.184 597.364C425.088 597.719 424.915 598.03 424.665 598.297C424.417 598.561 424.106 598.767 423.731 598.915C423.359 599.06 422.934 599.132 422.457 599.132ZM426.679 599V592.455H427.911V593.494H427.979C428.098 593.142 428.308 592.865 428.61 592.663C428.914 592.459 429.257 592.357 429.641 592.357C429.72 592.357 429.814 592.359 429.922 592.365C430.033 592.371 430.12 592.378 430.182 592.386V593.605C430.131 593.591 430.04 593.575 429.909 593.558C429.779 593.538 429.648 593.528 429.517 593.528C429.216 593.528 428.948 593.592 428.712 593.72C428.479 593.845 428.294 594.02 428.158 594.244C428.021 594.466 427.953 594.719 427.953 595.003V599H426.679ZM434.563 599V590.273H437.673C438.352 590.273 438.915 590.396 439.361 590.643C439.807 590.891 440.141 591.229 440.362 591.658C440.584 592.084 440.695 592.564 440.695 593.098C440.695 593.635 440.583 594.118 440.358 594.547C440.137 594.973 439.801 595.311 439.352 595.561C438.906 595.808 438.345 595.932 437.669 595.932H435.53V594.815H437.55C437.979 594.815 438.327 594.741 438.594 594.594C438.861 594.443 439.057 594.239 439.182 593.98C439.307 593.722 439.37 593.428 439.37 593.098C439.37 592.768 439.307 592.476 439.182 592.22C439.057 591.964 438.86 591.764 438.59 591.619C438.323 591.474 437.97 591.402 437.533 591.402H435.879V599H434.563ZM442.136 599V592.455H443.368V593.494H443.436C443.555 593.142 443.765 592.865 444.067 592.663C444.371 592.459 444.714 592.357 445.098 592.357C445.177 592.357 445.271 592.359 445.379 592.365C445.49 592.371 445.577 592.378 445.639 592.386V593.605C445.588 593.591 445.497 593.575 445.366 593.558C445.236 593.538 445.105 593.528 444.974 593.528C444.673 593.528 444.405 593.592 444.169 593.72C443.936 593.845 443.751 594.02 443.615 594.244C443.479 594.466 443.41 594.719 443.41 595.003V599H442.136ZM446.742 599V592.455H448.016V599H446.742ZM447.385 591.445C447.164 591.445 446.973 591.371 446.814 591.223C446.658 591.072 446.58 590.893 446.58 590.686C446.58 590.476 446.658 590.297 446.814 590.149C446.973 589.999 447.164 589.923 447.385 589.923C447.607 589.923 447.796 589.999 447.952 590.149C448.111 590.297 448.191 590.476 448.191 590.686C448.191 590.893 448.111 591.072 447.952 591.223C447.796 591.371 447.607 591.445 447.385 591.445ZM452.487 599.132C451.854 599.132 451.308 598.989 450.851 598.702C450.396 598.412 450.047 598.013 449.802 597.504C449.558 596.996 449.436 596.413 449.436 595.757C449.436 595.092 449.561 594.506 449.811 593.997C450.061 593.486 450.413 593.087 450.868 592.8C451.322 592.513 451.858 592.369 452.474 592.369C452.971 592.369 453.415 592.462 453.804 592.646C454.193 592.828 454.507 593.084 454.746 593.413C454.987 593.743 455.131 594.128 455.176 594.568H453.936C453.868 594.261 453.711 593.997 453.467 593.776C453.226 593.554 452.902 593.443 452.496 593.443C452.14 593.443 451.829 593.537 451.562 593.724C451.298 593.909 451.092 594.173 450.944 594.517C450.797 594.858 450.723 595.261 450.723 595.727C450.723 596.205 450.795 596.616 450.94 596.963C451.085 597.31 451.29 597.578 451.554 597.768C451.821 597.959 452.135 598.054 452.496 598.054C452.737 598.054 452.956 598.01 453.152 597.922C453.351 597.831 453.517 597.702 453.65 597.534C453.787 597.366 453.882 597.165 453.936 596.929H455.176C455.131 597.352 454.993 597.73 454.763 598.062C454.533 598.395 454.224 598.656 453.838 598.847C453.454 599.037 453.004 599.132 452.487 599.132ZM459.36 599.132C458.715 599.132 458.159 598.994 457.693 598.719C457.23 598.44 456.872 598.05 456.62 597.547C456.37 597.041 456.245 596.449 456.245 595.77C456.245 595.099 456.37 594.509 456.62 593.997C456.872 593.486 457.225 593.087 457.676 592.8C458.131 592.513 458.662 592.369 459.27 592.369C459.639 592.369 459.997 592.43 460.344 592.553C460.691 592.675 461.002 592.866 461.277 593.128C461.553 593.389 461.77 593.729 461.929 594.146C462.088 594.561 462.168 595.065 462.168 595.659V596.111H456.965V595.156H460.919C460.919 594.821 460.851 594.524 460.715 594.266C460.578 594.004 460.387 593.798 460.139 593.648C459.895 593.497 459.608 593.422 459.279 593.422C458.921 593.422 458.608 593.51 458.341 593.686C458.077 593.859 457.872 594.087 457.727 594.368C457.585 594.646 457.514 594.949 457.514 595.276V596.021C457.514 596.459 457.591 596.831 457.745 597.138C457.901 597.445 458.118 597.679 458.396 597.841C458.675 598 459 598.08 459.372 598.08C459.614 598.08 459.834 598.045 460.033 597.977C460.232 597.906 460.404 597.801 460.548 597.662C460.693 597.523 460.804 597.351 460.881 597.146L462.087 597.364C461.99 597.719 461.817 598.03 461.567 598.297C461.32 598.561 461.009 598.767 460.634 598.915C460.262 599.06 459.837 599.132 459.36 599.132Z" fill="white"/>
<path opacity="0.39" d="M90.5 595.5V36.5C90.5 25.4543 99.4543 16.5 110.5 16.5H1091.5C1102.55 16.5 1111.5 25.4543 1111.5 36.5V595.5C1111.5 606.546 1102.55 615.5 1091.5 615.5H110.5C99.4543 615.5 90.5 606.546 90.5 595.5Z" stroke="white" stroke-width="2"/>
<g filter="url(#filter7_d_32_675)">
<path fill-rule="evenodd" clip-rule="evenodd" d="M192.865 81C192.865 86.108 197.178 90.25 202.5 90.25C207.821 90.25 212.136 86.108 212.136 81C212.136 75.892 207.821 71.75 202.5 71.75C197.178 71.75 192.865 75.892 192.865 81Z" stroke="white" stroke-width="1.5" stroke-linecap="round" stroke-linejoin="round"/>
<path d="M198.884 79.5576L202.5 83.0436L206.116 79.5576" stroke="white" stroke-width="1.5" stroke-linecap="round" stroke-linejoin="round"/>
</g>
<defs>
<filter id="filter0_d_32_675" x="0.5" y="174.5" width="1206" height="498.952" filterUnits="userSpaceOnUse" color-interpolation-filters="sRGB">
<feFlood flood-opacity="0" result="BackgroundImageFix"/>
<feColorMatrix in="SourceAlpha" type="matrix" values="0 0 0 0 0 0 0 0 0 0 0 0 0 0 0 0 0 0 127 0" result="hardAlpha"/>
<feOffset dx="3" dy="36"/>
<feGaussianBlur stdDeviation="46"/>
<feComposite in2="hardAlpha" operator="out"/>
<feColorMatrix type="matrix" values="0 0 0 0 0.196078 0 0 0 0 0.666667 0 0 0 0 0.470588 0 0 0 0.5 0"/>
<feBlend mode="normal" in2="BackgroundImageFix" result="effect1_dropShadow_32_675"/>
<feBlend mode="normal" in="SourceGraphic" in2="effect1_dropShadow_32_675" result="shape"/>
</filter>
<filter id="filter1_d_32_675" x="770" y="218" width="23.139" height="21.7344" filterUnits="userSpaceOnUse" color-interpolation-filters="sRGB">
<feFlood flood-opacity="0" result="BackgroundImageFix"/>
<feColorMatrix in="SourceAlpha" type="matrix" values="0 0 0 0 0 0 0 0 0 0 0 0 0 0 0 0 0 0 127 0" result="hardAlpha"/>
<feMorphology radius="3" operator="dilate" in="SourceAlpha" result="effect1_dropShadow_32_675"/>
<feOffset/>
<feGaussianBlur stdDeviation="2"/>
<feComposite in2="hardAlpha" operator="out"/>
<feColorMatrix type="matrix" values="0 0 0 0 0.027451 0 0 0 0 0.745098 0 0 0 0 0.721569 0 0 0 0.73 0"/>
<feBlend mode="normal" in2="BackgroundImageFix" result="effect1_dropShadow_32_675"/>
<feBlend mode="normal" in="SourceGraphic" in2="effect1_dropShadow_32_675" result="shape"/>
</filter>
<filter id="filter2_d_32_675" x="211.95" y="532.66" width="23.139" height="21.7344" filterUnits="userSpaceOnUse" color-interpolation-filters="sRGB">
<feFlood flood-opacity="0" result="BackgroundImageFix"/>
<feColorMatrix in="SourceAlpha" type="matrix" values="0 0 0 0 0 0 0 0 0 0 0 0 0 0 0 0 0 0 127 0" result="hardAlpha"/>
<feMorphology radius="3" operator="dilate" in="SourceAlpha" result="effect1_dropShadow_32_675"/>
<feOffset/>
<feGaussianBlur stdDeviation="2"/>
<feComposite in2="hardAlpha" operator="out"/>
<feColorMatrix type="matrix" values="0 0 0 0 1 0 0 0 0 0 0 0 0 0 0.478431 0 0 0 0.2 0"/>
<feBlend mode="normal" in2="BackgroundImageFix" result="effect1_dropShadow_32_675"/>
<feBlend mode="normal" in="SourceGraphic" in2="effect1_dropShadow_32_675" result="shape"/>
</filter>
<filter id="filter3_d_32_675" x="292" y="41.5" width="32" height="32" filterUnits="userSpaceOnUse" color-interpolation-filters="sRGB">
<feFlood flood-opacity="0" result="BackgroundImageFix"/>
<feColorMatrix in="SourceAlpha" type="matrix" values="0 0 0 0 0 0 0 0 0 0 0 0 0 0 0 0 0 0 127 0" result="hardAlpha"/>
<feOffset dy="0.5"/>
<feGaussianBlur stdDeviation="0.5"/>
<feColorMatrix type="matrix" values="0 0 0 0 0 0 0 0 0 0 0 0 0 0 0 0 0 0 0.199474 0"/>
<feBlend mode="normal" in2="BackgroundImageFix" result="effect1_dropShadow_32_675"/>
<feBlend mode="normal" in="SourceGraphic" in2="effect1_dropShadow_32_675" result="shape"/>
</filter>
<filter id="filter4_d_32_675" x="299.157" y="46.5" width="17.0714" height="21.9492" filterUnits="userSpaceOnUse" color-interpolation-filters="sRGB">
<feFlood flood-opacity="0" result="BackgroundImageFix"/>
<feColorMatrix in="SourceAlpha" type="matrix" values="0 0 0 0 0 0 0 0 0 0 0 0 0 0 0 0 0 0 127 0" result="hardAlpha"/>
<feOffset dy="0.5"/>
<feGaussianBlur stdDeviation="0.5"/>
<feColorMatrix type="matrix" values="0 0 0 0 0 0 0 0 0 0 0 0 0 0 0 0 0 0 0.204257 0"/>
<feBlend mode="normal" in2="BackgroundImageFix" result="effect1_dropShadow_32_675"/>
<feBlend mode="normal" in="SourceGraphic" in2="effect1_dropShadow_32_675" result="shape"/>
</filter>
<filter id="filter5_d_32_675" x="270" y="585" width="20.2601" height="20" filterUnits="userSpaceOnUse" color-interpolation-filters="sRGB">
<feFlood flood-opacity="0" result="BackgroundImageFix"/>
<feColorMatrix in="SourceAlpha" type="matrix" values="0 0 0 0 0 0 0 0 0 0 0 0 0 0 0 0 0 0 127 0" result="hardAlpha"/>
<feMorphology radius="3" operator="dilate" in="SourceAlpha" result="effect1_dropShadow_32_675"/>
<feOffset/>
<feGaussianBlur stdDeviation="2"/>
<feComposite in2="hardAlpha" operator="out"/>
<feColorMatrix type="matrix" values="0 0 0 0 1 0 0 0 0 0 0 0 0 0 0.478431 0 0 0 0.4 0"/>
<feBlend mode="normal" in2="BackgroundImageFix" result="effect1_dropShadow_32_675"/>
<feBlend mode="normal" in="SourceGraphic" in2="effect1_dropShadow_32_675" result="shape"/>
</filter>
<filter id="filter6_d_32_675" x="368" y="585" width="20.2601" height="20" filterUnits="userSpaceOnUse" color-interpolation-filters="sRGB">
<feFlood flood-opacity="0" result="BackgroundImageFix"/>
<feColorMatrix in="SourceAlpha" type="matrix" values="0 0 0 0 0 0 0 0 0 0 0 0 0 0 0 0 0 0 127 0" result="hardAlpha"/>
<feMorphology radius="3" operator="dilate" in="SourceAlpha" result="effect1_dropShadow_32_675"/>
<feOffset/>
<feGaussianBlur stdDeviation="2"/>
<feComposite in2="hardAlpha" operator="out"/>
<feColorMatrix type="matrix" values="0 0 0 0 0.027451 0 0 0 0 0.745098 0 0 0 0 0.721569 0 0 0 0.73 0"/>
<feBlend mode="normal" in2="BackgroundImageFix" result="effect1_dropShadow_32_675"/>
<feBlend mode="normal" in="SourceGraphic" in2="effect1_dropShadow_32_675" result="shape"/>
</filter>
<filter id="filter7_d_32_675" x="144" y="23" width="117" height="116" filterUnits="userSpaceOnUse" color-interpolation-filters="sRGB">
<feFlood flood-opacity="0" result="BackgroundImageFix"/>
<feColorMatrix in="SourceAlpha" type="matrix" values="0 0 0 0 0 0 0 0 0 0 0 0 0 0 0 0 0 0 127 0" result="hardAlpha"/>
<feOffset/>
<feGaussianBlur stdDeviation="23"/>
<feComposite in2="hardAlpha" operator="out"/>
<feColorMatrix type="matrix" values="0 0 0 0 1 0 0 0 0 1 0 0 0 0 1 0 0 0 0.5 0"/>
<feBlend mode="normal" in2="BackgroundImageFix" result="effect1_dropShadow_32_675"/>
<feBlend mode="normal" in="SourceGraphic" in2="effect1_dropShadow_32_675" result="shape"/>
</filter>
<linearGradient id="paint0_linear_32_675" x1="604.5" y1="229.868" x2="644.417" y2="702.607" gradientUnits="userSpaceOnUse">
<stop stop-color="#3A0099"/>
<stop offset="0.519451" stop-opacity="0.05"/>
</linearGradient>
<linearGradient id="paint1_linear_32_675" x1="308" y1="42" x2="308" y2="72" gradientUnits="userSpaceOnUse">
<stop stop-color="white" stop-opacity="0.5"/>
<stop offset="1" stop-opacity="0.5"/>
</linearGradient>
<clipPath id="clip0_32_675">
<rect width="32" height="32" fill="white" transform="translate(292 42)"/>
</clipPath>
</defs>
</svg>
