<svg width="213" height="182" viewBox="0 0 213 182" fill="none" xmlns="http://www.w3.org/2000/svg">
<ellipse cx="69" cy="67.5" rx="69" ry="65.5" fill="#000D37"/>
<path d="M136 67.5C136 102.473 106.102 131 69 131C31.8975 131 2 102.473 2 67.5C2 32.5267 31.8975 4 69 4C106.102 4 136 32.5267 136 67.5Z" stroke="white" stroke-opacity="0.96" stroke-width="4"/>
<path d="M37.1745 104.144C34.9641 104.144 33.0726 103.279 31.4999 101.548C29.9245 99.8138 29.1368 97.7302 29.1368 95.2973V42.2139C29.1368 39.7809 29.9245 37.6989 31.4999 35.9678C33.0726 34.2337 34.9641 33.3667 37.1745 33.3667H101.476C103.687 33.3667 105.58 34.2337 107.155 35.9678C108.728 37.6989 109.514 39.7809 109.514 42.2139V95.2973C109.514 97.7302 108.728 99.8138 107.155 101.548C105.58 103.279 103.687 104.144 101.476 104.144H37.1745ZM69.3255 73.1792L37.1745 51.0611V95.2973H101.476V51.0611L69.3255 73.1792ZM69.3255 64.332L101.476 42.2139H37.1745L69.3255 64.332ZM37.1745 51.0611V42.2139V95.2973V51.0611Z" fill="white"/>
</svg>
