<svg width="138" height="133" viewBox="0 0 138 133" fill="none" xmlns="http://www.w3.org/2000/svg">
<ellipse cx="69" cy="67.5" rx="69" ry="65.5" fill="#000D37"/>
<path d="M136 67.5C136 102.473 106.102 131 69 131C31.8975 131 2 102.473 2 67.5C2 32.5267 31.8975 4 69 4C106.102 4 136 32.5267 136 67.5Z" stroke="white" stroke-opacity="0.96" stroke-width="4"/>
<path d="M42.5 98C40.7125 98 39.1828 97.2296 37.911 95.6887C36.637 94.1452 36 92.2906 36 90.125V42.875C36 40.7094 36.637 38.8561 37.911 37.3152C39.1828 35.7717 40.7125 35 42.5 35H94.5C96.2875 35 97.8183 35.7717 99.0923 37.3152C100.364 38.8561 101 40.7094 101 42.875V90.125C101 92.2906 100.364 94.1452 99.0923 95.6887C97.8183 97.2296 96.2875 98 94.5 98H42.5ZM68.5 70.4375L42.5 50.75V90.125H94.5V50.75L68.5 70.4375ZM68.5 62.5625L94.5 42.875H42.5L68.5 62.5625ZM42.5 50.75V42.875V90.125V50.75Z" fill="white"/>
</svg>
