<svg width="304" height="130" viewBox="0 0 304 130" fill="none" xmlns="http://www.w3.org/2000/svg">
<g clip-path="url(#clip0_12_845)">
<path d="M109.36 15.8815L23.2558 15.8815L13.8382 -7.18181e-08L0 0L63.6171 106L77.4552 106L66.2222 87.3484L70.3439 80.331L63.6171 69.4356L59.3887 76.0836L32.8656 31.7631L41.3223 31.7631L59.3887 62.0488L65.3468 52.0767L57.8512 38.7805L73.2269 38.7805L77.4552 31.7631L85.9119 31.7631L70.1517 57.9861L77.0708 69.4356L99.7845 31.7631L123.39 31.7631L133 15.8815L109.36 15.8815Z" fill="url(#paint0_linear_12_845)"/>
<path d="M109.36 15.8815L23.2558 15.8815L13.8382 -7.18181e-08L0 0L63.6171 106L77.4552 106L66.2222 87.3484L70.3439 80.331L63.6171 69.4356L59.3887 76.0836L32.8656 31.7631L41.3223 31.7631L59.3887 62.0488L65.3468 52.0767L57.8512 38.7805L73.2269 38.7805L77.4552 31.7631L85.9119 31.7631L70.1517 57.9861L77.0708 69.4356L99.7845 31.7631L123.39 31.7631L133 15.8815L109.36 15.8815Z" fill="white"/>
<path d="M1.34538 15.8815L5.7659 15.8815L57.659 102.122L55.3526 105.815L1.34538 15.8815Z" fill="url(#paint1_linear_12_845)"/>
<path d="M1.34538 15.8815L5.7659 15.8815L57.659 102.122L55.3526 105.815L1.34538 15.8815Z" fill="white"/>
<path d="M95.48 53.6L103.896 58.08H107.256V60.864L112.856 58.08V53.6H95.48ZM97.176 55.84V76H112.824V67.04L107.224 69.824V71.52H102.776V58.816L97.176 55.84ZM113.793 53.6L122.209 58.08H125.569V61.952L121.089 63.808V58.816L115.489 55.84V76H121.089V68.544L122.72 67.904L126.241 76H132.289L127.841 65.792L131.169 64.448V53.6H113.793ZM133.668 53.6L140.388 67.04V76H145.988V67.04L139.268 53.6H133.668ZM145.444 53.6L142.948 58.56L145.732 64.16L151.044 53.6H145.444ZM151.98 53.6L160.396 58.08H163.756V62.528L159.276 64.384V58.816L153.676 55.84V76H159.276V69.12L169.356 65.024V53.6H151.98ZM170.293 53.6L173.109 58.08H177.013L182.613 61.056V58.08H186.549L189.333 53.6H170.293ZM177.013 59.424V76H182.613V62.4L177.013 59.424ZM190.293 53.6L198.709 58.08H202.069V70.784L207.669 73.76V53.6H190.293ZM191.989 55.84V76H209.333L200.949 71.52H197.589V58.816L191.989 55.84ZM211.051 53.6V62.56H209.355L217.771 67.04H221.131V76H226.731V67.04H228.395L220.011 62.56H216.651V53.6H211.051ZM221.131 53.6V61.824L226.731 64.8V53.6H221.131ZM211.051 64.8V76H216.651V67.776L211.051 64.8ZM228.355 53.6L236.771 58.08H243.843L245.731 53.6H228.355ZM230.051 55.84V76H245.731L242.915 71.52H235.651V67.04H240.131L241.987 62.56H235.651V58.816L230.051 55.84ZM247.293 53.6L253.469 64.8L247.293 76H252.893L265.213 53.6H259.613L256.253 59.712L252.893 53.6H247.293ZM259.709 65.984L256.893 71.072L259.613 76H265.213L259.709 65.984Z" fill="white"/>
</g>
<defs>
<linearGradient id="paint0_linear_12_845" x1="1.34538" y1="60.8484" x2="109.36" y2="60.8484" gradientUnits="userSpaceOnUse">
<stop stop-color="#000D37"/>
<stop offset="1" stop-color="#8E54E9"/>
</linearGradient>
<linearGradient id="paint1_linear_12_845" x1="1.34538" y1="60.8484" x2="109.36" y2="60.8484" gradientUnits="userSpaceOnUse">
<stop stop-color="#000D37"/>
<stop offset="1" stop-color="#8E54E9"/>
</linearGradient>
<clipPath id="clip0_12_845">
<rect width="304" height="130" fill="white"/>
</clipPath>
</defs>
</svg>
