<svg width="40" height="42" viewBox="0 0 40 42" fill="none" xmlns="http://www.w3.org/2000/svg">
<path d="M40 21C40 32.598 31.0457 42 20 42C8.9543 42 0 32.598 0 21C0 9.40202 8.9543 0 20 0C31.0457 0 40 9.40202 40 21Z" fill="#292929"/>
<path d="M18.0417 27.375H12.2084C10.191 27.375 8.47162 26.7045 7.05023 25.3634C5.62787 24.0232 4.91669 22.4021 4.91669 20.5C4.91669 18.5979 5.62787 16.9763 7.05023 15.6352C8.47162 14.2951 10.191 13.625 12.2084 13.625H18.0417V16.375H12.2084C10.9931 16.375 9.96009 16.776 9.1094 17.5781C8.2587 18.3802 7.83335 19.3542 7.83335 20.5C7.83335 21.6458 8.2587 22.6198 9.1094 23.4219C9.96009 24.224 10.9931 24.625 12.2084 24.625H18.0417V27.375ZM13.6667 21.875V19.125H25.3334V21.875H13.6667ZM34.0834 20.5H31.1667C31.1667 19.3542 30.7413 18.3802 29.8906 17.5781C29.0399 16.776 28.007 16.375 26.7917 16.375H20.9584V13.625H26.7917C28.809 13.625 30.5289 14.2951 31.9513 15.6352C33.3727 16.9763 34.0834 18.5979 34.0834 20.5ZM26.7917 31.5V27.375H22.4167V24.625H26.7917V20.5H29.7084V24.625H34.0834V27.375H29.7084V31.5H26.7917Z" fill="white"/>
</svg>
