<svg width="40" height="42" viewBox="0 0 40 42" fill="none" xmlns="http://www.w3.org/2000/svg">
<path d="M40 21C40 32.598 31.0457 42 20 42C8.9543 42 0 32.598 0 21C0 9.40202 8.9543 0 20 0C31.0457 0 40 9.40202 40 21Z" fill="#292929"/>
<path d="M24.0312 24.25C23.8075 24.25 23.5929 24.3422 23.4346 24.5063C23.2764 24.6704 23.1875 24.8929 23.1875 25.125C23.1875 25.3571 23.2764 25.5796 23.4346 25.7437C23.5929 25.9078 23.8075 26 24.0312 26H27.4062C27.63 26 27.8446 25.9078 28.0029 25.7437C28.1611 25.5796 28.25 25.3571 28.25 25.125C28.25 24.8929 28.1611 24.6704 28.0029 24.5063C27.8446 24.3422 27.63 24.25 27.4062 24.25H24.0312ZM8 16.375C8 15.2147 8.44447 14.1019 9.23564 13.2814C10.0268 12.4609 11.0999 12 12.2188 12H27.4062C28.5251 12 29.5982 12.4609 30.3894 13.2814C31.1805 14.1019 31.625 15.2147 31.625 16.375V25.125C31.625 26.2853 31.1805 27.3981 30.3894 28.2186C29.5982 29.0391 28.5251 29.5 27.4062 29.5H12.2188C11.0999 29.5 10.0268 29.0391 9.23564 28.2186C8.44447 27.3981 8 26.2853 8 25.125V16.375ZM29.9375 17.25V16.375C29.9375 15.6788 29.6708 15.0111 29.1961 14.5188C28.7214 14.0266 28.0776 13.75 27.4062 13.75H12.2188C11.5474 13.75 10.9036 14.0266 10.4289 14.5188C9.95418 15.0111 9.6875 15.6788 9.6875 16.375V17.25H29.9375ZM9.6875 19V25.125C9.6875 25.8212 9.95418 26.4889 10.4289 26.9812C10.9036 27.4734 11.5474 27.75 12.2188 27.75H27.4062C28.0776 27.75 28.7214 27.4734 29.1961 26.9812C29.6708 26.4889 29.9375 25.8212 29.9375 25.125V19H9.6875Z" fill="white"/>
</svg>
