<svg width="40" height="42" viewBox="0 0 40 42" fill="none" xmlns="http://www.w3.org/2000/svg">
<path d="M40 21C40 32.598 31.0457 42 20 42C8.9543 42 0 32.598 0 21C0 9.40202 8.9543 0 20 0C31.0457 0 40 9.40202 40 21Z" fill="#292929"/>
<path d="M28.2933 25.281C28.76 24.1123 29.0133 22.861 29.0133 21.486C29.0133 20.496 28.8667 19.5473 28.6133 18.6673C27.7467 18.8735 26.84 18.9835 25.8933 18.9835C23.9546 18.9857 22.0438 18.5071 20.322 17.5882C18.6002 16.6693 17.1179 15.337 16 13.7035C14.8041 16.6875 12.5482 19.0878 9.69333 20.4135C9.64 20.7573 9.64 21.1285 9.64 21.486C9.64 22.7988 9.89073 24.0986 10.3779 25.3114C10.865 26.5242 11.579 27.6262 12.4791 28.5545C14.297 30.4291 16.7625 31.4823 19.3333 31.4823C20.7333 31.4823 22.08 31.166 23.2933 30.6023C24.0533 32.101 24.4 32.8435 24.3733 32.8435C22.1867 33.5998 20.4933 33.971 19.3333 33.971C16.1067 33.971 13.0267 32.6648 10.76 30.3135C9.38133 28.8962 8.35649 27.1552 7.77333 25.2398H6V18.9835H7.45333C7.89366 16.7732 8.90599 14.7271 10.3829 13.0622C11.8598 11.3974 13.7463 10.1759 15.842 9.52733C17.9378 8.87882 20.1647 8.82748 22.2865 9.37876C24.4083 9.93005 26.3457 11.0634 27.8933 12.6585C29.5736 14.3845 30.7197 16.5857 31.1867 18.9835H32.6667V25.2398H32.5867L27.84 29.736L20.7733 28.911V26.6148H27.2133L28.2933 25.281ZM15.6933 21.1698C16.0933 21.1698 16.48 21.3348 16.76 21.6373C17.0414 21.9298 17.1993 22.3252 17.1993 22.7373C17.1993 23.1494 17.0414 23.5447 16.76 23.8373C16.48 24.126 16.0933 24.291 15.6933 24.291C14.8533 24.291 14.1733 23.6035 14.1733 22.7373C14.1733 21.871 14.8533 21.1698 15.6933 21.1698ZM22.96 21.1698C23.8 21.1698 24.4667 21.871 24.4667 22.7373C24.4667 23.6035 23.8 24.291 22.96 24.291C22.12 24.291 21.44 23.6035 21.44 22.7373C21.44 22.3216 21.6001 21.9229 21.8852 21.6289C22.1703 21.3349 22.5569 21.1698 22.96 21.1698Z" fill="white"/>
</svg>
