<svg width="40" height="42" viewBox="0 0 40 42" fill="none" xmlns="http://www.w3.org/2000/svg">
<path d="M40 21C40 32.598 31.0457 42 20 42C8.9543 42 0 32.598 0 21C0 9.40202 8.9543 0 20 0C31.0457 0 40 9.40202 40 21Z" fill="#292929"/>
<path d="M26.1467 24.5C26.2533 23.5925 26.3333 22.685 26.3333 21.75C26.3333 20.815 26.2533 19.9075 26.1467 19H30.6533C30.8667 19.88 31 20.8013 31 21.75C31 22.6987 30.8667 23.62 30.6533 24.5M23.7867 32.145C24.5867 30.6187 25.2 28.9688 25.6267 27.25H29.56C28.2682 29.5439 26.2188 31.2815 23.7867 32.145M23.4533 24.5H17.2133C17.08 23.5925 17 22.685 17 21.75C17 20.815 17.08 19.8937 17.2133 19H23.4533C23.5733 19.8937 23.6667 20.815 23.6667 21.75C23.6667 22.685 23.5733 23.5925 23.4533 24.5ZM20.3333 32.695C19.2267 31.045 18.3333 29.2162 17.7867 27.25H22.88C22.3333 29.2162 21.44 31.045 20.3333 32.695ZM15 16.25H11.1067C12.3851 13.9499 14.4331 12.2095 16.8667 11.355C16.0667 12.8813 15.4667 14.5312 15 16.25ZM11.1067 27.25H15C15.4667 28.9688 16.0667 30.6187 16.8667 32.145C14.4382 31.281 12.3931 29.5431 11.1067 27.25M10.0133 24.5C9.8 23.62 9.66667 22.6987 9.66667 21.75C9.66667 20.8013 9.8 19.88 10.0133 19H14.52C14.4133 19.9075 14.3333 20.815 14.3333 21.75C14.3333 22.685 14.4133 23.5925 14.52 24.5M20.3333 10.7913C21.44 12.4413 22.3333 14.2838 22.88 16.25H17.7867C18.3333 14.2838 19.2267 12.4413 20.3333 10.7913M29.56 16.25H25.6267C25.2094 14.547 24.5914 12.9031 23.7867 11.355C26.24 12.2213 28.28 13.9675 29.56 16.25ZM20.3333 8C12.96 8 7 14.1875 7 21.75C7 25.3967 8.40476 28.8941 10.9052 31.4727C12.1434 32.7495 13.6132 33.7623 15.2309 34.4533C16.8486 35.1443 18.5824 35.5 20.3333 35.5C23.8696 35.5 27.2609 34.0513 29.7614 31.4727C32.2619 28.8941 33.6667 25.3967 33.6667 21.75C33.6667 19.9443 33.3218 18.1563 32.6517 16.4881C31.9817 14.8199 30.9995 13.3041 29.7614 12.0273C28.5233 10.7505 27.0535 9.73766 25.4358 9.04666C23.8181 8.35565 22.0843 8 20.3333 8V8Z" fill="white"/>
</svg>
