<svg width="40" height="42" viewBox="0 0 40 42" fill="none" xmlns="http://www.w3.org/2000/svg">
<path d="M40 21C40 32.598 31.0457 42 20 42C8.9543 42 0 32.598 0 21C0 9.40202 8.9543 0 20 0C31.0457 0 40 9.40202 40 21Z" fill="#292929"/>
<path d="M19.901 9C18.1133 9 16.5663 9.60303 15.2599 10.8091C13.9535 12.0151 13.3003 13.4434 13.3003 15.0938V18.1406C12.3721 18.1406 11.59 18.4342 10.954 19.0214C10.318 19.6085 10 20.3306 10 21.1875V30.3281C10 31.1851 10.318 31.9071 10.954 32.4943C11.59 33.0814 12.3721 33.375 13.3003 33.375H26.5017C27.4299 33.375 28.212 33.0814 28.848 32.4943C29.484 31.9071 29.802 31.1851 29.802 30.3281V21.1875C29.802 20.3306 29.484 19.6085 28.848 19.0214C28.212 18.4342 27.4299 18.1406 26.5017 18.1406V15.0938C26.5017 13.4434 25.8485 12.0151 24.5421 10.8091C23.2357 9.60303 21.6887 9 19.901 9ZM27.5846 21.1875V30.3281C27.5846 30.9946 27.2236 31.3279 26.5017 31.3279H13.3003C12.5784 31.3279 12.2174 30.9946 12.2174 30.3281V21.1875C12.2174 20.521 12.5784 20.1877 13.3003 20.1877H26.5017C27.2236 20.1877 27.5846 20.521 27.5846 21.1875ZM15.5177 18.1406V15.0938C15.5177 13.9829 15.9475 13.0308 16.8069 12.2373C17.6664 11.4438 18.6978 11.0471 19.901 11.0471C21.1043 11.0471 22.1356 11.4438 22.9951 12.2373C23.8545 13.0308 24.2843 13.9829 24.2843 15.0938V18.1406H15.5177ZM19.901 21.1875C18.9728 21.1875 18.1907 21.4811 17.5547 22.0682C16.9187 22.6554 16.6007 23.3774 16.6007 24.2344C16.6007 24.8691 16.8069 25.4484 17.2195 25.972C17.632 26.4957 18.1649 26.8687 18.8181 27.0908V28.281C18.8181 28.9792 19.1791 29.3284 19.901 29.3284C20.623 29.3284 20.9839 28.9792 20.9839 28.281V27.0908C22.4622 26.6147 23.2013 25.6626 23.2013 24.2344C23.2013 23.3774 22.8833 22.6554 22.2473 22.0682C21.6113 21.4811 20.8292 21.1875 19.901 21.1875ZM19.901 25.2341C19.1791 25.2341 18.8181 24.9009 18.8181 24.2344C18.8181 23.5679 19.1791 23.2346 19.901 23.2346C20.623 23.2346 20.9839 23.5679 20.9839 24.2344C20.9839 24.9009 20.623 25.2341 19.901 25.2341Z" fill="white"/>
</svg>
