<svg width="40" height="42" viewBox="0 0 40 42" fill="none" xmlns="http://www.w3.org/2000/svg">
<path d="M40 21C40 32.598 31.0457 42 20 42C8.9543 42 0 32.598 0 21C0 9.40202 8.9543 0 20 0C31.0457 0 40 9.40202 40 21Z" fill="#292929"/>
<path d="M22.8336 30.8723L30.3803 23.1035L33.2069 26.0185L25.6603 33.7873L22.8336 30.8723ZM27.1003 19.6935L22.9669 15.4585C22.8092 15.2992 22.6295 15.1649 22.4336 15.0598L20.9403 9.16104C20.8445 8.81774 20.623 8.5263 20.3227 8.3483C20.0223 8.1703 19.6667 8.1197 19.3308 8.20718C18.9949 8.29466 18.7052 8.51337 18.5229 8.81709C18.3405 9.12082 18.2798 9.48576 18.3536 9.83479L19.7669 15.431L16.6603 8.77604C16.3536 8.08854 15.5536 7.82729 14.8869 8.11604C14.2203 8.44604 13.9403 9.27104 14.2603 9.95854L16.5136 14.826L12.0203 10.2335C11.5003 9.69729 10.6469 9.69729 10.1269 10.2335C9.60693 10.7835 9.62026 11.6498 10.1403 12.186L15.1003 17.2735L14.1669 17.6448L12.7269 18.236L10.1803 20.051C10.1803 20.051 9.10026 21.4948 9.00693 22.1135C8.90026 22.7323 10.0603 25.8398 10.0603 25.8398H10.0736C10.2869 26.3073 10.7403 26.6373 11.2736 26.6373C11.6272 26.6373 11.9664 26.4924 12.2164 26.2346C12.4665 25.9767 12.6069 25.627 12.6069 25.2623C12.6069 25.1248 12.5669 25.0148 12.5269 24.891L12.5536 24.8773L11.7669 22.4985L13.4069 21.151C14.0336 21.1785 15.3803 21.2885 16.0336 21.3298C19.6736 24.6985 16.2336 26.0185 16.2336 26.0185L11.6203 27.476L11.3936 27.6685C11.2568 27.799 11.1499 27.9592 11.0807 28.1376C11.0115 28.316 10.9818 28.508 10.9936 28.6998L11.0203 30.171L19.5936 29.4835C20.1003 29.4973 20.5803 29.3048 20.9536 28.9335L27.1003 22.6085C27.8069 21.866 27.8336 20.4773 27.1003 19.6935V19.6935Z" fill="white"/>
</svg>
