<svg width="40" height="42" viewBox="0 0 40 42" fill="none" xmlns="http://www.w3.org/2000/svg">
<path d="M40 21C40 32.598 31.0457 42 20 42C8.9543 42 0 32.598 0 21C0 9.40202 8.9543 0 20 0C31.0457 0 40 9.40202 40 21Z" fill="#292929"/>
<path d="M20 16.8751C22.4162 16.8751 24.375 14.9816 24.375 12.6459C24.375 10.3102 22.4162 8.41675 20 8.41675C17.5838 8.41675 15.625 10.3102 15.625 12.6459C15.625 14.9816 17.5838 16.8751 20 16.8751Z" fill="white" stroke="white" stroke-width="4" stroke-linecap="round" stroke-linejoin="round"/>
<path d="M7.5 30.7709C7.5 25.4321 12.5368 21.1042 18.75 21.1042Z" fill="white"/>
<path d="M7.5 30.7709C7.5 25.4321 12.5368 21.1042 18.75 21.1042" stroke="black" stroke-linecap="round" stroke-linejoin="round"/>
<path d="M30.625 24.7292H21.875V30.7709H30.625V24.7292Z" fill="white" stroke="white" stroke-width="4" stroke-linecap="round" stroke-linejoin="round"/>
<path d="M28.125 24.7292V22.9167C28.125 21.9157 27.2856 21.1042 26.25 21.1042C25.2144 21.1042 24.375 21.9157 24.375 22.9167V24.7292" fill="white"/>
<path d="M28.125 24.7292V22.9167C28.125 21.9157 27.2856 21.1042 26.25 21.1042C25.2144 21.1042 24.375 21.9157 24.375 22.9167V24.7292" stroke="white" stroke-width="4" stroke-linecap="round" stroke-linejoin="round"/>
</svg>
