<svg width="40" height="42" viewBox="0 0 40 42" fill="none" xmlns="http://www.w3.org/2000/svg">
<path d="M40 21C40 32.598 31.0457 42 20 42C8.9543 42 0 32.598 0 21C0 9.40202 8.9543 0 20 0C31.0457 0 40 9.40202 40 21Z" fill="#292929"/>
<path d="M20.495 14.7125C22.4975 14.7125 23.24 15.7396 23.3075 17.25H25.7937C25.715 15.1717 24.5337 13.2625 22.1825 12.6463V10H18.8075V12.61C18.2112 12.755 17.6487 12.9725 17.1425 13.2625L18.7962 15.0388C19.2575 14.8333 19.82 14.7125 20.495 14.7125ZM12.4287 11.2808L11 12.8154L14.87 16.9721C14.87 19.4854 16.625 20.8508 19.2687 21.6967L23.2175 25.9379C22.835 26.5179 22.0362 27.0375 20.495 27.0375C18.1775 27.0375 17.2662 25.9258 17.1425 24.5H14.6675C14.8025 27.1463 16.6475 28.6325 18.8075 29.1279V31.75H22.1825V29.1521C23.2625 28.9346 24.23 28.4875 24.9387 27.7988L27.4362 30.4813L28.865 28.9467L12.4287 11.2808Z" fill="white"/>
</svg>
