<svg width="142" height="127" viewBox="0 0 142 127" fill="none" xmlns="http://www.w3.org/2000/svg">
<path d="M140 64.5C140 97.7316 110.194 125 73 125C35.8061 125 6 97.7316 6 64.5C6 31.2684 35.8061 4 73 4C110.194 4 140 31.2684 140 64.5Z" fill="#000D37" stroke="#1400FF" stroke-width="4"/>
<path d="M96.7368 56.4545H104.842V48.4091H117V43.0455H104.842V35H96.7368V43.0455H84.5789V48.4091H96.7368V56.4545ZM72.4211 67.1818C74.65 67.1818 76.5588 66.6562 78.1474 65.6049C79.7333 64.5554 80.5263 63.2932 80.5263 61.8182C80.5263 60.3432 79.7333 59.08 78.1474 58.0288C76.5588 56.9793 74.65 56.4545 72.4211 56.4545C70.1921 56.4545 68.2847 56.9793 66.6987 58.0288C65.1101 59.08 64.3158 60.3432 64.3158 61.8182C64.3158 63.2932 65.1101 64.5554 66.6987 65.6049C68.2847 66.6562 70.1921 67.1818 72.4211 67.1818ZM72.4211 94C61.5465 87.8765 53.425 82.1884 48.0566 76.9356C42.6855 71.6846 40 66.8242 40 62.3545C40 55.65 43.2597 50.3087 49.779 46.3307C56.2956 42.3527 63.843 40.3636 72.4211 40.3636C73.0965 40.3636 73.7719 40.3744 74.4474 40.3958C75.1228 40.4191 75.7982 40.453 76.4737 40.4977V45.9284C75.7982 45.839 75.139 45.7827 74.496 45.7595C73.8557 45.738 73.164 45.7273 72.4211 45.7273C65.5991 45.7273 59.8403 47.28 55.1447 50.3856C50.4517 53.4929 48.1053 57.4826 48.1053 62.3545C48.1053 65.528 50.0978 69.1592 54.0829 73.2481C58.068 77.3388 64.1807 81.8871 72.4211 86.8932C80.6614 81.8871 86.7741 77.3388 90.7592 73.2481C94.7443 69.1592 96.7368 65.528 96.7368 62.3545V61.8182H104.842V62.3545C104.842 66.8242 102.158 71.6846 96.7895 76.9356C91.4184 82.1884 83.2956 87.8765 72.4211 94Z" fill="#0075FF"/>
</svg>
