<svg width="336" height="216" viewBox="0 0 336 216" fill="none" xmlns="http://www.w3.org/2000/svg">
<g clip-path="url(#clip0_52_51)">
<path d="M202.275 29.8153L43.0145 29.8153L25.5954 -1.32836e-07L0 0L117.668 199L143.263 199L122.486 163.984L130.11 150.81L117.668 130.355L109.847 142.836L60.789 59.6307L76.4306 59.6307L109.847 116.488L120.867 97.7665L107.003 72.8049L135.442 72.8049L143.263 59.6307L158.905 59.6307L129.754 108.861L142.552 130.355L184.564 59.6307L228.225 59.6307L246 29.8153L202.275 29.8153Z" fill="url(#paint0_linear_52_51)"/>
<path d="M202.275 29.8153L43.0145 29.8153L25.5954 -1.32836e-07L0 0L117.668 199L143.263 199L122.486 163.984L130.11 150.81L117.668 130.355L109.847 142.836L60.789 59.6307L76.4306 59.6307L109.847 116.488L120.867 97.7665L107.003 72.8049L135.442 72.8049L143.263 59.6307L158.905 59.6307L129.754 108.861L142.552 130.355L184.564 59.6307L228.225 59.6307L246 29.8153L202.275 29.8153Z" fill="white"/>
<path d="M2.48844 29.8153L10.6647 29.8153L106.647 191.719L102.382 198.653L2.48844 29.8153Z" fill="url(#paint1_linear_52_51)"/>
<path d="M2.48844 29.8153L10.6647 29.8153L106.647 191.719L102.382 198.653L2.48844 29.8153Z" fill="white"/>
<path d="M160.495 131.9L169.174 136.52H172.639V139.391L178.414 136.52V131.9H160.495ZM162.244 134.21V155H178.381V145.76L172.606 148.631V150.38H168.019V137.279L162.244 134.21ZM179.38 131.9L188.059 136.52H191.524V140.513L186.904 142.427V137.279L181.129 134.21V155H186.904V147.311L188.587 146.651L192.217 155H198.454L193.867 144.473L197.299 143.087V131.9H179.38ZM199.876 131.9L206.806 145.76V155H212.581V145.76L205.651 131.9H199.876ZM212.02 131.9L209.446 137.015L212.317 142.79L217.795 131.9H212.02ZM218.761 131.9L227.44 136.52H230.905V141.107L226.285 143.021V137.279L220.51 134.21V155H226.285V147.905L236.68 143.681V131.9H218.761ZM237.645 131.9L240.549 136.52H244.575L250.35 139.589V136.52H254.409L257.28 131.9H237.645ZM244.575 137.906V155H250.35V140.975L244.575 137.906ZM258.27 131.9L266.949 136.52H270.414V149.621L276.189 152.69V131.9H258.27ZM260.019 134.21V155H277.905L269.259 150.38H265.794V137.279L260.019 134.21ZM279.678 131.9V141.14H277.929L286.608 145.76H290.073V155H295.848V145.76H297.564L288.918 141.14H285.453V131.9H279.678ZM290.073 131.9V140.381L295.848 143.45V131.9H290.073ZM279.678 143.45V155H285.453V146.519L279.678 143.45ZM297.522 131.9L306.201 136.52H313.494L315.441 131.9H297.522ZM299.271 134.21V155H315.441L312.537 150.38H305.046V145.76H309.666L311.58 141.14H305.046V137.279L299.271 134.21ZM317.052 131.9L323.421 143.45L317.052 155H322.827L335.532 131.9H329.757L326.292 138.203L322.827 131.9H317.052ZM329.856 144.671L326.952 149.918L329.757 155H335.532L329.856 144.671Z" fill="white"/>
</g>
<defs>
<linearGradient id="paint0_linear_52_51" x1="2.48844" y1="114.234" x2="202.275" y2="114.234" gradientUnits="userSpaceOnUse">
<stop/>
<stop offset="1" stop-color="#8E54E9"/>
</linearGradient>
<linearGradient id="paint1_linear_52_51" x1="2.48844" y1="114.234" x2="202.275" y2="114.234" gradientUnits="userSpaceOnUse">
<stop/>
<stop offset="1" stop-color="#8E54E9"/>
</linearGradient>
<clipPath id="clip0_52_51">
<rect width="336" height="216" fill="white"/>
</clipPath>
</defs>
</svg>
