<svg width="319" height="77" viewBox="0 0 319 77" fill="none" xmlns="http://www.w3.org/2000/svg">
<g clip-path="url(#clip0_50_46)">
<path d="M-nan -nanL49.6 22.4262C49.0254 22.6783 48.4371 22.9042 47.8365 23.1028C46.9386 23.3998 46.2871 21.9954 46.8421 21.2295C46.999 21.013 47.1473 20.7901 47.2866 20.5611C47.7043 19.8743 46.934 19.1998 46.1992 19.5256C44.9607 20.0746 43.6563 20.505 42.3008 20.802C42.0086 20.866 41.7078 20.7658 41.4918 20.5589C39.6761 18.8204 37.1918 17.75 34.4628 17.75C28.3464 17.75 23.7522 23.0412 24.4275 28.8468C24.4948 29.4253 24.0478 29.9638 23.4677 29.9119C15.9986 29.2439 9.35574 25.7504 4.64062 20.5195C4.23433 20.0688 3.5006 20.1297 3.26047 20.6869C1.80631 24.0617 2.36224 27.9755 4.66646 30.8224C5.22142 31.5081 4.75467 32.6184 3.92165 32.3282C3.84239 32.3006 3.76359 32.272 3.68527 32.2425C3.0711 32.0113 2.36979 32.4271 2.455 33.0778C2.84953 36.0905 4.68881 38.829 7.39395 40.389C8.09928 40.7957 8.05734 41.9235 7.24445 41.8775V41.8775C6.66117 41.8445 6.14306 42.3916 6.39479 42.9188C7.64377 45.5346 10.0123 47.5267 12.8903 48.2952C13.6883 48.5083 14.0027 49.6141 13.2931 50.0367C10.5327 51.681 7.43027 52.643 4.22881 52.8623C3.30052 52.9258 2.92119 54.2125 3.76615 54.6021C7.4452 56.2985 11.5465 57.25 15.8734 57.25C34.4032 57.25 44.963 41.9639 44.5805 28.0635C44.5724 27.7668 44.7099 27.4855 44.9474 27.3075C46.758 25.9499 48.3357 24.2942 49.6 22.4262L-nan -nanL-nan -nanZ" stroke="url(#paint0_linear_50_46)" stroke-width="2.625" stroke-linecap="round" stroke-linejoin="round"/>
<path d="M15.8734 57.25C12.3627 57.25 9.0006 56.6236 5.89202 55.4812C4.28888 54.8921 3.48731 54.5975 3.33486 54.2702C3.19892 53.9783 3.2259 53.6654 3.4098 53.4011C3.61602 53.1046 4.58101 52.9289 6.51099 52.5773C8.41152 52.2312 10.2544 51.6182 11.9858 50.7519C13.001 50.2439 13.5085 49.99 13.6366 49.7077C13.7579 49.4405 13.7512 49.2008 13.6153 48.9407C13.4717 48.6661 12.8091 48.3795 11.4838 47.8062C9.24701 46.8387 7.43363 45.0945 6.39479 42.9188C6.14306 42.3916 6.66117 41.8445 7.24445 41.8775V41.8775C8.05734 41.9235 8.09928 40.7957 7.39395 40.389C4.71255 38.8427 2.88188 36.1385 2.46572 33.157C2.46429 33.1468 2.46357 33.1416 2.46153 33.1166C2.41168 32.5054 3.0042 32.0291 3.59043 32.209C3.61441 32.2164 3.65346 32.2309 3.73155 32.2598V32.2598C3.75159 32.2673 3.76162 32.271 3.79182 32.2798C4.57714 32.5084 5.21879 31.631 4.76288 30.952C4.74535 30.9258 4.68347 30.8466 4.55972 30.6882C2.4989 28.0498 1.9088 24.5372 2.99072 21.385C3.17368 20.8519 3.26517 20.5854 3.4907 20.4227C3.6745 20.2902 3.95039 20.2301 4.17267 20.2741C4.44543 20.3282 4.67999 20.5752 5.14912 21.069C9.67673 25.8356 15.85 29.0548 22.7732 29.8414C23.3695 29.9091 23.6676 29.943 23.881 29.8514C24.0818 29.7652 24.2147 29.6411 24.3144 29.4466C24.4203 29.2401 24.404 28.8769 24.3714 28.1507C24.1234 22.6251 28.5918 17.75 34.4628 17.75C37.0875 17.75 39.486 18.7402 41.2808 20.3627C41.5157 20.575 41.6331 20.6811 41.7482 20.7361C41.8542 20.7867 41.9558 20.8129 42.0731 20.8199C42.2004 20.8275 42.3275 20.7978 42.5818 20.7383C43.7417 20.467 44.8632 20.0977 45.9365 19.6398C46.0201 19.6041 46.0619 19.5863 46.1296 19.5695C46.7899 19.405 47.4165 20.1499 47.1414 20.7723C47.1132 20.836 47.1482 20.7821 47.1342 20.8037C46.921 21.1326 46.6886 21.4482 46.4388 21.7492C45.9308 22.3612 46.473 23.5174 47.2356 23.2912V23.2912C47.943 23.0815 48.5302 23.8862 48.0435 24.4407C47.0106 25.6173 45.8416 26.6761 44.5632 27.5885" stroke="#00D8FF" stroke-width="2.625" stroke-linecap="round"/>
<g clip-path="url(#clip1_50_46)">
<path d="M236 36.4C236 28.5593 236 24.6389 237.526 21.6441C238.868 19.0099 241.01 16.8681 243.644 15.5259C246.639 14 250.559 14 258.4 14H272.6C280.441 14 284.361 14 287.356 15.5259C289.99 16.8681 292.132 19.0099 293.474 21.6441C295 24.6389 295 28.5593 295 36.4V43.6C295 51.4407 295 55.3611 293.474 58.3559C292.132 60.9901 289.99 63.1319 287.356 64.4741C284.361 66 280.441 66 272.6 66H258.4C250.559 66 246.639 66 243.644 64.4741C241.01 63.1319 238.868 60.9901 237.526 58.3559C236 55.3611 236 51.4407 236 43.6V36.4Z" stroke="#00D8FF" stroke-width="2.625"/>
<path d="M244 21L261.393 42.8424C263.495 45.4819 267.505 45.4819 269.607 42.8424L287 21" stroke="url(#paint1_linear_50_46)" stroke-width="2.625" stroke-linecap="round" stroke-linejoin="round"/>
<path d="M277 41C277 41 279.857 52.25 287 56" stroke="url(#paint2_linear_50_46)" stroke-width="2.625" stroke-linecap="round" stroke-linejoin="round"/>
<path d="M254 40C254 40 251.143 51.25 244 55" stroke="url(#paint3_linear_50_46)" stroke-width="2.625" stroke-linecap="round" stroke-linejoin="round"/>
</g>
<g clip-path="url(#clip2_50_46)">
<path d="M78 37.4C78 29.5593 78 25.6389 79.5259 22.6441C80.8681 20.0099 83.0099 17.8681 85.6441 16.5259C88.6389 15 92.5593 15 100.4 15H109.6C117.441 15 121.361 15 124.356 16.5259C126.99 17.8681 129.132 20.0099 130.474 22.6441C132 25.6389 132 29.5593 132 37.4V42.6C132 50.4407 132 54.3611 130.474 57.3559C129.132 59.9901 126.99 62.1319 124.356 63.4741C121.361 65 117.441 65 109.6 65H100.4C92.5593 65 88.6389 65 85.6441 63.4741C83.0099 62.1319 80.8681 59.9901 79.5259 57.3559C78 54.3611 78 50.4407 78 42.6V37.4Z" stroke="#00D8FF" stroke-width="2.625"/>
<path d="M115.188 38.25C115.188 37.5251 115.775 36.9375 116.5 36.9375C117.225 36.9375 117.813 37.5251 117.813 38.25L115.188 38.25ZM105.25 48.1875C110.738 48.1875 115.188 43.7383 115.188 38.25L117.813 38.25C117.813 45.1881 112.188 50.8125 105.25 50.8125L105.25 48.1875ZM95.3125 38.25C95.3125 43.7383 99.7617 48.1875 105.25 48.1875L105.25 50.8125C98.3119 50.8125 92.6875 45.1881 92.6875 38.25L95.3125 38.25Z" fill="#00D8FF"/>
<path d="M105.25 49.5C111.463 49.5 116.5 44.4632 116.5 38.25C116.5 35.9035 115.782 33.7248 114.553 31.9219C112.528 28.9508 109.117 27 105.25 27C99.0368 27 94 32.0368 94 38.25" stroke="url(#paint4_linear_50_46)" stroke-width="2.625" stroke-linecap="round" stroke-linejoin="round"/>
<circle cx="120.5" cy="23.5" r="3.5" stroke="#00D8FF" stroke-width="2.625"/>
</g>
<path d="M191.381 20.8026V22.1151H191.382L191.381 20.8026ZM186.123 66.3125C186.848 66.3125 187.435 65.7249 187.435 65C187.435 64.2751 186.848 63.6875 186.123 63.6875V66.3125ZM196.809 19.845L195.64 19.2493L196.809 19.845ZM196.045 20.6098L195.449 19.4405L196.045 20.6098ZM196.11 12.4463L195.465 13.5895V13.5895L196.11 12.4463ZM196.823 13.2045L195.643 13.7791L196.823 13.2045ZM174.208 31.2118L173.612 30.0424L174.208 31.2118ZM174.973 30.447L173.803 29.8512L174.973 30.447ZM187.078 41.0175L186.482 39.8481L187.078 41.0175ZM186.313 41.7823L185.144 41.1865L186.313 41.7823ZM166.191 32.3581L167.36 32.9539L166.191 32.3581ZM166.956 31.5933L167.551 32.7627L166.956 31.5933ZM195.611 38.4292L196.91 38.6178L195.611 38.4292ZM195.22 40.0244L196.323 40.735L195.22 40.0244ZM194.475 40.669L193.93 39.4748L194.475 40.669ZM166.956 40.6335L166.36 41.8029L166.956 40.6335ZM166.191 39.8687L165.021 40.4645L166.191 39.8687ZM195.47 31.6317L196.115 30.4891L195.47 31.6317ZM196.166 34.6075L194.867 34.4189L196.166 34.6075ZM196.24 32.5218L195.016 32.9968L196.24 32.5218ZM174.973 41.7797L173.803 42.3756L174.973 41.7797ZM174.208 41.0149L174.804 39.8455L174.208 41.0149ZM186.313 30.4496L185.144 31.0455L186.313 30.4496ZM187.078 31.2144L186.482 32.3839L187.078 31.2144ZM175.354 64.0445L174.185 64.6403L175.354 64.0445ZM176.119 64.8093L175.523 65.9787L176.119 64.8093ZM176.476 62.2V43.6242H173.851V62.2H176.476ZM172.363 39.5117H168.8V42.1367H172.363V39.5117ZM167.312 38.0242V34.2026H164.688V38.0242H167.312ZM168.8 32.7151H172.363V30.0901H168.8V32.7151ZM176.476 28.6026V24.4547H173.851V28.6026H176.476ZM176.476 24.4547C176.476 20.7429 177.74 18.0107 179.815 16.1899C181.913 14.3485 184.986 13.3125 188.812 13.3125V10.6875C184.535 10.6875 180.784 11.8469 178.083 14.2169C175.36 16.6075 173.851 20.1026 173.851 24.4547H176.476ZM188.812 13.3125C190.964 13.3125 192.947 13.3928 194.439 13.4832L194.598 10.863C193.062 10.77 191.026 10.6875 188.812 10.6875V13.3125ZM195.688 14.8618V18.0012H198.312V14.8618H195.688ZM194.201 19.4887L191.381 19.4901L191.382 22.1151L194.202 22.1137L194.201 19.4887ZM191.381 19.4901C189.043 19.4901 187.28 19.9756 186.147 21.1702C185.022 22.3576 184.81 23.9458 184.81 25.3885H187.435C187.435 24.1051 187.65 23.4004 188.052 22.9763C188.447 22.5594 189.314 22.1151 191.381 22.1151V19.4901ZM184.81 25.3885V28.6052H187.435V25.3885H184.81ZM188.923 32.7177H193.395V30.0927H188.923V32.7177ZM194.867 34.4189L194.312 38.2405L196.91 38.6178L197.465 34.7961L194.867 34.4189ZM192.84 39.5143H188.923V42.1393H192.84V39.5143ZM186.123 63.6875H177.963V66.3125H186.123V63.6875ZM184.81 43.6268V44.3889H187.435V43.6268H184.81ZM195.688 18.0012C195.688 18.5127 195.686 18.8174 195.668 19.0433C195.651 19.2539 195.625 19.278 195.64 19.2493L197.979 20.4407C198.184 20.0378 198.254 19.6299 198.284 19.257C198.314 18.8995 198.312 18.4694 198.312 18.0012H195.688ZM194.202 22.1137C194.67 22.1135 195.1 22.1144 195.458 22.085C195.831 22.0543 196.238 21.9844 196.641 21.779L195.449 19.4405C195.477 19.4259 195.453 19.4515 195.243 19.4688C195.017 19.4873 194.712 19.4885 194.201 19.4887L194.202 22.1137ZM195.64 19.2493C195.598 19.3316 195.531 19.3986 195.449 19.4405L196.641 21.779C197.217 21.4853 197.685 21.0168 197.979 20.4407L195.64 19.2493ZM194.439 13.4832C194.875 13.5096 195.118 13.5255 195.299 13.5524C195.38 13.5643 195.423 13.5753 195.444 13.5819C195.454 13.585 195.46 13.5872 195.462 13.588C195.464 13.5887 195.464 13.5891 195.465 13.5895L196.755 11.3031C196.078 10.9217 195.299 10.9054 194.598 10.863L194.439 13.4832ZM198.312 14.8618C198.312 14.4521 198.314 14.064 198.286 13.7349C198.256 13.3834 198.188 13.0093 198.003 12.6299L195.643 13.7791C195.635 13.7624 195.656 13.7854 195.67 13.9561C195.686 14.1492 195.688 14.4085 195.688 14.8618H198.312ZM195.465 13.5895C195.53 13.6265 195.61 13.7114 195.643 13.7791L198.003 12.6299C197.737 12.0834 197.284 11.6018 196.755 11.3031L195.465 13.5895ZM172.363 32.7151C172.832 32.7151 173.262 32.7161 173.62 32.6868C173.993 32.6564 174.401 32.5866 174.804 32.3813L173.612 30.0424C173.641 30.0277 173.617 30.0534 173.406 30.0706C173.18 30.089 172.875 30.0901 172.363 30.0901V32.7151ZM173.851 28.6026C173.851 29.1143 173.85 29.4191 173.832 29.6451C173.814 29.8557 173.789 29.8799 173.803 29.8512L176.142 31.0429C176.348 30.6399 176.417 30.2318 176.448 29.8588C176.477 29.5012 176.476 29.0709 176.476 28.6026H173.851ZM174.804 32.3813C175.38 32.0876 175.849 31.6191 176.142 31.0429L173.803 29.8512C173.761 29.9335 173.694 30.0004 173.612 30.0424L174.804 32.3813ZM188.923 39.5143C188.454 39.5143 188.024 39.5133 187.666 39.5425C187.293 39.573 186.885 39.6427 186.482 39.8481L187.674 42.187C187.645 42.2016 187.67 42.176 187.88 42.1588C188.106 42.1403 188.411 42.1393 188.923 42.1393V39.5143ZM187.435 43.6268C187.435 43.1151 187.436 42.8103 187.455 42.5843C187.472 42.3736 187.498 42.3495 187.483 42.3782L185.144 41.1865C184.939 41.5895 184.869 41.9975 184.838 42.3705C184.809 42.7282 184.81 43.1584 184.81 43.6268H187.435ZM186.482 39.8481C185.906 40.1417 185.438 40.6102 185.144 41.1865L187.483 42.3782C187.525 42.2959 187.592 42.2289 187.674 42.187L186.482 39.8481ZM167.312 34.2026C167.312 33.6908 167.314 33.386 167.332 33.16C167.349 32.9494 167.375 32.9252 167.36 32.9539L165.021 31.7622C164.816 32.1652 164.746 32.5733 164.716 32.9463C164.686 33.3039 164.688 33.7342 164.688 34.2026H167.312ZM168.8 30.0901C168.332 30.0901 167.901 30.089 167.544 30.1183C167.171 30.1487 166.763 30.2185 166.36 30.4238L167.551 32.7627C167.523 32.7774 167.547 32.7517 167.757 32.7345C167.983 32.7161 168.288 32.7151 168.8 32.7151V30.0901ZM167.36 32.9539C167.402 32.8716 167.469 32.8047 167.551 32.7627L166.36 30.4238C165.783 30.7175 165.315 31.186 165.021 31.7622L167.36 32.9539ZM194.312 38.2405C194.247 38.6855 194.209 38.9464 194.166 39.1387C194.126 39.3149 194.103 39.3349 194.116 39.3137L196.323 40.735C196.543 40.3941 196.653 40.0417 196.727 39.7128C196.797 39.4 196.851 39.0231 196.91 38.6178L194.312 38.2405ZM192.84 42.1393C193.25 42.1393 193.63 42.1402 193.95 42.1157C194.286 42.0901 194.651 42.0314 195.02 41.8631L193.93 39.4748C193.953 39.4644 193.93 39.4846 193.75 39.4984C193.553 39.5134 193.29 39.5143 192.84 39.5143V42.1393ZM194.116 39.3137C194.071 39.3841 194.006 39.4401 193.93 39.4748L195.02 41.8631C195.553 41.6197 196.006 41.2281 196.323 40.735L194.116 39.3137ZM168.8 39.5117C168.288 39.5117 167.983 39.5107 167.757 39.4922C167.547 39.475 167.523 39.4494 167.551 39.464L166.36 41.8029C166.763 42.0083 167.171 42.078 167.544 42.1085C167.901 42.1377 168.332 42.1367 168.8 42.1367V39.5117ZM164.688 38.0242C164.688 38.4926 164.686 38.9228 164.716 39.2805C164.746 39.6535 164.816 40.0615 165.021 40.4645L167.36 39.2728C167.375 39.3015 167.349 39.2774 167.332 39.0667C167.314 38.8407 167.312 38.5359 167.312 38.0242H164.688ZM167.551 39.464C167.469 39.4221 167.402 39.3551 167.36 39.2728L165.021 40.4645C165.315 41.0408 165.783 41.5093 166.36 41.8029L167.551 39.464ZM193.395 32.7177C193.976 32.7177 194.328 32.7188 194.588 32.7411C194.835 32.7624 194.859 32.7945 194.824 32.7743L196.115 30.4891C195.679 30.2424 195.224 30.1612 194.813 30.1258C194.414 30.0915 193.93 30.0927 193.395 30.0927V32.7177ZM197.465 34.7961C197.542 34.2669 197.612 33.7873 197.636 33.388C197.66 32.976 197.645 32.5142 197.463 32.0468L195.016 32.9968C195.001 32.9586 195.03 32.9876 195.015 33.235C195 33.4951 194.951 33.8438 194.867 34.4189L197.465 34.7961ZM194.824 32.7743C194.912 32.824 194.98 32.9026 195.016 32.9968L197.463 32.0468C197.207 31.3876 196.731 30.8372 196.115 30.4891L194.824 32.7743ZM176.476 43.6242C176.476 43.1558 176.477 42.7256 176.448 42.3679C176.417 41.9949 176.348 41.5869 176.142 41.1839L173.803 42.3756C173.789 42.3469 173.814 42.371 173.832 42.5817C173.85 42.8077 173.851 43.1125 173.851 43.6242H176.476ZM172.363 42.1367C172.875 42.1367 173.18 42.1377 173.406 42.1562C173.617 42.1734 173.641 42.199 173.612 42.1844L174.804 39.8455C174.401 39.6401 173.993 39.5704 173.62 39.5399C173.262 39.5107 172.832 39.5117 172.363 39.5117V42.1367ZM176.142 41.1839C175.849 40.6076 175.38 40.1391 174.804 39.8455L173.612 42.1844C173.694 42.2263 173.761 42.2933 173.803 42.3756L176.142 41.1839ZM184.81 28.6052C184.81 29.0735 184.809 29.5038 184.838 29.8614C184.869 30.2344 184.939 30.6425 185.144 31.0455L187.483 29.8538C187.498 29.8825 187.472 29.8583 187.455 29.6477C187.436 29.4217 187.435 29.1169 187.435 28.6052H184.81ZM188.923 30.0927C188.411 30.0927 188.106 30.0916 187.88 30.0732C187.67 30.056 187.645 30.0303 187.674 30.045L186.482 32.3839C186.885 32.5892 187.293 32.659 187.666 32.6895C188.024 32.7187 188.454 32.7177 188.923 32.7177V30.0927ZM185.144 31.0455C185.438 31.6217 185.906 32.0903 186.482 32.3839L187.674 30.045C187.592 30.003 187.525 29.9361 187.483 29.8538L185.144 31.0455ZM173.851 62.2C173.851 62.6684 173.85 63.0986 173.879 63.4563C173.91 63.8293 173.979 64.2373 174.185 64.6403L176.524 63.4486C176.538 63.4773 176.513 63.4532 176.495 63.2425C176.477 63.0165 176.476 62.7117 176.476 62.2H173.851ZM177.963 63.6875C177.452 63.6875 177.147 63.6865 176.921 63.668C176.71 63.6508 176.686 63.6252 176.715 63.6398L175.523 65.9787C175.926 66.1841 176.334 66.2538 176.707 66.2843C177.065 66.3135 177.495 66.3125 177.963 66.3125V63.6875ZM174.185 64.6403C174.478 65.2166 174.947 65.6851 175.523 65.9787L176.715 63.6398C176.633 63.5979 176.566 63.5309 176.524 63.4486L174.185 64.6403Z" fill="#00D8FF"/>
<path d="M175.163 40.8242V65H186.123V40.8268H195.263L196.631 31.4052H186.123V25.3885C186.123 22.6624 186.975 20.8026 191.381 20.8026L197 20.8V12.372C196.027 12.2575 192.694 12 188.812 12C180.709 12 175.163 16.3909 175.163 24.4547V31.4026H166V40.8242H175.163Z" stroke="url(#paint5_linear_50_46)" stroke-width="2.625" stroke-linecap="round" stroke-linejoin="round"/>
</g>
<defs>
<linearGradient id="paint0_linear_50_46" x1="17.4834" y1="57.25" x2="39.4969" y2="25.5391" gradientUnits="userSpaceOnUse">
<stop offset="0.0721609" stop-color="#00D8FF" stop-opacity="0"/>
<stop offset="0.676942" stop-color="#00D8FF"/>
</linearGradient>
<linearGradient id="paint1_linear_50_46" x1="265.5" y1="21" x2="265.5" y2="40.8947" gradientUnits="userSpaceOnUse">
<stop stop-color="#00D8FF" stop-opacity="0"/>
<stop offset="0.410714" stop-color="#00D8FF"/>
</linearGradient>
<linearGradient id="paint2_linear_50_46" x1="277.341" y1="40.0625" x2="287.23" y2="40.0625" gradientUnits="userSpaceOnUse">
<stop stop-color="#00D8FF" stop-opacity="0"/>
<stop offset="0.77894" stop-color="#00D8FF"/>
</linearGradient>
<linearGradient id="paint3_linear_50_46" x1="253.659" y1="39.0625" x2="243.77" y2="39.0625" gradientUnits="userSpaceOnUse">
<stop stop-color="#00D8FF" stop-opacity="0"/>
<stop offset="0.77894" stop-color="#00D8FF"/>
</linearGradient>
<linearGradient id="paint4_linear_50_46" x1="93.2969" y1="37.5469" x2="117.906" y2="45.9844" gradientUnits="userSpaceOnUse">
<stop offset="0.106465" stop-color="#00D8FF"/>
<stop offset="1" stop-color="#00D8FF" stop-opacity="0"/>
</linearGradient>
<linearGradient id="paint5_linear_50_46" x1="184.083" y1="64.2639" x2="186.281" y2="43.8898" gradientUnits="userSpaceOnUse">
<stop offset="0.0721609" stop-color="#00D8FF" stop-opacity="0"/>
<stop offset="0.74" stop-color="#00D8FF"/>
</linearGradient>
<clipPath id="clip0_50_46">
<rect width="319" height="77" fill="white"/>
</clipPath>
<clipPath id="clip1_50_46">
<rect width="105" height="103" fill="white" transform="translate(214 -12)"/>
</clipPath>
<clipPath id="clip2_50_46">
<rect width="100" height="105" fill="white" transform="translate(50 -15)"/>
</clipPath>
</defs>
</svg>
