<svg width="535" height="505" viewBox="0 0 535 505" fill="none" xmlns="http://www.w3.org/2000/svg">
<g opacity="0.2">
<path d="M8.21365 129.704C-28.9751 -0.483575 108.786 -13.7352 208.204 25.5749C266.21 45.7915 304.303 -17.0807 376.161 8.0108C448.019 33.1023 361.876 112.141 471.827 152.705C581.778 193.27 528.101 374.765 432.002 376.856C335.903 378.947 362.309 409.475 266.21 479.313C170.11 549.151 8.21387 452.13 48.4716 349.673C88.7292 247.216 48.4711 270.635 8.21365 129.704Z" stroke="white" stroke-width="3"/>
<path d="M215.042 231.023C210.751 218.623 230.849 198.62 247.009 207.157C261.808 214.974 276.878 209.702 286.834 213.187C313.045 222.362 303.404 227.219 315.121 238.116C329.379 251.376 336.182 286.098 303.404 286.098C276.445 286.098 284.511 298.748 264.324 304.352C244.137 309.957 221.244 300.417 221.244 275.299C221.244 265.866 222.188 251.675 215.042 231.023Z" stroke="white" stroke-width="3"/>
<path d="M27.0135 138.283C-7.18451 18.8026 119.88 4.9372 211.729 41.4497C265.807 60.5391 301.807 2.90325 368.038 26.0305C435.746 49.6751 356.558 121.97 457.579 159.837C558.83 197.92 510.651 366.072 420.309 367.973C330.495 369.873 355.234 398.776 266.036 462.775C176.838 526.773 27.5776 437.706 64.1755 342.279C100.773 248.279 64.2609 268.279 27.0135 138.283Z" stroke="white" stroke-width="3"/>
<path d="M45.8135 146.862C14.6061 38.0896 130.974 23.6104 215.254 57.3253C265.404 75.2876 299.311 22.888 359.914 44.0511C423.473 66.2487 351.239 131.799 443.33 166.97C535.882 202.57 493.202 357.379 408.615 359.09C325.087 360.801 348.158 388.078 265.862 446.237C183.565 504.397 46.9414 423.282 79.8795 334.886C112.818 249.343 80.0508 265.923 45.8135 146.862Z" stroke="white" stroke-width="3"/>
<path d="M64.6136 155.441C36.397 57.3766 142.068 42.2836 218.78 73.2009C265.002 90.036 296.816 42.8728 351.791 62.0717C411.2 82.8224 345.921 141.629 429.081 174.103C512.934 207.221 475.752 348.687 396.922 350.208C319.68 351.728 341.084 377.38 265.688 429.7C190.292 482.02 66.3053 408.858 95.5837 327.493C124.862 250.407 95.8408 263.568 64.6136 155.441Z" stroke="white" stroke-width="3"/>
<path d="M83.4139 164.02C58.188 76.6643 153.162 60.9574 222.305 89.0772C264.599 104.785 294.32 62.8582 343.668 80.0929C398.927 99.3966 340.603 151.46 414.833 181.236C489.987 211.872 458.303 339.995 385.229 341.326C314.272 342.656 334.009 366.683 265.514 413.164C197.019 459.644 85.6694 394.434 111.288 320.101C136.906 251.471 111.631 261.213 83.4139 164.02Z" stroke="white" stroke-width="3"/>
<path d="M102.215 173.035C79.9794 96.3868 164.257 80.0661 225.831 105.388C264.197 119.969 291.825 83.2786 335.546 98.549C386.655 116.406 335.286 161.725 400.585 188.804C467.04 216.958 440.854 331.738 373.537 332.879C308.865 334.019 326.935 356.421 265.341 397.062C203.747 437.703 105.034 380.446 126.993 313.143C148.952 252.97 127.422 259.293 102.215 173.035Z" stroke="white" stroke-width="3"/>
<path d="M121.015 182.563C101.771 116.623 175.352 99.6887 229.357 122.213C263.795 135.667 289.33 104.213 327.424 117.519C374.383 133.929 329.969 172.505 386.337 196.887C444.092 222.558 423.405 323.995 361.844 324.946C303.458 325.896 319.86 346.672 265.168 381.474C210.475 416.276 124.399 366.972 142.698 306.7C160.997 254.983 143.212 257.887 121.015 182.563Z" stroke="white" stroke-width="3"/>
<path d="M139.817 192.121C123.563 136.889 186.447 119.34 232.883 139.068C263.394 151.394 286.836 125.176 319.302 136.518C362.112 151.481 324.652 183.313 372.09 204.998C421.146 228.187 405.956 316.281 350.152 317.042C298.051 317.802 312.787 336.953 264.995 365.915C217.204 394.877 143.764 353.526 158.403 300.285C173.042 257.025 159.004 256.51 139.817 192.121Z" stroke="white" stroke-width="3"/>
<path d="M158.619 201.719C145.356 157.195 197.543 139.033 236.411 155.963C262.993 167.162 284.342 146.18 311.181 155.558C349.841 169.074 319.335 194.162 357.844 213.15C398.2 233.857 388.508 308.608 338.461 309.179C292.646 309.749 305.714 327.274 264.823 350.397C223.933 373.52 163.13 340.121 174.109 293.911C185.088 259.108 174.795 255.174 158.619 201.719Z" stroke="white" stroke-width="3"/>
<path d="M177.422 211.378C167.15 177.562 208.641 158.786 239.939 172.918C262.594 182.99 281.85 167.245 303.061 174.658C337.571 186.727 314.021 205.072 343.598 221.363C375.255 239.587 371.062 300.996 326.771 301.376C287.241 301.756 298.642 317.656 264.653 334.94C230.663 352.223 182.497 326.777 189.816 287.598C197.136 261.252 190.589 253.899 177.422 211.378Z" stroke="white" stroke-width="3"/>
<path d="M196.228 221.129C188.946 198.021 219.741 178.631 243.471 189.966C262.197 198.911 279.36 188.402 294.944 193.851C325.304 204.473 308.708 216.074 329.356 229.668C352.313 245.41 353.618 293.476 315.084 293.666C281.839 293.856 291.573 308.131 264.485 319.575C237.397 331.019 201.867 313.526 205.526 281.377C209.186 263.488 206.385 252.715 196.228 221.129Z" stroke="white" stroke-width="3"/>
</g>
</svg>
