<svg width="1440" height="1173" viewBox="0 0 1440 1173" fill="none" xmlns="http://www.w3.org/2000/svg">
<g opacity="0.1">
<g opacity="0.87">
<path d="M-17.0849 4C17.7292 15.2861 86.3918 64.4433 82.5301 170.783C77.703 303.709 -27.6169 386.891 -53.9469 512.292C-73.3803 604.848 -70.6225 836.663 47.8623 934.058" stroke="#8D3DF2" stroke-width="7.78561"/>
<path d="M30.3366 31.4326C65.1507 42.7187 133.813 91.876 129.952 198.216C125.124 331.141 19.8046 414.324 -6.52535 539.725C-25.9588 632.28 -23.201 864.096 95.2838 961.491" stroke="#8D3DF2" stroke-width="7.78561"/>
<path d="M78.4804 57.7078C113.294 68.9939 181.957 118.151 178.095 224.491C173.268 357.416 67.9484 440.599 41.6184 566C22.185 658.556 24.9428 890.371 143.428 987.766" stroke="#8D3DF2" stroke-width="7.78561"/>
<path d="M127.295 82.8337C162.11 94.1198 230.772 143.277 226.91 249.617C222.083 382.542 116.763 465.725 90.4335 591.126C71 683.682 73.7579 915.497 192.243 1012.89" stroke="#8D3DF2" stroke-width="7.78561"/>
<path d="M176.771 106.759C211.585 118.045 280.247 167.202 276.386 273.543C271.559 406.468 166.239 489.65 139.909 615.052C120.475 707.607 123.233 939.422 241.718 1036.82" stroke="#8D3DF2" stroke-width="7.78561"/>
<path d="M226.909 129.397C261.723 140.683 330.386 189.84 326.524 296.18C321.697 429.105 216.377 512.288 190.047 637.689C170.614 730.245 173.371 962.06 291.856 1059.45" stroke="#8D3DF2" stroke-width="7.78561"/>
<path d="M277.724 150.622C312.538 161.908 381.201 211.065 377.339 317.405C372.512 450.33 267.192 533.513 240.862 658.914C221.429 751.47 224.186 983.285 342.671 1080.68" stroke="#8D3DF2" stroke-width="7.78561"/>
<path d="M329.231 170.275C364.045 181.561 432.708 230.718 428.846 337.058C424.019 469.984 318.699 553.166 292.369 678.567C272.936 771.123 275.694 1002.94 394.179 1100.33" stroke="#8D3DF2" stroke-width="7.78561"/>
<path d="M381.448 188.151C416.262 199.437 484.924 248.594 481.063 354.934C476.235 487.859 370.916 571.042 344.586 696.443C325.152 788.998 327.91 1020.81 446.395 1118.21" stroke="#8D3DF2" stroke-width="7.78561"/>
<path d="M434.383 203.99C469.197 215.276 537.86 264.433 533.998 370.773C529.171 503.698 423.851 586.881 397.521 712.282C378.088 804.837 380.846 1036.65 499.33 1134.05" stroke="#8D3DF2" stroke-width="7.78561"/>
<path d="M488.036 217.464C522.85 228.75 591.512 277.907 587.651 384.247C582.824 517.172 477.504 600.355 451.174 725.756C431.74 818.311 434.498 1050.13 552.983 1147.52" stroke="#8D3DF2" stroke-width="7.78561"/>
<path d="M542.374 228.156C577.189 239.442 645.851 288.599 641.989 394.939C637.162 527.865 531.842 611.047 505.512 736.448C486.079 829.004 488.837 1060.82 607.322 1158.21" stroke="#8D3DF2" stroke-width="7.78561"/>
<path d="M597.317 235.536C632.131 246.822 700.793 295.98 696.932 402.32C692.105 535.245 586.785 618.428 560.455 743.829C541.021 836.384 543.779 1068.2 662.264 1165.59" stroke="#8D3DF2" stroke-width="7.78561"/>
<path d="M652.687 238.942C687.501 250.228 756.164 299.385 752.302 405.725C747.475 538.65 642.155 621.833 615.825 747.234C596.392 839.79 599.15 1071.6 717.634 1169" stroke="#8D3DF2" stroke-width="7.78561"/>
<path d="M708.154 237.556C742.968 248.842 811.631 298 807.769 404.34C802.942 537.265 697.622 620.448 671.292 745.849C651.859 838.404 654.617 1070.22 773.102 1167.61" stroke="#8D3DF2" stroke-width="7.78561"/>
<path d="M763.135 230.438C797.949 241.724 866.612 290.881 862.75 397.221C857.923 530.147 752.603 613.329 726.273 738.73C706.84 831.286 709.597 1063.1 828.082 1160.5" stroke="#8D3DF2" stroke-width="7.78561"/>
<path d="M816.694 216.628C851.508 227.914 920.17 277.072 916.309 383.412C911.482 516.337 806.162 599.52 779.832 724.921C760.398 817.476 763.156 1049.29 881.641 1146.69" stroke="#8D3DF2" stroke-width="7.78561"/>
<path d="M876.719 191.673C911.533 202.959 980.196 252.117 976.334 358.457C971.507 491.382 866.187 574.565 839.857 699.966C820.424 792.521 823.182 1024.34 941.667 1121.73" stroke="#8D3DF2" stroke-width="7.78561"/>
<path d="M928.149 171.835C962.963 183.121 1031.63 232.279 1027.76 338.619C1022.94 471.544 917.617 554.727 891.287 680.128C871.853 772.683 874.611 1004.5 993.096 1101.89" stroke="#8D3DF2" stroke-width="7.78561"/>
<path d="M981.122 156.112C1015.94 167.398 1084.6 216.555 1080.74 322.896C1075.91 455.821 970.59 539.003 944.26 664.405C924.827 756.96 927.584 988.775 1046.07 1086.17" stroke="#8D3DF2" stroke-width="7.78561"/>
<path d="M1035.28 144.601C1070.09 155.887 1138.75 205.044 1134.89 311.384C1130.06 444.309 1024.74 527.492 998.414 652.893C978.981 745.449 981.739 977.264 1100.22 1074.66" stroke="#8D3DF2" stroke-width="7.78561"/>
<path d="M1090.23 137.3C1125.04 148.586 1193.71 197.744 1189.85 304.084C1185.02 437.009 1079.7 520.192 1053.37 645.593C1033.94 738.148 1036.69 969.964 1155.18 1067.36" stroke="#8D3DF2" stroke-width="7.78561"/>
<path d="M1145.62 134.119C1180.43 145.405 1249.09 194.563 1245.23 300.903C1240.4 433.828 1135.08 517.011 1108.75 642.412C1089.32 734.967 1092.08 966.783 1210.56 1064.18" stroke="#8D3DF2" stroke-width="7.78561"/>
<path d="M1201.1 134.894C1235.91 146.18 1304.57 195.337 1300.71 301.677C1295.88 434.602 1190.56 517.785 1164.23 643.186C1144.8 735.742 1147.56 967.557 1266.04 1064.95" stroke="#8D3DF2" stroke-width="7.78561"/>
<path d="M1256.38 139.416C1291.19 150.702 1359.86 199.859 1355.99 306.199C1351.17 439.124 1245.85 522.307 1219.52 647.708C1200.08 740.264 1202.84 972.079 1321.33 1069.47" stroke="#8D3DF2" stroke-width="7.78561"/>
<path d="M1311.22 147.453C1346.03 158.739 1414.7 207.897 1410.83 314.237C1406.01 447.162 1300.69 530.345 1274.36 655.746C1254.92 748.301 1257.68 980.117 1376.17 1077.51" stroke="#8D3DF2" stroke-width="7.78561"/>
<path d="M1365.42 158.775C1400.23 170.061 1468.89 219.218 1465.03 325.558C1460.2 458.484 1354.88 541.666 1328.55 667.067C1309.12 759.623 1311.88 991.438 1430.36 1088.83" stroke="#8D3DF2" stroke-width="7.78561"/>
<path d="M1418.81 173.167C1453.62 184.454 1522.28 233.611 1518.42 339.951C1513.59 472.876 1408.27 556.059 1381.94 681.46C1362.51 774.015 1365.27 1005.83 1483.75 1103.23" stroke="#8D3DF2" stroke-width="7.78561"/>
<path d="M1471.23 190.45C1506.04 201.737 1574.71 250.894 1570.84 357.234C1566.02 490.159 1460.7 573.342 1434.37 698.743C1414.93 791.298 1417.69 1023.11 1536.18 1120.51" stroke="#8D3DF2" stroke-width="7.78561"/>
</g>
</g>
</svg>
