<svg width="903" height="1002" viewBox="0 0 903 1002" fill="none" xmlns="http://www.w3.org/2000/svg">
<g opacity="0.3">
<path opacity="0.010101" d="M287.209 500.306C283.539 495.303 282.814 488.517 285.295 482.376L434.261 113.586C437.91 104.554 447.442 99.2847 456.381 101.359L762.922 172.509C769.961 174.143 775.047 180.007 775.836 187.397L820.515 605.875C821.305 613.265 817.643 620.748 811.219 624.872L531.452 804.488C523.294 809.725 513.027 808.119 507.629 800.76L287.209 500.306Z" stroke="url(#paint0_linear_16_198)" stroke-width="3"/>
<path opacity="0.020202" d="M283.777 495.152C280.182 490.079 279.55 483.301 282.105 477.233L435.637 112.637C439.409 103.679 449.044 98.6206 457.978 100.907L762.86 178.916C769.878 180.712 774.885 186.681 775.574 194.075L814.628 612.754C815.318 620.148 811.557 627.535 805.077 631.512L523.589 804.294C515.34 809.357 505.062 807.517 499.755 800.026L283.777 495.152Z" stroke="url(#paint1_linear_16_198)" stroke-width="3"/>
<path opacity="0.030303" d="M280.434 490.008C276.915 484.865 276.375 478.094 279.004 472.1L437.036 111.794C440.93 102.915 450.66 98.0714 459.584 100.568L762.725 185.385C769.721 187.343 774.646 193.417 775.237 200.814L808.672 619.557C809.263 626.954 805.404 634.243 798.87 638.072L515.75 804C507.416 808.884 497.134 806.809 491.922 799.19L280.434 490.008Z" stroke="url(#paint2_linear_16_198)" stroke-width="3"/>
<path opacity="0.040404" d="M277.181 484.879C273.738 479.665 273.288 472.9 275.991 466.979L438.456 111.06C442.471 102.264 452.289 97.6389 461.197 100.346L762.517 191.917C769.488 194.035 774.332 200.213 774.823 207.613L802.65 626.282C803.142 633.682 799.186 640.873 792.601 644.553L507.938 803.608C499.523 808.31 489.244 805.999 484.13 798.254L277.181 484.879Z" stroke="url(#paint3_linear_16_198)" stroke-width="3"/>
<path opacity="0.050505" d="M274.017 479.763C270.649 474.479 270.29 467.719 273.067 461.87L439.896 110.432C444.03 101.724 453.929 97.3202 462.814 100.236L762.234 198.506C769.178 200.785 773.939 207.066 774.332 214.468L796.562 632.926C796.955 640.328 792.905 647.421 786.269 650.95L500.153 803.116C491.662 807.631 481.395 805.084 476.38 797.218L274.017 479.763Z" stroke="url(#paint4_linear_16_198)" stroke-width="3"/>
<path opacity="0.0606061" d="M270.943 474.662C267.65 469.308 267.381 462.552 270.231 456.775L441.356 109.909C445.607 101.293 455.578 97.1143 464.435 100.238L761.878 205.149C768.792 207.588 773.468 213.973 773.763 221.376L790.409 639.488C790.704 646.891 786.56 653.885 779.878 657.261L492.396 802.524C483.835 806.849 473.587 804.066 468.675 796.081L270.943 474.662Z" stroke="url(#paint5_linear_16_198)" stroke-width="3"/>
<path opacity="0.0707071" d="M267.957 469.58C264.738 464.157 264.559 457.404 267.482 451.698L442.832 109.496C447.198 100.975 457.236 97.024 466.058 100.354L761.446 211.849C768.328 214.446 772.919 220.934 773.115 228.339L784.194 645.967C784.391 653.372 780.155 660.265 773.428 663.488L484.668 801.835C476.043 805.967 465.821 802.947 461.014 794.848L267.957 469.58Z" stroke="url(#paint6_linear_16_198)" stroke-width="3"/>
<path opacity="0.0808081" d="M265.059 464.522C261.914 459.028 261.824 452.276 264.822 446.641L444.325 109.191C448.804 100.769 458.9 97.0491 467.681 100.583L760.939 218.603C767.786 221.358 772.29 227.948 772.388 235.353L777.918 652.364C778.016 659.769 773.689 666.562 766.92 669.63L476.97 801.05C468.287 804.985 458.099 801.731 453.399 793.52L265.059 464.522Z" stroke="url(#paint7_linear_16_198)" stroke-width="3"/>
<path opacity="0.0909091" d="M262.248 459.484C259.177 453.92 259.177 447.169 262.248 441.605L445.832 108.993C450.423 100.675 460.568 97.1868 469.303 100.923L760.356 225.407C767.164 228.319 771.581 235.011 771.581 242.416V658.674C771.581 666.079 767.164 672.771 760.356 675.683L469.303 800.167C460.568 803.903 450.423 800.415 445.832 792.097L262.248 459.484Z" stroke="url(#paint8_linear_16_198)" stroke-width="3"/>
<path opacity="0.10101" d="M259.524 454.472C256.527 448.837 256.616 442.085 259.761 436.592L447.352 108.902C452.052 100.692 462.24 97.4375 470.923 101.373L759.695 232.259C766.464 235.327 770.791 242.12 770.693 249.525L765.185 664.896C765.087 672.302 760.582 678.892 753.736 681.647L461.669 799.187C452.887 802.721 442.792 799.001 438.313 790.58L259.524 454.472Z" stroke="url(#paint9_linear_16_198)" stroke-width="3"/>
<path opacity="0.111111" d="M256.886 449.488C253.963 443.783 254.142 437.029 257.361 431.606L448.884 108.922C453.691 100.823 463.914 97.8035 472.538 101.935L758.958 239.161C765.684 242.383 769.92 249.277 769.724 256.682L758.732 671.033C758.535 678.438 753.944 684.926 747.063 687.523L454.069 798.114C445.247 801.444 435.21 797.493 430.843 788.972L256.886 449.488Z" stroke="url(#paint10_linear_16_198)" stroke-width="3"/>
<path opacity="0.121212" d="M254.334 444.533C251.484 438.755 251.753 431.999 255.047 426.646L450.427 109.049C455.339 101.064 465.588 98.2805 474.148 102.606L758.142 246.106C764.824 249.482 768.968 256.476 768.673 263.879L752.223 677.079C751.928 684.483 747.251 690.868 740.338 693.306L446.504 796.944C437.647 800.068 427.675 795.89 423.424 787.273L254.334 444.533Z" stroke="url(#paint11_linear_16_198)" stroke-width="3"/>
<path opacity="0.131313" d="M251.867 439.609C249.091 433.76 249.45 427 252.818 421.717L451.978 109.285C456.993 101.419 467.26 98.8718 475.751 103.387L757.248 253.097C763.884 256.626 767.934 263.718 767.541 271.12L745.659 683.037C745.265 690.438 740.505 696.72 733.561 698.999L438.975 795.682C430.089 798.598 420.191 794.194 416.057 785.486L251.867 439.609Z" stroke="url(#paint12_linear_16_198)" stroke-width="3"/>
<path opacity="0.141414" d="M249.484 434.719C246.782 428.798 247.231 422.033 250.674 416.819L453.538 109.63C458.652 101.886 468.93 99.5747 477.346 104.277L756.276 260.129C762.862 263.808 766.817 271 766.325 278.4L739.041 688.902C738.55 696.302 733.706 702.48 726.735 704.599L431.482 794.325C422.575 797.032 412.757 792.407 408.742 783.611L249.484 434.719Z" stroke="url(#paint13_linear_16_198)" stroke-width="3"/>
<path opacity="0.151515" d="M247.185 429.863C244.556 423.869 245.097 417.098 248.615 411.955L455.103 110.083C460.314 102.464 470.597 100.389 478.931 105.273L755.224 267.2C761.758 271.029 765.617 278.318 765.026 285.716L732.372 694.675C731.782 702.073 726.856 708.146 719.86 710.104L424.029 792.876C415.105 795.373 405.375 790.529 401.481 781.65L247.185 429.863Z" stroke="url(#paint14_linear_16_198)" stroke-width="3"/>
<path opacity="0.161616" d="M244.969 425.045C242.414 418.978 243.046 412.2 246.64 407.126L456.673 110.645C461.979 103.155 472.257 101.315 480.506 106.378L754.093 274.31C760.573 278.287 764.334 285.673 763.644 293.067L725.653 700.356C724.963 707.75 719.957 713.719 712.938 715.515L416.615 791.335C407.681 793.621 398.046 788.562 394.274 779.604L244.969 425.045Z" stroke="url(#paint15_linear_16_198)" stroke-width="3"/>
<path opacity="0.171717" d="M242.834 420.267C240.353 414.126 241.078 407.34 244.748 402.337L458.246 111.317C463.645 103.959 473.911 102.352 482.069 107.59L752.881 281.456C759.305 285.58 762.967 293.062 762.178 300.453L718.885 705.943C718.095 713.333 713.009 719.197 705.971 720.831L409.242 789.703C400.303 791.778 390.771 786.509 387.122 777.476L242.834 420.267Z" stroke="url(#paint16_linear_16_198)" stroke-width="3"/>
<path opacity="0.181818" d="M240.781 415.529C238.375 409.314 239.192 402.519 242.94 397.586L459.822 112.097C465.31 104.873 475.557 103.5 483.619 108.907L751.59 288.636C757.955 292.905 761.516 300.482 760.627 307.869L712.069 711.434C711.18 718.82 706.015 724.578 698.959 726.05L401.911 787.98C392.974 789.843 383.551 784.368 380.028 775.266L240.781 415.529Z" stroke="url(#paint17_linear_16_198)" stroke-width="3"/>
<path opacity="0.191919" d="M238.808 410.834C236.477 404.544 237.389 397.739 241.213 392.877L461.397 112.986C466.972 105.9 477.193 104.757 485.155 110.329L750.218 295.848C756.522 300.261 759.98 307.932 758.991 315.314L705.207 716.83C704.218 724.211 698.976 729.863 691.905 731.171L394.624 786.168C385.695 787.82 376.387 782.143 372.99 772.975L238.808 410.834Z" stroke="url(#paint18_linear_16_198)" stroke-width="3"/>
<path opacity="0.20202" d="M236.915 406.182C234.659 399.816 235.666 393.001 239.569 388.21L462.972 113.982C468.631 107.037 478.819 106.122 486.675 111.855L748.765 303.089C755.007 307.643 758.36 315.408 757.271 322.784L698.3 722.127C697.211 729.503 691.892 735.048 684.809 736.193L387.382 784.265C378.466 785.706 369.28 779.834 366.01 770.604L236.915 406.182Z" stroke="url(#paint19_linear_16_198)" stroke-width="3"/>
<path opacity="0.212121" d="M235.1 401.58C232.921 395.138 234.023 388.311 238.004 383.592L464.544 115.09C470.284 108.288 480.433 107.599 488.18 113.487L747.231 310.361C753.407 315.056 756.655 322.912 755.465 330.282L691.351 727.329C690.161 734.699 684.766 740.138 677.673 741.119L380.186 782.277C371.289 783.508 362.231 777.445 359.089 768.158L235.1 401.58Z" stroke="url(#paint20_linear_16_198)" stroke-width="3"/>
<path opacity="0.222222" d="M233.363 397.023C231.261 390.505 232.461 383.665 236.521 379.019L466.113 116.304C471.93 109.647 482.033 109.182 489.666 115.22L745.615 317.657C751.724 322.49 754.864 330.437 753.573 337.8L684.36 732.431C683.068 739.794 677.599 745.126 670.499 745.943L373.037 780.2C364.166 781.222 355.24 774.974 352.228 765.634L233.363 397.023Z" stroke="url(#paint21_linear_16_198)" stroke-width="3"/>
<path opacity="0.232323" d="M231.703 392.518C229.679 385.923 230.977 379.07 235.117 374.498L467.676 117.629C473.569 111.12 483.619 110.875 491.135 117.057L743.918 324.98C749.958 329.948 752.989 337.986 751.595 345.341L677.328 737.436C675.935 744.791 670.393 750.015 663.287 750.669L365.937 778.039C357.096 778.853 348.31 772.426 345.428 763.037L231.703 392.518Z" stroke="url(#paint22_linear_16_198)" stroke-width="3"/>
<path opacity="0.242424" d="M230.12 388.065C228.174 381.392 229.571 374.526 233.791 370.027L469.232 119.061C475.197 112.702 485.189 112.675 492.584 118.996L742.139 332.325C748.108 337.427 751.028 345.553 749.532 352.899L670.258 742.341C668.763 749.688 663.148 754.803 656.04 755.293L358.888 775.793C350.082 776.4 341.44 769.8 338.689 760.368L230.12 388.065Z" stroke="url(#paint23_linear_16_198)" stroke-width="3"/>
<path opacity="0.252525" d="M228.611 383.664C226.744 376.912 228.243 370.032 232.544 365.609L470.78 120.6C476.814 114.394 486.741 114.58 494.012 121.035L740.277 339.688C746.173 344.923 748.98 353.136 747.382 360.473L663.151 747.144C661.552 754.482 655.866 759.488 648.758 759.815L351.889 773.461C343.125 773.864 334.631 767.097 332.012 757.625L228.611 383.664Z" stroke="url(#paint24_linear_16_198)" stroke-width="3"/>
<path opacity="0.262626" d="M227.176 379.318C225.389 372.488 226.991 365.594 231.373 361.246L472.318 122.247C478.419 116.195 488.276 116.591 495.419 123.175L738.334 347.071C744.155 352.436 746.848 360.734 745.146 368.062L656.008 751.847C654.306 759.174 648.549 764.072 641.444 764.235L344.944 771.047C336.225 771.248 327.885 764.321 325.398 754.813L227.176 379.318Z" stroke="url(#paint25_linear_16_198)" stroke-width="3"/>
<path opacity="0.272727" d="M225.814 375.03C224.109 368.121 225.814 361.212 230.279 356.942L473.845 124.003C480.009 118.107 489.791 118.71 496.803 125.416L736.309 354.472C742.052 359.965 744.629 368.347 742.823 375.663L648.831 756.45C647.025 763.766 641.197 768.553 634.098 768.553L338.053 768.553C329.385 768.553 321.202 761.472 318.848 751.934L225.814 375.03Z" stroke="url(#paint26_linear_16_198)" stroke-width="3"/>
<path opacity="0.282828" d="M224.524 370.799C222.901 363.811 224.712 356.887 229.26 352.695L475.359 125.865C481.583 120.128 491.285 120.932 498.164 127.755L734.201 361.887C739.865 367.506 742.324 375.97 740.414 383.274L641.621 760.95C639.71 768.254 633.814 772.931 626.722 772.768L331.217 765.978C322.605 765.78 314.584 758.552 312.362 748.987L224.524 370.799Z" stroke="url(#paint27_linear_16_198)" stroke-width="3"/>
<path opacity="0.292929" d="M223.306 366.629C221.766 359.562 223.685 352.622 228.316 348.51L476.859 127.835C483.141 122.257 492.757 123.259 499.5 130.194L732.01 369.315C737.594 375.057 739.934 383.603 737.918 390.893L634.38 765.349C632.364 772.639 626.399 777.205 619.317 776.88L324.437 763.325C315.886 762.932 308.029 755.563 305.941 745.975L223.306 366.629Z" stroke="url(#paint28_linear_16_198)" stroke-width="3"/>
<path opacity="0.30303" d="M222.156 362.52C220.701 355.372 222.73 348.417 227.444 344.387L478.343 129.909C484.679 124.493 494.206 125.689 500.811 132.73L729.738 376.752C735.239 382.616 737.457 391.241 735.336 398.516L627.109 769.643C624.987 776.918 618.955 781.374 611.886 780.886L317.716 760.592C309.229 760.007 301.541 752.504 299.585 742.898L222.156 362.52Z" stroke="url(#paint29_linear_16_198)" stroke-width="3"/>
<path opacity="0.313131" d="M221.076 358.474C219.707 351.246 221.847 344.276 226.646 340.329L479.811 132.092C486.198 126.838 495.631 128.223 502.096 135.364L727.383 384.2C732.8 390.184 734.895 398.885 732.667 406.144L619.81 773.836C617.582 781.096 611.483 785.439 604.428 784.789L311.054 757.785C302.636 757.01 295.119 749.38 293.297 739.761L221.076 358.474Z" stroke="url(#paint30_linear_16_198)" stroke-width="3"/>
<path opacity="0.323232" d="M220.064 354.491C218.782 347.183 221.035 340.198 225.919 336.335L481.259 134.378C487.694 129.288 497.031 130.858 503.353 138.093L724.945 391.653C730.276 397.753 732.247 406.53 729.911 413.772L612.484 777.923C610.149 785.166 603.984 789.397 596.947 788.586L304.452 754.901C296.107 753.94 288.763 746.19 287.075 736.561L220.064 354.491Z" stroke="url(#paint31_linear_16_198)" stroke-width="3"/>
<path opacity="0.333333" d="M219.118 350.575C217.925 343.187 220.293 336.187 225.263 332.41L482.688 136.771C489.168 131.846 498.403 133.596 504.582 140.919L722.425 399.112C727.668 405.327 729.512 414.177 727.069 421.401L605.133 781.908C602.689 789.132 596.459 793.25 589.442 792.279L297.912 751.945C289.643 750.801 282.476 742.938 280.92 733.303L219.118 350.575Z" stroke="url(#paint32_linear_16_198)" stroke-width="3"/>
<path opacity="0.343434" d="M218.238 346.726C217.135 339.258 219.62 332.243 224.676 328.554L484.095 139.268C490.618 134.509 499.748 136.434 505.782 143.84L719.822 406.574C724.977 412.901 726.693 421.822 724.141 429.026L597.758 785.789C595.206 792.993 588.912 796.997 581.916 795.866L291.435 748.917C283.246 747.594 276.257 739.624 274.834 729.988L218.238 346.726Z" stroke="url(#paint33_linear_16_198)" stroke-width="3"/>
<path opacity="0.353535" d="M217.422 342.947C216.411 335.398 219.015 328.369 224.157 324.77L485.48 141.869C492.041 137.277 501.064 139.373 506.952 146.857L717.138 414.038C722.201 420.475 723.787 429.464 721.126 436.647L590.361 789.566C587.7 796.748 581.342 800.638 574.371 799.348L285.022 745.819C276.917 744.32 270.107 736.251 268.816 726.617L217.422 342.947Z" stroke="url(#paint34_linear_16_198)" stroke-width="3"/>
<path opacity="0.363636" d="M216.67 339.236C215.752 331.607 218.478 324.565 223.706 321.058L486.84 144.573C493.437 140.148 502.35 142.41 508.091 149.966L714.371 421.5C719.343 428.044 720.797 437.1 718.026 444.259L582.943 793.238C580.172 800.397 573.751 804.171 566.807 802.724L278.674 742.652C270.656 740.98 264.027 732.818 262.868 723.191L216.67 339.236Z" stroke="url(#paint35_linear_16_198)" stroke-width="3"/>
<path opacity="0.373737" d="M215.979 335.597C215.156 327.888 218.006 320.834 223.321 317.421L488.174 147.381C494.805 143.124 503.605 145.547 509.197 153.17L711.522 428.96C716.4 435.609 717.721 444.729 714.839 451.864L575.506 796.806C572.624 803.94 566.141 807.599 559.226 805.994L272.392 739.418C264.464 737.578 258.017 729.33 256.99 719.713L215.979 335.597Z" stroke="url(#paint36_linear_16_198)" stroke-width="3"/>
<path opacity="0.383838" d="M215.349 332.029C214.623 324.241 217.598 317.175 223.001 313.859L489.481 150.289C496.142 146.2 504.827 148.78 510.271 156.464L708.592 436.413C713.375 443.165 714.561 452.347 711.568 459.455L568.051 800.267C565.058 807.375 558.514 810.917 551.629 809.156L266.178 736.118C258.342 734.113 252.078 725.785 251.182 716.183L215.349 332.029Z" stroke="url(#paint37_linear_16_198)" stroke-width="3"/>
<path opacity="0.393939" d="M214.779 328.536C214.151 320.668 217.255 313.592 222.745 310.374L490.76 153.299C497.448 149.38 506.015 152.111 511.31 159.852L705.58 443.861C710.266 450.713 711.316 459.954 708.21 467.033L560.579 803.625C557.474 810.705 550.87 814.129 544.019 812.213L260.032 732.754C252.292 730.589 246.211 722.188 245.446 712.604L214.779 328.536Z" stroke="url(#paint38_linear_16_198)" stroke-width="3"/>
<path opacity="0.40404" d="M214.268 325.115C213.74 317.169 216.974 310.084 222.551 306.967L492.009 156.408C498.721 152.658 507.17 155.537 512.315 163.328L702.487 451.299C707.076 458.248 707.986 467.546 704.769 474.595L553.093 806.876C549.876 813.926 543.211 817.232 536.396 815.161L253.955 729.327C246.313 727.005 240.416 718.538 239.781 708.975L214.268 325.115Z" stroke="url(#paint39_linear_16_198)" stroke-width="3"/>
<path opacity="0.414141" d="M213.813 321.773C213.387 313.75 216.754 306.656 222.419 303.643L493.226 159.62C499.96 156.038 508.287 159.06 513.284 166.898L699.312 458.728C703.802 465.772 704.573 475.124 701.242 482.141L545.593 810.025C542.263 817.042 535.539 820.23 528.761 818.005L247.949 725.843C240.407 723.368 234.694 714.84 234.187 705.303L213.813 321.773Z" stroke="url(#paint40_linear_16_198)" stroke-width="3"/>
<path opacity="0.424242" d="M213.414 318.507C213.092 310.407 216.594 303.307 222.347 300.4L494.41 162.929C501.163 159.517 509.368 162.677 514.215 170.555L696.057 466.145C700.447 473.281 701.076 482.683 697.631 489.666L538.082 813.068C534.637 820.051 527.855 823.118 521.117 820.742L242.014 722.299C234.575 719.675 229.045 711.093 228.666 701.585L213.414 318.507Z" stroke="url(#paint41_linear_16_198)" stroke-width="3"/>
<path opacity="0.434343" d="M213.071 315.318C212.854 307.142 216.494 300.038 222.335 297.24L495.561 166.336C502.33 163.093 510.412 166.386 515.11 174.301L692.721 473.546C697.01 480.771 697.496 490.223 693.937 497.169L530.56 816.006C527.001 822.952 520.161 825.898 513.465 823.371L236.152 718.698C228.817 715.93 223.47 707.3 223.218 697.824L213.071 315.318Z" stroke="url(#paint42_linear_16_198)" stroke-width="3"/>
<path opacity="0.444444" d="M212.78 312.21C212.671 303.959 216.451 296.852 222.379 294.165L496.676 169.84C503.458 166.766 511.415 170.188 515.965 178.136L689.305 480.932C693.491 488.244 693.833 497.741 690.159 504.648L523.029 818.839C519.354 825.746 512.458 828.571 505.806 825.894L230.362 715.044C223.133 712.134 217.968 703.462 217.843 694.022L212.78 312.21Z" stroke="url(#paint43_linear_16_198)" stroke-width="3"/>
<path opacity="0.454545" d="M212.542 309.182C212.542 300.856 216.465 293.749 222.48 291.176L497.754 173.441C504.547 170.536 512.379 174.082 516.78 182.057L685.809 488.299C689.892 495.697 690.088 505.235 686.298 512.102L515.49 821.568C511.7 828.435 504.748 831.137 498.141 828.311L224.647 711.337C217.525 708.291 212.542 699.582 212.542 690.181L212.542 309.182Z" stroke="url(#paint44_linear_16_198)" stroke-width="3"/>
<path opacity="0.464646" d="M212.355 306.234C212.466 297.836 216.534 290.73 222.636 288.274L498.795 177.136C505.595 174.4 513.301 178.067 517.555 186.064L682.234 495.647C686.213 503.127 686.262 512.704 682.356 519.527L507.945 824.193C504.039 831.016 497.032 833.594 490.473 830.622L219.006 707.579C211.993 704.401 207.191 695.661 207.315 686.302L212.355 306.234Z" stroke="url(#paint45_linear_16_198)" stroke-width="3"/>
<path opacity="0.474747" d="M212.217 303.366C212.442 294.897 216.657 287.795 222.845 285.46L499.796 180.924C506.601 178.355 514.181 182.139 518.288 190.155L678.58 502.971C682.454 510.53 682.354 520.143 678.331 526.921L500.396 826.711C496.373 833.489 489.311 835.942 482.802 832.824L213.44 703.771C206.538 700.464 201.915 691.698 202.162 682.385L212.217 303.366Z" stroke="url(#paint46_linear_16_198)" stroke-width="3"/>
<path opacity="0.484848" d="M212.128 300.582C212.468 292.044 216.833 284.948 223.107 282.736L500.756 184.806C507.564 182.405 515.017 186.301 518.979 194.331L674.848 510.273C678.615 517.909 678.365 527.554 674.225 534.284L492.843 829.127C488.703 835.856 481.587 838.184 475.13 834.921L207.951 699.917C201.16 696.486 196.715 687.699 197.084 678.434L212.128 300.582Z" stroke="url(#paint47_linear_16_198)" stroke-width="3"/>
<path opacity="0.494949" d="M212.086 297.881C212.543 289.275 217.06 282.189 223.419 280.102L501.675 188.779C508.483 186.545 515.809 190.548 519.626 198.59L671.037 517.548C674.697 525.258 674.296 534.933 670.039 541.611L485.287 831.438C481.03 838.116 473.862 840.316 467.459 836.911L202.539 696.018C195.86 692.466 191.592 683.664 192.081 674.451L212.086 297.881Z" stroke="url(#paint48_linear_16_198)" stroke-width="3"/>
<path opacity="0.50505" d="M212.089 295.266C212.666 286.594 217.337 279.52 223.781 277.562L502.55 192.845C509.355 190.776 516.554 194.885 520.228 202.933L667.149 524.799C670.701 532.58 670.147 542.28 665.772 548.905L477.732 833.647C473.357 840.272 466.137 842.344 459.789 838.797L197.204 692.078C190.638 688.409 186.545 679.597 187.154 670.438L212.089 295.266Z" stroke="url(#paint49_linear_16_198)" stroke-width="3"/>
<path opacity="0.515152" d="M212.137 292.736C212.835 284 217.663 276.941 224.19 275.115L503.381 196.999C510.181 195.096 517.253 199.305 520.785 207.357L663.183 532.018C666.627 539.869 665.919 549.591 661.426 556.159L470.177 835.753C465.684 842.321 458.413 844.264 452.122 840.577L191.947 688.096C185.494 684.315 181.575 675.497 182.302 666.395L212.137 292.736Z" stroke="url(#paint50_linear_16_198)" stroke-width="3"/>
<path opacity="0.525253" d="M212.228 290.29C213.049 281.492 218.036 274.452 224.646 272.761L504.166 201.241C510.96 199.502 517.905 203.808 521.295 211.86L659.142 539.207C662.475 547.123 661.613 556.864 657.002 563.373L462.624 837.755C458.013 844.264 450.692 846.076 444.46 842.25L186.768 684.076C180.43 680.185 176.682 671.365 177.526 662.323L212.228 290.29Z" stroke="url(#paint51_linear_16_198)" stroke-width="3"/>
<path opacity="0.535354" d="M212.362 287.931C213.307 279.074 218.455 272.057 225.147 270.504L504.905 205.57C511.689 203.996 518.508 208.395 521.759 216.443L655.024 546.363C658.248 554.344 657.23 564.099 652.5 570.546L455.075 839.655C450.346 846.102 442.975 847.782 436.804 843.82L181.669 680.019C175.445 676.023 171.867 667.207 172.826 658.227L212.362 287.931Z" stroke="url(#paint52_linear_16_198)" stroke-width="3"/>
<path opacity="0.545455" d="M212.535 285.659C213.608 276.745 218.919 269.754 225.691 268.342L505.596 209.985C512.368 208.574 519.06 213.062 522.173 221.104L650.831 553.485C653.944 561.527 652.769 571.292 647.921 577.674L447.531 841.453C442.683 847.835 435.264 849.382 429.155 845.284L176.649 675.928C170.54 671.83 167.13 663.021 168.202 654.106L212.535 285.659Z" stroke="url(#paint53_linear_16_198)" stroke-width="3"/>
<path opacity="0.555556" d="M212.748 283.474C213.949 274.506 219.426 267.544 226.277 266.277L506.237 214.485C512.995 213.234 519.562 217.81 522.538 225.842L646.563 560.57C649.565 568.67 648.232 578.443 643.265 584.757L439.993 843.149C435.026 849.463 427.56 850.875 421.515 846.644L171.709 671.804C165.715 667.609 162.47 658.81 163.656 649.963L212.748 283.474Z" stroke="url(#paint54_linear_16_198)" stroke-width="3"/>
<path opacity="0.565657" d="M212.999 281.379C214.331 272.358 219.974 265.431 226.903 264.311L506.829 219.068C513.571 217.978 520.013 222.637 522.854 230.657L642.222 567.618C645.111 575.775 643.62 585.55 638.534 591.793L432.462 844.746C427.377 850.988 419.865 852.264 413.885 847.901L166.85 667.651C160.97 663.361 157.889 654.577 159.185 645.8L212.999 281.379Z" stroke="url(#paint55_linear_16_198)" stroke-width="3"/>
<path opacity="0.575758" d="M213.286 279.37C214.751 270.301 220.563 263.412 227.568 262.443L507.369 223.732C514.093 222.802 520.41 227.541 523.118 235.545L637.806 574.626C640.583 582.835 638.933 592.61 633.729 598.778L424.94 846.24C419.736 852.408 412.179 853.547 406.266 849.054L162.07 663.469C156.306 659.088 153.386 650.322 154.792 641.617L213.286 279.37Z" stroke="url(#paint56_linear_16_198)" stroke-width="3"/>
<path opacity="0.585859" d="M213.609 277.452C215.208 268.337 221.19 261.491 228.27 260.676L507.857 228.478C514.56 227.706 520.754 232.522 523.33 240.508L633.319 581.593C635.982 589.853 634.173 599.623 628.85 605.713L417.428 847.636C412.106 853.727 404.505 854.726 398.661 850.104L157.373 659.262C151.723 654.793 148.962 646.049 150.475 637.418L213.609 277.452Z" stroke="url(#paint57_linear_16_198)" stroke-width="3"/>
<path opacity="0.59596" d="M213.966 275.622C215.701 266.465 221.855 259.667 229.007 259.009L508.292 233.301C514.972 232.686 521.044 237.577 523.489 245.543L628.759 588.516C631.309 596.825 629.339 606.585 623.898 612.594L409.928 848.932C404.487 854.941 396.843 855.8 391.07 851.052L152.756 655.03C147.221 650.477 144.616 641.757 146.236 633.204L213.966 275.622Z" stroke="url(#paint58_linear_16_198)" stroke-width="3"/>
<path opacity="0.606061" d="M214.356 273.883C216.228 264.686 222.555 257.941 229.778 257.443L508.672 238.203C515.328 237.744 521.277 242.707 523.594 250.65L624.128 595.396C626.564 603.751 624.433 613.497 618.875 619.422L402.439 850.13C396.881 856.055 389.196 856.772 383.494 851.898L148.22 650.777C142.799 646.143 140.349 637.451 142.074 628.976L214.356 273.883Z" stroke="url(#paint59_linear_16_198)" stroke-width="3"/>
<path opacity="0.616162" d="M214.777 272.232C216.788 263.001 223.291 256.314 230.582 255.979L230.617 254.3L230.582 255.979L508.996 243.181C515.627 242.876 521.455 247.908 523.645 255.826L619.426 602.229C621.748 610.627 619.456 620.355 613.781 626.192L394.965 851.228C389.29 857.065 381.564 857.639 375.936 852.642L143.766 646.504C138.459 641.792 136.16 633.13 137.989 624.736L214.777 272.232L213.532 271.872L214.777 272.232Z" stroke="url(#paint60_linear_16_198)" stroke-width="3"/>
<path opacity="0.626263" d="M215.229 270.674C217.38 261.411 224.058 254.787 231.416 254.618L509.264 248.234C515.867 248.082 521.575 253.18 523.639 261.071L614.655 609.014C616.862 617.453 614.409 627.159 608.616 632.905L387.506 852.23C381.713 857.976 373.949 858.405 368.395 853.286L139.394 642.215C134.2 637.427 132.051 628.799 133.981 620.487L215.229 270.674Z" stroke="url(#paint61_linear_16_198)" stroke-width="3"/>
<path opacity="0.636364" d="M215.709 269.206C218.003 259.915 224.857 253.36 232.278 253.36L509.475 253.36C516.047 253.36 521.637 258.522 523.578 266.385L609.815 615.752C611.907 624.228 609.292 633.908 603.384 639.559L380.062 853.137C374.153 858.788 366.352 859.07 360.874 853.831L135.104 637.91C130.022 633.051 128.02 624.458 130.051 616.23L215.709 269.206Z" stroke="url(#paint62_linear_16_198)" stroke-width="3"/>
<path opacity="0.646465" d="M216.218 267.828C218.654 258.513 225.685 252.032 233.168 252.204L509.627 258.556C516.168 258.707 521.64 263.931 523.459 271.763L604.906 622.436C606.883 630.949 604.107 640.597 598.083 646.149L372.636 853.945C366.612 859.498 358.775 859.632 353.374 854.275L130.895 633.592C125.926 628.663 124.068 620.108 126.198 611.965L216.218 267.828Z" stroke="url(#paint63_linear_16_198)" stroke-width="3"/>
<path opacity="0.656566" d="M216.753 266.541C219.333 257.207 226.542 250.807 234.084 251.153L509.721 263.824C516.229 264.123 521.583 269.407 523.282 277.207L599.931 629.069C601.793 637.615 598.855 647.228 592.716 652.678L365.228 854.66C359.09 860.11 351.218 860.094 345.896 854.621L126.768 629.263C121.911 624.267 120.195 615.752 122.422 607.697L216.753 266.541Z" stroke="url(#paint64_linear_16_198)" stroke-width="3"/>
<path opacity="0.666667" d="M217.313 265.345C220.039 255.995 227.426 249.681 235.023 250.205L509.754 269.158C516.227 269.604 521.466 274.947 523.047 282.713L594.889 635.647C596.635 644.223 593.537 653.796 587.285 659.14L357.84 855.278C351.588 860.622 343.684 860.455 338.442 854.867L122.724 624.924C117.977 619.864 116.4 611.39 118.723 603.425L217.313 265.345Z" stroke="url(#paint65_linear_16_198)" stroke-width="3"/>
<path opacity="0.676768" d="M217.897 264.241C220.77 254.881 228.334 248.659 235.984 249.363L509.725 274.56C516.162 275.153 521.287 280.551 522.751 288.283L589.782 642.171C591.412 650.776 588.152 660.303 581.788 665.538L350.472 855.804C344.108 861.039 336.173 860.718 331.012 855.018L118.761 620.579C114.124 615.457 112.684 607.028 115.101 599.153L217.897 264.241Z" stroke="url(#paint66_linear_16_198)" stroke-width="3"/>
<path opacity="0.686869" d="M218.504 263.228C221.525 253.861 229.266 247.739 236.966 248.625L509.636 280.027C516.035 280.764 521.046 286.217 522.396 293.912L584.61 648.637C586.124 657.268 582.704 666.746 576.228 671.868L343.126 856.236C336.651 861.357 328.687 860.882 323.609 855.072L114.88 616.229C110.352 611.048 109.047 602.664 111.557 594.88L218.504 263.228Z" stroke="url(#paint67_linear_16_198)" stroke-width="3"/>
<path opacity="0.69697" d="M219.133 262.306C222.302 252.938 230.22 246.92 237.967 247.992L509.483 285.557C515.844 286.437 520.742 291.942 521.979 299.6L579.375 655.045C580.772 663.699 577.193 673.123 570.607 678.128L335.803 856.576C329.218 861.58 321.227 860.949 316.233 855.029L111.08 611.877C106.661 606.638 105.488 598.301 108.089 590.61L219.133 262.306Z" stroke="url(#paint68_linear_16_198)" stroke-width="3"/>
<path opacity="0.707071" d="M219.783 261.477C223.1 252.113 231.193 246.207 238.984 247.466L509.267 291.151C515.587 292.172 520.375 297.729 521.5 305.348L574.077 661.395C575.358 670.069 571.619 679.435 564.925 684.319L328.503 856.826C321.81 861.71 313.794 860.92 308.885 854.894L107.362 607.525C103.05 602.231 102.007 593.943 104.698 586.346L219.783 261.477Z" stroke="url(#paint69_linear_16_198)" stroke-width="3"/>
<path opacity="0.717172" d="M220.452 260.737C223.918 251.382 232.186 245.595 240.017 247.043L508.987 296.802C515.266 297.964 519.943 303.57 520.959 311.149L568.718 667.682C569.882 676.375 565.985 685.677 559.185 690.437L321.229 856.983C314.429 861.743 306.39 860.794 301.567 854.662L103.726 603.173C99.5195 597.827 98.6046 589.587 101.384 582.086L220.452 260.737Z" stroke="url(#paint70_linear_16_198)" stroke-width="3"/>
<path opacity="0.727273" d="M221.139 260.09C224.754 250.748 233.196 245.087 241.063 246.727L508.642 302.513C514.878 303.813 519.447 309.467 520.354 317.007L563.297 673.907C564.345 682.616 560.29 691.851 553.385 696.482L313.98 857.053C307.075 861.684 299.016 860.574 294.279 854.339L100.17 598.826C96.0691 593.428 95.2796 585.24 98.1458 577.835L221.139 260.09Z" stroke="url(#paint71_linear_16_198)" stroke-width="3"/>
<path opacity="0.737374" d="M221.843 259.534C225.609 250.211 234.222 244.682 242.121 246.515L508.232 308.281C514.423 309.718 518.885 315.419 519.685 322.918L557.817 680.069C558.749 688.791 554.538 697.953 547.53 702.453L306.758 857.033C299.75 861.532 291.673 860.259 287.024 853.923L96.6951 594.485C92.6989 589.038 92.0325 580.9 94.9843 573.593L221.843 259.534Z" stroke="url(#paint72_linear_16_198)" stroke-width="3"/>
<path opacity="0.747475" d="M222.563 259.07C226.479 249.772 235.261 244.381 243.189 246.41L507.755 314.104C513.901 315.677 518.256 321.424 518.952 328.881L552.278 686.167C553.093 694.901 548.727 703.985 541.619 708.349L299.563 856.926C292.455 861.289 284.361 859.852 279.802 853.417L93.3006 590.152C89.4078 584.657 88.8624 576.572 91.8982 569.363L222.563 259.07Z" stroke="url(#paint73_linear_16_198)" stroke-width="3"/>
<path opacity="0.757576" d="M223.298 258.695C227.363 249.427 236.312 244.182 244.265 246.407L507.21 319.978C513.311 321.685 517.56 327.477 518.153 334.893L546.682 692.196C547.38 700.939 542.861 709.941 535.654 714.165L292.397 856.73C285.19 860.954 277.084 859.351 272.615 852.818L89.9864 585.827C86.1961 580.286 85.7696 572.254 88.8881 565.144L223.298 258.695Z" stroke="url(#paint74_linear_16_198)" stroke-width="3"/>
<path opacity="0.767677" d="M224.047 258.413C228.262 249.18 237.374 244.088 245.348 246.511L506.599 325.905C512.653 327.745 516.798 333.581 517.288 340.954L541.029 698.16C541.611 706.908 536.94 715.824 529.637 719.905L285.261 856.45C277.958 860.53 269.84 858.76 265.463 852.132L86.7521 581.515C83.0633 575.93 82.7536 567.951 85.9535 560.941L224.047 258.413Z" stroke="url(#paint75_linear_16_198)" stroke-width="3"/>
<path opacity="0.777778" d="M224.809 258.221C229.172 249.03 238.445 244.098 246.435 246.72L505.919 331.882C511.925 333.853 515.967 339.732 516.356 347.063L535.321 704.055C535.786 712.808 530.964 721.632 523.568 725.566L278.155 856.085C270.758 860.018 262.633 858.079 258.348 851.358L83.597 577.218C80.0087 571.589 79.8137 563.664 83.0937 556.755L224.809 258.221Z" stroke="url(#paint76_linear_16_198)" stroke-width="3"/>
<path opacity="0.787879" d="M225.583 258.121C230.094 248.976 239.524 244.211 247.526 247.034L505.171 337.907C511.128 340.008 515.068 345.93 515.358 353.217L529.558 709.881C529.907 718.635 524.937 727.364 517.449 731.147L271.08 855.636C263.593 859.419 255.462 857.31 251.271 850.497L80.5211 572.937C77.0323 567.266 76.9502 559.395 80.3089 552.587L225.583 258.121Z" stroke="url(#paint77_linear_16_198)" stroke-width="3"/>
<path opacity="0.79798" d="M226.367 258.11C231.026 249.017 240.609 244.426 248.618 247.449L504.354 343.977C510.261 346.206 514.099 352.169 514.292 359.414L523.742 715.634C523.974 724.388 518.858 733.016 511.282 736.645L264.038 855.101C256.462 858.731 248.33 856.45 244.233 849.548L77.5237 568.672C74.1333 562.96 74.1621 555.143 77.5985 548.437L226.367 258.11Z" stroke="url(#paint78_linear_16_198)" stroke-width="3"/>
<path opacity="0.808081" d="M227.161 258.19C231.967 249.156 241.698 244.745 249.71 247.969L503.466 350.092C509.323 352.449 513.062 358.453 513.157 365.654L517.874 721.316C517.99 730.067 512.729 738.59 505.069 742.062L257.028 854.486C249.368 857.958 241.236 855.505 237.235 848.515L74.6044 564.428C71.3115 558.676 71.4495 550.914 74.9622 544.311L227.161 258.19Z" stroke="url(#paint79_linear_16_198)" stroke-width="3"/>
<path opacity="0.818182" d="M227.963 258.359C232.914 249.389 242.79 245.165 250.8 248.592L502.509 356.248C508.314 358.73 511.954 364.776 511.954 371.934L511.954 726.924C511.954 735.67 506.551 744.084 498.81 747.395L250.052 853.789C242.31 857.1 234.182 854.473 230.277 847.398L71.7623 560.205C68.5659 554.414 68.8113 546.707 72.3992 540.206L227.963 258.359Z" stroke="url(#paint80_linear_16_198)" stroke-width="3"/>
<path opacity="0.828283" d="M228.774 258.619C233.869 249.719 243.883 245.689 251.887 249.317L501.48 362.445C507.234 365.053 510.776 371.138 510.681 378.253L505.984 732.459C505.868 741.197 500.326 749.497 492.506 752.644L243.111 853.012C235.291 856.159 227.17 853.357 223.362 846.198L68.9975 556.006C65.8966 550.176 66.2479 542.524 69.9098 536.127L228.774 258.619Z" stroke="url(#paint81_linear_16_198)" stroke-width="3"/>
<path opacity="0.838384" d="M229.591 258.968C234.828 250.144 244.976 246.314 252.969 250.143L500.381 368.68C506.082 371.411 509.527 377.537 509.339 384.609L499.967 737.918C499.735 746.646 494.056 754.828 486.161 757.808L236.206 852.154C228.311 855.134 220.201 852.157 216.491 844.916L66.3095 551.832C63.3033 545.965 63.7587 538.367 67.4936 532.074L229.591 258.968Z" stroke="url(#paint82_linear_16_198)" stroke-width="3"/>
<path opacity="0.848485" d="M230.414 259.407C235.792 250.665 246.067 247.041 254.045 251.072L499.211 374.953C504.858 377.806 508.207 383.972 507.927 391.002L493.901 743.302C493.554 752.018 487.74 760.077 479.774 762.887L229.336 851.219C221.37 854.029 213.274 850.875 209.663 843.555L63.6968 547.686C60.7843 541.782 61.3423 534.239 65.1493 528.05L230.414 259.407Z" stroke="url(#paint83_linear_16_198)" stroke-width="3"/>
<path opacity="0.858586" d="M231.242 259.934C236.758 251.28 247.154 247.869 255.112 252.1L497.968 381.259C503.562 384.234 506.815 390.44 506.444 397.427L487.788 748.608C487.326 757.309 481.382 765.242 473.348 767.879L222.504 850.205C214.47 852.842 206.392 849.511 202.881 842.114L61.1595 543.568C58.3399 537.629 58.9991 530.139 62.877 524.055L231.242 259.934Z" stroke="url(#paint84_linear_16_198)" stroke-width="3"/>
<path opacity="0.868687" d="M232.073 260.551C237.726 251.991 248.237 248.797 256.169 253.229L496.653 387.599C502.193 390.694 505.351 396.94 504.89 403.885L481.631 753.836C481.053 762.52 474.981 770.323 466.884 772.784L215.709 849.115C207.612 851.576 199.555 848.067 196.144 840.595L58.6965 539.482C55.9689 533.507 56.7281 526.071 60.676 520.092L232.073 260.551Z" stroke="url(#paint85_linear_16_198)" stroke-width="3"/>
<path opacity="0.878788" d="M232.908 261.258C238.695 252.797 249.314 249.826 257.215 254.457L495.266 393.972C500.751 397.186 503.816 403.471 503.265 410.374L475.429 758.986C474.737 767.652 468.539 775.32 460.383 777.602L208.952 847.951C200.796 850.233 192.765 846.546 189.455 839L56.3078 535.43C53.6714 529.419 54.5291 522.036 58.5461 516.164L232.908 261.258Z" stroke="url(#paint86_linear_16_198)" stroke-width="3"/>
<path opacity="0.888889" d="M233.745 262.052C239.664 253.697 250.382 250.954 258.248 255.782L493.807 400.372C499.235 403.704 502.207 410.03 501.567 416.891L469.184 764.056C468.378 772.7 462.059 780.23 453.847 782.331L202.235 846.711C194.024 848.812 186.022 844.946 182.814 837.329L53.9918 531.411C51.4459 525.365 52.4011 518.035 56.4863 512.268L233.745 262.052Z" stroke="url(#paint87_linear_16_198)" stroke-width="3"/>
<path opacity="0.89899" d="M234.582 262.934C240.63 254.69 251.442 252.181 259.267 257.205L492.274 406.799C497.647 410.249 500.526 416.615 499.798 423.435L462.898 769.045C461.978 777.665 455.54 785.053 447.278 786.971L195.558 845.396C187.296 847.314 179.327 843.27 176.222 835.583L51.7484 527.429C49.2921 521.348 50.3436 514.07 54.4962 508.41L234.582 262.934Z" stroke="url(#paint88_linear_16_198)" stroke-width="3"/>
<path opacity="0.909091" d="M235.42 263.907C241.594 255.78 252.491 253.508 260.27 258.726L490.668 413.255C495.985 416.82 498.772 423.227 497.956 430.006L456.571 773.954C455.537 782.549 448.985 789.792 440.676 791.524L188.922 844.011C180.614 845.743 172.681 841.52 169.68 833.767L49.5768 523.487C47.2096 517.371 48.3565 510.145 52.5757 504.591L235.42 263.907Z" stroke="url(#paint89_linear_16_198)" stroke-width="3"/>
<path opacity="0.919192" d="M236.257 264.964C242.555 256.96 253.528 254.93 261.257 260.339L488.989 419.73C494.249 423.412 496.945 429.859 496.042 436.598L450.206 778.779C449.058 787.345 442.394 794.44 434.044 795.984L182.327 842.552C173.977 844.096 166.086 839.694 163.189 831.876L47.476 519.582C45.1972 513.431 46.4385 506.256 50.7235 500.809L236.257 264.964Z" stroke="url(#paint90_linear_16_198)" stroke-width="3"/>
<path opacity="0.929293" d="M237.093 266.111C243.51 258.234 254.551 256.45 262.225 262.049L487.237 426.229C492.439 430.025 495.044 436.514 494.054 443.213L443.802 783.522C442.541 792.058 435.77 799.001 427.383 800.356L175.774 841.023C167.387 842.378 159.541 837.798 156.749 829.917L45.4452 515.719C43.2542 509.534 44.589 502.409 48.9391 497.069L237.093 266.111Z" stroke="url(#paint91_linear_16_198)" stroke-width="3"/>
<path opacity="0.939394" d="M237.926 267.345C244.459 259.602 255.56 258.066 263.174 263.852L485.411 432.748C490.555 436.658 493.069 443.188 491.994 449.848L437.361 788.182C435.988 796.685 429.112 803.473 420.693 804.638L169.264 839.424C160.845 840.588 153.048 835.83 150.362 827.888L43.4837 511.9C41.3799 505.68 42.8076 498.605 47.2221 493.373L237.926 267.345Z" stroke="url(#paint92_linear_16_198)" stroke-width="3"/>
<path opacity="0.949495" d="M238.755 268.668C245.401 261.063 256.553 259.779 264.102 265.749L483.511 439.287C488.597 443.31 491.021 449.882 489.86 456.502L430.884 792.759C429.399 801.227 422.424 807.858 413.978 808.83L162.798 837.757C154.351 838.73 146.608 833.795 144.028 825.794L41.5904 508.127C39.5735 501.872 41.0933 494.846 45.5716 489.722L238.755 268.668Z" stroke="url(#paint93_linear_16_198)" stroke-width="3"/>
<path opacity="0.959596" d="M239.58 270.076C246.335 262.614 257.529 261.584 265.008 267.735L481.538 445.839C486.565 449.974 488.899 456.589 487.652 463.171L424.374 797.249C422.777 805.68 415.706 812.15 407.237 812.93L156.376 836.021C147.907 836.8 140.221 831.689 137.749 823.632L39.7648 504.397C37.8343 498.108 39.4457 491.13 43.9872 486.114L239.58 270.076Z" stroke="url(#paint94_linear_16_198)" stroke-width="3"/>
<path opacity="0.969697" d="M240.399 271.572C247.26 264.258 258.486 263.484 265.89 269.813L479.491 452.407C484.459 456.654 486.703 463.312 485.37 469.856L417.83 801.655C416.122 810.047 408.96 816.354 400.473 816.939L150 834.219C141.513 834.804 133.889 829.517 131.524 821.406L38.0057 500.718C36.1612 494.393 37.8637 487.463 42.4678 482.555L240.399 271.572Z" stroke="url(#paint95_linear_16_198)" stroke-width="3"/>
<path opacity="0.979798" d="M241.212 273.152C248.174 265.992 259.424 265.475 266.748 271.979L477.37 458.985C482.279 463.343 484.433 470.045 483.015 476.551L411.255 805.972C409.436 814.323 402.186 820.465 393.687 820.856L143.669 832.348C135.169 832.739 127.612 827.278 125.355 819.114L36.3124 497.085C34.5537 490.724 36.3468 483.841 41.0129 479.043L241.212 273.152Z" stroke="url(#paint96_linear_16_198)" stroke-width="3"/>
<path opacity="0.989899" d="M242.017 274.822C249.076 267.819 260.34 267.56 267.581 274.234L475.175 465.575C480.025 470.044 482.088 476.79 480.586 483.26L404.649 810.206C402.72 818.513 395.387 824.487 386.88 824.683L137.385 830.416C128.878 830.611 121.391 824.977 119.242 816.763L34.6837 493.505C33.0105 487.109 34.8941 480.272 39.6217 475.583L242.017 274.822Z" stroke="url(#paint97_linear_16_198)" stroke-width="3"/>
<path d="M242.814 276.577C249.966 269.737 261.235 269.737 268.387 276.577L472.907 472.174C477.696 476.754 479.67 483.545 478.082 489.978L398.014 814.352C395.975 822.614 388.563 828.419 380.053 828.419H131.148C122.638 828.419 115.226 822.614 113.187 814.352L33.1189 489.978C31.5311 483.545 33.5048 476.754 38.2933 472.174L242.814 276.577Z" stroke="url(#paint98_linear_16_198)" stroke-width="3"/>
</g>
<defs>
<linearGradient id="paint0_linear_16_198" x1="591.252" y1="660.072" x2="509.148" y2="216.262" gradientUnits="userSpaceOnUse">
<stop stop-color="white"/>
<stop offset="1" stop-color="#8D3DF2"/>
</linearGradient>
<linearGradient id="paint1_linear_16_198" x1="585.106" y1="661.585" x2="513.106" y2="216.111" gradientUnits="userSpaceOnUse">
<stop stop-color="white"/>
<stop offset="1" stop-color="#8D3DF2"/>
</linearGradient>
<linearGradient id="paint2_linear_16_198" x1="578.963" y1="663.028" x2="517.145" y2="216.212" gradientUnits="userSpaceOnUse">
<stop stop-color="white"/>
<stop offset="1" stop-color="#8D3DF2"/>
</linearGradient>
<linearGradient id="paint3_linear_16_198" x1="572.826" y1="664.404" x2="521.252" y2="216.572" gradientUnits="userSpaceOnUse">
<stop stop-color="white"/>
<stop offset="1" stop-color="#8D3DF2"/>
</linearGradient>
<linearGradient id="paint4_linear_16_198" x1="566.695" y1="665.71" x2="525.41" y2="217.194" gradientUnits="userSpaceOnUse">
<stop stop-color="white"/>
<stop offset="1" stop-color="#8D3DF2"/>
</linearGradient>
<linearGradient id="paint5_linear_16_198" x1="560.57" y1="666.947" x2="529.605" y2="218.08" gradientUnits="userSpaceOnUse">
<stop stop-color="white"/>
<stop offset="1" stop-color="#8D3DF2"/>
</linearGradient>
<linearGradient id="paint6_linear_16_198" x1="554.454" y1="668.117" x2="533.82" y2="219.235" gradientUnits="userSpaceOnUse">
<stop stop-color="white"/>
<stop offset="1" stop-color="#8D3DF2"/>
</linearGradient>
<linearGradient id="paint7_linear_16_198" x1="548.347" y1="669.22" x2="538.04" y2="220.662" gradientUnits="userSpaceOnUse">
<stop stop-color="white"/>
<stop offset="1" stop-color="#8D3DF2"/>
</linearGradient>
<linearGradient id="paint8_linear_16_198" x1="542.249" y1="670.255" x2="542.249" y2="222.358" gradientUnits="userSpaceOnUse">
<stop stop-color="white"/>
<stop offset="1" stop-color="#8D3DF2"/>
</linearGradient>
<linearGradient id="paint9_linear_16_198" x1="536.161" y1="671.222" x2="546.43" y2="224.322" gradientUnits="userSpaceOnUse">
<stop stop-color="white"/>
<stop offset="1" stop-color="#8D3DF2"/>
</linearGradient>
<linearGradient id="paint10_linear_16_198" x1="530.086" y1="672.124" x2="550.567" y2="226.555" gradientUnits="userSpaceOnUse">
<stop stop-color="white"/>
<stop offset="1" stop-color="#8D3DF2"/>
</linearGradient>
<linearGradient id="paint11_linear_16_198" x1="524.023" y1="672.958" x2="554.646" y2="229.051" gradientUnits="userSpaceOnUse">
<stop stop-color="white"/>
<stop offset="1" stop-color="#8D3DF2"/>
</linearGradient>
<linearGradient id="paint12_linear_16_198" x1="517.972" y1="673.728" x2="558.65" y2="231.808" gradientUnits="userSpaceOnUse">
<stop stop-color="white"/>
<stop offset="1" stop-color="#8D3DF2"/>
</linearGradient>
<linearGradient id="paint13_linear_16_198" x1="511.936" y1="674.432" x2="562.564" y2="234.818" gradientUnits="userSpaceOnUse">
<stop stop-color="white"/>
<stop offset="1" stop-color="#8D3DF2"/>
</linearGradient>
<linearGradient id="paint14_linear_16_198" x1="505.915" y1="675.071" x2="566.375" y2="238.076" gradientUnits="userSpaceOnUse">
<stop stop-color="white"/>
<stop offset="1" stop-color="#8D3DF2"/>
</linearGradient>
<linearGradient id="paint15_linear_16_198" x1="499.91" y1="675.646" x2="570.067" y2="241.574" gradientUnits="userSpaceOnUse">
<stop stop-color="white"/>
<stop offset="1" stop-color="#8D3DF2"/>
</linearGradient>
<linearGradient id="paint16_linear_16_198" x1="493.922" y1="676.158" x2="573.629" y2="245.305" gradientUnits="userSpaceOnUse">
<stop stop-color="white"/>
<stop offset="1" stop-color="#8D3DF2"/>
</linearGradient>
<linearGradient id="paint17_linear_16_198" x1="487.951" y1="676.605" x2="577.047" y2="249.258" gradientUnits="userSpaceOnUse">
<stop stop-color="white"/>
<stop offset="1" stop-color="#8D3DF2"/>
</linearGradient>
<linearGradient id="paint18_linear_16_198" x1="481.998" y1="676.99" x2="580.309" y2="253.424" gradientUnits="userSpaceOnUse">
<stop stop-color="white"/>
<stop offset="1" stop-color="#8D3DF2"/>
</linearGradient>
<linearGradient id="paint19_linear_16_198" x1="476.064" y1="677.31" x2="583.406" y2="257.79" gradientUnits="userSpaceOnUse">
<stop stop-color="white"/>
<stop offset="1" stop-color="#8D3DF2"/>
</linearGradient>
<linearGradient id="paint20_linear_16_198" x1="470.15" y1="677.572" x2="586.327" y2="262.35" gradientUnits="userSpaceOnUse">
<stop stop-color="white"/>
<stop offset="1" stop-color="#8D3DF2"/>
</linearGradient>
<linearGradient id="paint21_linear_16_198" x1="464.258" y1="677.771" x2="589.064" y2="267.087" gradientUnits="userSpaceOnUse">
<stop stop-color="white"/>
<stop offset="1" stop-color="#8D3DF2"/>
</linearGradient>
<linearGradient id="paint22_linear_16_198" x1="458.386" y1="677.91" x2="591.608" y2="271.992" gradientUnits="userSpaceOnUse">
<stop stop-color="white"/>
<stop offset="1" stop-color="#8D3DF2"/>
</linearGradient>
<linearGradient id="paint23_linear_16_198" x1="452.537" y1="677.989" x2="593.952" y2="277.051" gradientUnits="userSpaceOnUse">
<stop stop-color="white"/>
<stop offset="1" stop-color="#8D3DF2"/>
</linearGradient>
<linearGradient id="paint24_linear_16_198" x1="446.711" y1="678.008" x2="596.09" y2="282.25" gradientUnits="userSpaceOnUse">
<stop stop-color="white"/>
<stop offset="1" stop-color="#8D3DF2"/>
</linearGradient>
<linearGradient id="paint25_linear_16_198" x1="440.909" y1="677.969" x2="598.018" y2="287.579" gradientUnits="userSpaceOnUse">
<stop stop-color="white"/>
<stop offset="1" stop-color="#8D3DF2"/>
</linearGradient>
<linearGradient id="paint26_linear_16_198" x1="435.131" y1="677.872" x2="599.731" y2="293.024" gradientUnits="userSpaceOnUse">
<stop stop-color="white"/>
<stop offset="1" stop-color="#8D3DF2"/>
</linearGradient>
<linearGradient id="paint27_linear_16_198" x1="429.378" y1="677.718" x2="601.227" y2="298.57" gradientUnits="userSpaceOnUse">
<stop stop-color="white"/>
<stop offset="1" stop-color="#8D3DF2"/>
</linearGradient>
<linearGradient id="paint28_linear_16_198" x1="423.652" y1="677.507" x2="602.502" y2="304.207" gradientUnits="userSpaceOnUse">
<stop stop-color="white"/>
<stop offset="1" stop-color="#8D3DF2"/>
</linearGradient>
<linearGradient id="paint29_linear_16_198" x1="417.952" y1="677.24" x2="603.556" y2="309.919" gradientUnits="userSpaceOnUse">
<stop stop-color="white"/>
<stop offset="1" stop-color="#8D3DF2"/>
</linearGradient>
<linearGradient id="paint30_linear_16_198" x1="412.28" y1="676.919" x2="604.389" y2="315.697" gradientUnits="userSpaceOnUse">
<stop stop-color="white"/>
<stop offset="1" stop-color="#8D3DF2"/>
</linearGradient>
<linearGradient id="paint31_linear_16_198" x1="406.636" y1="676.542" x2="605.001" y2="321.525" gradientUnits="userSpaceOnUse">
<stop stop-color="white"/>
<stop offset="1" stop-color="#8D3DF2"/>
</linearGradient>
<linearGradient id="paint32_linear_16_198" x1="401.02" y1="676.113" x2="605.393" y2="327.395" gradientUnits="userSpaceOnUse">
<stop stop-color="white"/>
<stop offset="1" stop-color="#8D3DF2"/>
</linearGradient>
<linearGradient id="paint33_linear_16_198" x1="395.435" y1="675.63" x2="605.567" y2="333.292" gradientUnits="userSpaceOnUse">
<stop stop-color="white"/>
<stop offset="1" stop-color="#8D3DF2"/>
</linearGradient>
<linearGradient id="paint34_linear_16_198" x1="389.879" y1="675.096" x2="605.525" y2="339.208" gradientUnits="userSpaceOnUse">
<stop stop-color="white"/>
<stop offset="1" stop-color="#8D3DF2"/>
</linearGradient>
<linearGradient id="paint35_linear_16_198" x1="384.354" y1="674.511" x2="605.272" y2="345.129" gradientUnits="userSpaceOnUse">
<stop stop-color="white"/>
<stop offset="1" stop-color="#8D3DF2"/>
</linearGradient>
<linearGradient id="paint36_linear_16_198" x1="378.86" y1="673.875" x2="604.81" y2="351.047" gradientUnits="userSpaceOnUse">
<stop stop-color="white"/>
<stop offset="1" stop-color="#8D3DF2"/>
</linearGradient>
<linearGradient id="paint37_linear_16_198" x1="373.399" y1="673.189" x2="604.144" y2="356.95" gradientUnits="userSpaceOnUse">
<stop stop-color="white"/>
<stop offset="1" stop-color="#8D3DF2"/>
</linearGradient>
<linearGradient id="paint38_linear_16_198" x1="367.97" y1="672.455" x2="603.279" y2="362.832" gradientUnits="userSpaceOnUse">
<stop stop-color="white"/>
<stop offset="1" stop-color="#8D3DF2"/>
</linearGradient>
<linearGradient id="paint39_linear_16_198" x1="362.574" y1="671.672" x2="602.22" y2="368.68" gradientUnits="userSpaceOnUse">
<stop stop-color="white"/>
<stop offset="1" stop-color="#8D3DF2"/>
</linearGradient>
<linearGradient id="paint40_linear_16_198" x1="357.212" y1="670.844" x2="600.972" y2="374.492" gradientUnits="userSpaceOnUse">
<stop stop-color="white"/>
<stop offset="1" stop-color="#8D3DF2"/>
</linearGradient>
<linearGradient id="paint41_linear_16_198" x1="351.885" y1="669.969" x2="599.542" y2="380.256" gradientUnits="userSpaceOnUse">
<stop stop-color="white"/>
<stop offset="1" stop-color="#8D3DF2"/>
</linearGradient>
<linearGradient id="paint42_linear_16_198" x1="346.592" y1="669.049" x2="597.935" y2="385.965" gradientUnits="userSpaceOnUse">
<stop stop-color="white"/>
<stop offset="1" stop-color="#8D3DF2"/>
</linearGradient>
<linearGradient id="paint43_linear_16_198" x1="341.335" y1="668.085" x2="596.158" y2="391.615" gradientUnits="userSpaceOnUse">
<stop stop-color="white"/>
<stop offset="1" stop-color="#8D3DF2"/>
</linearGradient>
<linearGradient id="paint44_linear_16_198" x1="336.114" y1="667.078" x2="594.218" y2="397.199" gradientUnits="userSpaceOnUse">
<stop stop-color="white"/>
<stop offset="1" stop-color="#8D3DF2"/>
</linearGradient>
<linearGradient id="paint45_linear_16_198" x1="330.93" y1="666.029" x2="592.121" y2="402.711" gradientUnits="userSpaceOnUse">
<stop stop-color="white"/>
<stop offset="1" stop-color="#8D3DF2"/>
</linearGradient>
<linearGradient id="paint46_linear_16_198" x1="325.782" y1="664.936" x2="589.874" y2="408.145" gradientUnits="userSpaceOnUse">
<stop stop-color="white"/>
<stop offset="1" stop-color="#8D3DF2"/>
</linearGradient>
<linearGradient id="paint47_linear_16_198" x1="320.672" y1="663.805" x2="587.483" y2="413.499" gradientUnits="userSpaceOnUse">
<stop stop-color="white"/>
<stop offset="1" stop-color="#8D3DF2"/>
</linearGradient>
<linearGradient id="paint48_linear_16_198" x1="315.6" y1="662.632" x2="584.956" y2="418.768" gradientUnits="userSpaceOnUse">
<stop stop-color="white"/>
<stop offset="1" stop-color="#8D3DF2"/>
</linearGradient>
<linearGradient id="paint49_linear_16_198" x1="310.566" y1="661.424" x2="582.299" y2="423.95" gradientUnits="userSpaceOnUse">
<stop stop-color="white"/>
<stop offset="1" stop-color="#8D3DF2"/>
</linearGradient>
<linearGradient id="paint50_linear_16_198" x1="305.571" y1="660.177" x2="579.52" y2="429.041" gradientUnits="userSpaceOnUse">
<stop stop-color="white"/>
<stop offset="1" stop-color="#8D3DF2"/>
</linearGradient>
<linearGradient id="paint51_linear_16_198" x1="300.615" y1="658.892" x2="576.624" y2="434.037" gradientUnits="userSpaceOnUse">
<stop stop-color="white"/>
<stop offset="1" stop-color="#8D3DF2"/>
</linearGradient>
<linearGradient id="paint52_linear_16_198" x1="295.7" y1="657.573" x2="573.619" y2="438.94" gradientUnits="userSpaceOnUse">
<stop stop-color="white"/>
<stop offset="1" stop-color="#8D3DF2"/>
</linearGradient>
<linearGradient id="paint53_linear_16_198" x1="290.824" y1="656.219" x2="570.512" y2="443.744" gradientUnits="userSpaceOnUse">
<stop stop-color="white"/>
<stop offset="1" stop-color="#8D3DF2"/>
</linearGradient>
<linearGradient id="paint54_linear_16_198" x1="285.989" y1="654.831" x2="567.308" y2="448.45" gradientUnits="userSpaceOnUse">
<stop stop-color="white"/>
<stop offset="1" stop-color="#8D3DF2"/>
</linearGradient>
<linearGradient id="paint55_linear_16_198" x1="281.194" y1="653.412" x2="564.014" y2="453.057" gradientUnits="userSpaceOnUse">
<stop stop-color="white"/>
<stop offset="1" stop-color="#8D3DF2"/>
</linearGradient>
<linearGradient id="paint56_linear_16_198" x1="276.441" y1="651.96" x2="560.637" y2="457.563" gradientUnits="userSpaceOnUse">
<stop stop-color="white"/>
<stop offset="1" stop-color="#8D3DF2"/>
</linearGradient>
<linearGradient id="paint57_linear_16_198" x1="271.73" y1="650.478" x2="557.182" y2="461.97" gradientUnits="userSpaceOnUse">
<stop stop-color="white"/>
<stop offset="1" stop-color="#8D3DF2"/>
</linearGradient>
<linearGradient id="paint58_linear_16_198" x1="267.06" y1="648.967" x2="553.655" y2="466.276" gradientUnits="userSpaceOnUse">
<stop stop-color="white"/>
<stop offset="1" stop-color="#8D3DF2"/>
</linearGradient>
<linearGradient id="paint59_linear_16_198" x1="262.432" y1="647.428" x2="550.063" y2="470.482" gradientUnits="userSpaceOnUse">
<stop stop-color="white"/>
<stop offset="1" stop-color="#8D3DF2"/>
</linearGradient>
<linearGradient id="paint60_linear_16_198" x1="257.847" y1="645.86" x2="546.41" y2="474.589" gradientUnits="userSpaceOnUse">
<stop stop-color="white"/>
<stop offset="1" stop-color="#8D3DF2"/>
</linearGradient>
<linearGradient id="paint61_linear_16_198" x1="253.305" y1="644.267" x2="542.702" y2="478.597" gradientUnits="userSpaceOnUse">
<stop stop-color="white"/>
<stop offset="1" stop-color="#8D3DF2"/>
</linearGradient>
<linearGradient id="paint62_linear_16_198" x1="248.806" y1="642.65" x2="538.945" y2="482.509" gradientUnits="userSpaceOnUse">
<stop stop-color="white"/>
<stop offset="1" stop-color="#8D3DF2"/>
</linearGradient>
<linearGradient id="paint63_linear_16_198" x1="244.35" y1="641.007" x2="535.143" y2="486.323" gradientUnits="userSpaceOnUse">
<stop stop-color="white"/>
<stop offset="1" stop-color="#8D3DF2"/>
</linearGradient>
<linearGradient id="paint64_linear_16_198" x1="239.938" y1="639.342" x2="531.301" y2="490.043" gradientUnits="userSpaceOnUse">
<stop stop-color="white"/>
<stop offset="1" stop-color="#8D3DF2"/>
</linearGradient>
<linearGradient id="paint65_linear_16_198" x1="235.569" y1="637.653" x2="527.424" y2="493.668" gradientUnits="userSpaceOnUse">
<stop stop-color="white"/>
<stop offset="1" stop-color="#8D3DF2"/>
</linearGradient>
<linearGradient id="paint66_linear_16_198" x1="231.244" y1="635.946" x2="523.516" y2="497.202" gradientUnits="userSpaceOnUse">
<stop stop-color="white"/>
<stop offset="1" stop-color="#8D3DF2"/>
</linearGradient>
<linearGradient id="paint67_linear_16_198" x1="226.964" y1="634.217" x2="519.582" y2="500.646" gradientUnits="userSpaceOnUse">
<stop stop-color="white"/>
<stop offset="1" stop-color="#8D3DF2"/>
</linearGradient>
<linearGradient id="paint68_linear_16_198" x1="222.728" y1="632.47" x2="515.626" y2="504.003" gradientUnits="userSpaceOnUse">
<stop stop-color="white"/>
<stop offset="1" stop-color="#8D3DF2"/>
</linearGradient>
<linearGradient id="paint69_linear_16_198" x1="218.536" y1="630.706" x2="511.651" y2="507.275" gradientUnits="userSpaceOnUse">
<stop stop-color="white"/>
<stop offset="1" stop-color="#8D3DF2"/>
</linearGradient>
<linearGradient id="paint70_linear_16_198" x1="214.389" y1="628.924" x2="507.662" y2="510.461" gradientUnits="userSpaceOnUse">
<stop stop-color="white"/>
<stop offset="1" stop-color="#8D3DF2"/>
</linearGradient>
<linearGradient id="paint71_linear_16_198" x1="210.287" y1="627.127" x2="503.661" y2="513.568" gradientUnits="userSpaceOnUse">
<stop stop-color="white"/>
<stop offset="1" stop-color="#8D3DF2"/>
</linearGradient>
<linearGradient id="paint72_linear_16_198" x1="206.229" y1="625.316" x2="499.653" y2="516.596" gradientUnits="userSpaceOnUse">
<stop stop-color="white"/>
<stop offset="1" stop-color="#8D3DF2"/>
</linearGradient>
<linearGradient id="paint73_linear_16_198" x1="202.217" y1="623.493" x2="495.64" y2="519.548" gradientUnits="userSpaceOnUse">
<stop stop-color="white"/>
<stop offset="1" stop-color="#8D3DF2"/>
</linearGradient>
<linearGradient id="paint74_linear_16_198" x1="198.249" y1="621.655" x2="491.626" y2="522.425" gradientUnits="userSpaceOnUse">
<stop stop-color="white"/>
<stop offset="1" stop-color="#8D3DF2"/>
</linearGradient>
<linearGradient id="paint75_linear_16_198" x1="194.327" y1="619.808" x2="487.613" y2="525.232" gradientUnits="userSpaceOnUse">
<stop stop-color="white"/>
<stop offset="1" stop-color="#8D3DF2"/>
</linearGradient>
<linearGradient id="paint76_linear_16_198" x1="190.45" y1="617.95" x2="483.604" y2="527.972" gradientUnits="userSpaceOnUse">
<stop stop-color="white"/>
<stop offset="1" stop-color="#8D3DF2"/>
</linearGradient>
<linearGradient id="paint77_linear_16_198" x1="186.618" y1="616.085" x2="479.602" y2="530.646" gradientUnits="userSpaceOnUse">
<stop stop-color="white"/>
<stop offset="1" stop-color="#8D3DF2"/>
</linearGradient>
<linearGradient id="paint78_linear_16_198" x1="182.832" y1="614.209" x2="475.608" y2="533.255" gradientUnits="userSpaceOnUse">
<stop stop-color="white"/>
<stop offset="1" stop-color="#8D3DF2"/>
</linearGradient>
<linearGradient id="paint79_linear_16_198" x1="179.09" y1="612.328" x2="471.626" y2="535.807" gradientUnits="userSpaceOnUse">
<stop stop-color="white"/>
<stop offset="1" stop-color="#8D3DF2"/>
</linearGradient>
<linearGradient id="paint80_linear_16_198" x1="175.394" y1="610.441" x2="467.656" y2="538.299" gradientUnits="userSpaceOnUse">
<stop stop-color="white"/>
<stop offset="1" stop-color="#8D3DF2"/>
</linearGradient>
<linearGradient id="paint81_linear_16_198" x1="171.743" y1="608.549" x2="463.702" y2="540.739" gradientUnits="userSpaceOnUse">
<stop stop-color="white"/>
<stop offset="1" stop-color="#8D3DF2"/>
</linearGradient>
<linearGradient id="paint82_linear_16_198" x1="168.138" y1="606.653" x2="459.766" y2="543.126" gradientUnits="userSpaceOnUse">
<stop stop-color="white"/>
<stop offset="1" stop-color="#8D3DF2"/>
</linearGradient>
<linearGradient id="paint83_linear_16_198" x1="164.577" y1="604.756" x2="455.847" y2="545.466" gradientUnits="userSpaceOnUse">
<stop stop-color="white"/>
<stop offset="1" stop-color="#8D3DF2"/>
</linearGradient>
<linearGradient id="paint84_linear_16_198" x1="161.062" y1="602.856" x2="451.949" y2="547.759" gradientUnits="userSpaceOnUse">
<stop stop-color="white"/>
<stop offset="1" stop-color="#8D3DF2"/>
</linearGradient>
<linearGradient id="paint85_linear_16_198" x1="157.591" y1="600.956" x2="448.073" y2="550.01" gradientUnits="userSpaceOnUse">
<stop stop-color="white"/>
<stop offset="1" stop-color="#8D3DF2"/>
</linearGradient>
<linearGradient id="paint86_linear_16_198" x1="154.166" y1="599.058" x2="444.219" y2="552.222" gradientUnits="userSpaceOnUse">
<stop stop-color="white"/>
<stop offset="1" stop-color="#8D3DF2"/>
</linearGradient>
<linearGradient id="paint87_linear_16_198" x1="150.785" y1="597.161" x2="440.389" y2="554.396" gradientUnits="userSpaceOnUse">
<stop stop-color="white"/>
<stop offset="1" stop-color="#8D3DF2"/>
</linearGradient>
<linearGradient id="paint88_linear_16_198" x1="147.449" y1="595.266" x2="436.585" y2="556.536" gradientUnits="userSpaceOnUse">
<stop stop-color="white"/>
<stop offset="1" stop-color="#8D3DF2"/>
</linearGradient>
<linearGradient id="paint89_linear_16_198" x1="144.157" y1="593.378" x2="432.806" y2="558.647" gradientUnits="userSpaceOnUse">
<stop stop-color="white"/>
<stop offset="1" stop-color="#8D3DF2"/>
</linearGradient>
<linearGradient id="paint90_linear_16_198" x1="140.91" y1="591.491" x2="429.054" y2="560.727" gradientUnits="userSpaceOnUse">
<stop stop-color="white"/>
<stop offset="1" stop-color="#8D3DF2"/>
</linearGradient>
<linearGradient id="paint91_linear_16_198" x1="137.707" y1="589.612" x2="425.33" y2="562.783" gradientUnits="userSpaceOnUse">
<stop stop-color="white"/>
<stop offset="1" stop-color="#8D3DF2"/>
</linearGradient>
<linearGradient id="paint92_linear_16_198" x1="134.548" y1="587.74" x2="421.633" y2="564.817" gradientUnits="userSpaceOnUse">
<stop stop-color="white"/>
<stop offset="1" stop-color="#8D3DF2"/>
</linearGradient>
<linearGradient id="paint93_linear_16_198" x1="131.433" y1="585.877" x2="417.965" y2="566.833" gradientUnits="userSpaceOnUse">
<stop stop-color="white"/>
<stop offset="1" stop-color="#8D3DF2"/>
</linearGradient>
<linearGradient id="paint94_linear_16_198" x1="128.362" y1="584.02" x2="414.326" y2="568.829" gradientUnits="userSpaceOnUse">
<stop stop-color="white"/>
<stop offset="1" stop-color="#8D3DF2"/>
</linearGradient>
<linearGradient id="paint95_linear_16_198" x1="125.334" y1="582.176" x2="410.715" y2="570.814" gradientUnits="userSpaceOnUse">
<stop stop-color="white"/>
<stop offset="1" stop-color="#8D3DF2"/>
</linearGradient>
<linearGradient id="paint96_linear_16_198" x1="122.349" y1="580.34" x2="407.134" y2="572.785" gradientUnits="userSpaceOnUse">
<stop stop-color="white"/>
<stop offset="1" stop-color="#8D3DF2"/>
</linearGradient>
<linearGradient id="paint97_linear_16_198" x1="119.407" y1="578.518" x2="403.582" y2="574.75" gradientUnits="userSpaceOnUse">
<stop stop-color="white"/>
<stop offset="1" stop-color="#8D3DF2"/>
</linearGradient>
<linearGradient id="paint98_linear_16_198" x1="116.508" y1="576.709" x2="400.06" y2="576.709" gradientUnits="userSpaceOnUse">
<stop stop-color="white"/>
<stop offset="1" stop-color="#8D3DF2"/>
</linearGradient>
</defs>
</svg>
