<svg width="30" height="29" viewBox="0 0 30 29" fill="none" xmlns="http://www.w3.org/2000/svg">
<path d="M29.7689 13.195H15.6394V17.1535H25.6703C25.1618 22.678 20.2774 25.0415 15.6549 25.0415C9.75347 25.0415 4.57627 20.6625 4.57627 14.5C4.57627 8.555 9.50693 3.9585 15.6703 3.9585C20.4314 3.9585 23.2203 6.815 23.2203 6.815L26.1479 3.944C26.1479 3.944 22.3883 0 15.5162 0C6.76425 0 0 6.96 0 14.5C0 21.8225 6.36364 29 15.7473 29C23.9908 29 30 23.6785 30 15.8195C30 14.152 29.7689 13.195 29.7689 13.195Z" fill="white"/>
</svg>
